<?xml version="1.0" encoding="UTF-8"?>
<svg version="1.1" xmlns="http://www.w3.org/2000/svg" width="95" height="60">
<path d="M0 0 C31.35 0 62.7 0 95 0 C95 19.8 95 39.6 95 60 C63.65 60 32.3 60 0 60 C0 40.2 0 20.4 0 0 Z " fill="#F8F8F8" transform="translate(0,0)"/>
<path d="M0 0 C1.0725 0.66 2.145 1.32 3.25 2 C2.92 2.66 2.59 3.32 2.25 4 C2.58 4.33 2.91 4.66 3.25 5 C3.25 5.66 3.25 6.32 3.25 7 C4.178125 7.433125 4.178125 7.433125 5.125 7.875 C7.25 9 7.25 9 9.25 11 C-3.29 11 -15.83 11 -28.75 11 C-28.75 9.02 -28.75 7.04 -28.75 5 C-26.275 5.495 -26.275 5.495 -23.75 6 C-23.523125 5.05125 -23.29625 4.1025 -23.0625 3.125 C-21.75 0 -21.75 0 -19.53125 -1.171875 C-13.05458244 -3.10032096 -6.08468981 -3.05861413 0 0 Z " fill="#FDFDFD" transform="translate(28.75,49)"/>
<path d="M0 0 C4.4040784 0.01256513 8.67424877 0.13157267 13 1 C15.3125 4.0625 15.3125 4.0625 16 7 C17.32 7 18.64 7 20 7 C20 8.98 20 10.96 20 13 C7.46 13 -5.08 13 -18 13 C-16.35 11.35 -14.7 9.7 -13 8 C-13 7.01 -13 6.02 -13 5 C-6.59781122 0.9370725 -6.59781122 0.9370725 -3.625 1.25 C-3.08875 1.4975 -2.5525 1.745 -2 2 C-1.67 2 -1.34 2 -1 2 C-0.67 1.34 -0.34 0.68 0 0 Z " fill="#FDFDFD" transform="translate(75,47)"/>
<path d="M0 0 C1.32 0.33 2.64 0.66 4 1 C4 2.32 4 3.64 4 5 C4.66 5 5.32 5 6 5 C6 14.24 6 23.48 6 33 C3.69 32.34 1.38 31.68 -1 31 C-3.48373284 25.70410685 -3.33506166 20.15078464 -3.3125 14.375 C-3.32861328 13.54226562 -3.34472656 12.70953125 -3.36132812 11.8515625 C-3.36515104 7.04997591 -3.05059383 3.94403951 0 0 Z " fill="#FDFDFD" transform="translate(89,16)"/>
<path d="M0 0 C1.875 0.3125 1.875 0.3125 4 1 C6.12315746 4.18473619 6.2556404 5.02034647 6.265625 8.67578125 C6.26820312 9.58650391 6.27078125 10.49722656 6.2734375 11.43554688 C6.26570312 12.38494141 6.25796875 13.33433594 6.25 14.3125 C6.25773438 15.25029297 6.26546875 16.18808594 6.2734375 17.15429688 C6.24562494 27.02080196 6.24562494 27.02080196 4 31 C0.535 32.485 0.535 32.485 -3 34 C-3 24.43 -3 14.86 -3 5 C-1.02 5.99 -1.02 5.99 1 7 C0.4740625 5.824375 0.4740625 5.824375 -0.0625 4.625 C-0.371875 3.75875 -0.68125 2.8925 -1 2 C-0.67 1.34 -0.34 0.68 0 0 Z " fill="#FEFEFE" transform="translate(3,16)"/>
<path d="M0 0 C1.65 0.33 3.3 0.66 5 1 C5.33 2.65 5.66 4.3 6 6 C6.66 6 7.32 6 8 6 C8.66 5.01 9.32 4.02 10 3 C10.66 4.65 11.32 6.3 12 8 C15.71888239 7.49287967 18.73454239 6.88391785 22 5 C22.495 6.485 22.495 6.485 23 8 C19.60048433 11.48229608 17.40275711 13.31028577 12.46875 13.62890625 C10.8123568 13.63285631 9.15571276 13.61013715 7.5 13.5625 C6.67113281 13.57345703 5.84226562 13.58441406 4.98828125 13.59570312 C-0.56093046 13.52953605 -3.77725259 12.66748355 -8 9 C-8 8.34 -8 7.68 -8 7 C-10.475 6.01 -10.475 6.01 -13 5 C-11 4 -11 4 -9 4 C-8.34 3.67 -7.68 3.34 -7 3 C-7 3.66 -7 4.32 -7 5 C-3.73454239 6.88391785 -0.71888239 7.49287967 3 8 C3.33 6.35 3.66 4.7 4 3 C2.68 2.01 1.36 1.02 0 0 Z " fill="#E5E5E5" transform="translate(40,47)"/>
<path d="M0 0 C2 2 2 2 2.265625 4.09375 C2.26046875 4.8878125 2.2553125 5.681875 2.25 6.5 C2.25515625 7.2940625 2.2603125 8.088125 2.265625 8.90625 C2 11 2 11 0 13 C-3.5 13.3125 -3.5 13.3125 -7 13 C-9.46324069 9.30513897 -9.38991688 7.36706908 -9 3 C-6.8388936 -0.72190547 -4.01418597 -0.42704106 0 0 Z " fill="#979797" transform="translate(75,20)"/>
<path d="M0 0 C0.33 0.66 0.66 1.32 1 2 C2.65614657 2.38218767 4.32457024 2.71395102 6 3 C6.66 3.33 7.32 3.66 8 4 C8 5.65 8 7.3 8 9 C6.68 9.33 5.36 9.66 4 10 C1 6.375 1 6.375 1 3 C-0.216875 3.020625 -1.43375 3.04125 -2.6875 3.0625 C-5.91977322 3.06824116 -8.84934741 2.78766315 -12 2 C-12 3.65 -12 5.3 -12 7 C-12.66 6.67 -13.32 6.34 -14 6 C-14 5.34 -14 4.68 -14 4 C-15.6396875 4.2475 -15.6396875 4.2475 -17.3125 4.5 C-21 5 -21 5 -24 5 C-23.67 4.01 -23.34 3.02 -23 2 C-18.75321538 0.96699834 -14.73753272 0.8663954 -10.375 0.875 C-9.06273438 0.87242188 -7.75046875 0.86984375 -6.3984375 0.8671875 C-3 1 -3 1 0 2 C0 1.34 0 0.68 0 0 Z " fill="#E1E1E1" transform="translate(87,45)"/>
<path d="M0 0 C1.65 0.33 3.3 0.66 5 1 C5.12375 1.804375 5.2475 2.60875 5.375 3.4375 C5.58125 4.283125 5.7875 5.12875 6 6 C6.66 6.33 7.32 6.66 8 7 C6.9375 9.4375 6.9375 9.4375 5 12 C1.6875 13.0625 1.6875 13.0625 -2 13 C-5.4375 11.1875 -5.4375 11.1875 -8 9 C-8 8.34 -8 7.68 -8 7 C-10.475 6.01 -10.475 6.01 -13 5 C-11 4 -11 4 -9 4 C-8.34 3.67 -7.68 3.34 -7 3 C-7 3.66 -7 4.32 -7 5 C-3.73454239 6.88391785 -0.71888239 7.49287967 3 8 C3.33 6.35 3.66 4.7 4 3 C2.68 2.01 1.36 1.02 0 0 Z " fill="#DCDCDC" transform="translate(40,47)"/>
<path d="M0 0 C0.66 0.33 1.32 0.66 2 1 C1.01 1.99 0.02 2.98 -1 4 C-0.01 4.66 0.98 5.32 2 6 C0.35 6.66 -1.3 7.32 -3 8 C-2.67 9.98 -2.34 11.96 -2 14 C-5 13 -5 13 -7 10 C-7.99 11.485 -7.99 11.485 -9 13 C-9.2475 12.05125 -9.495 11.1025 -9.75 10.125 C-10.6857077 6.91306809 -10.6857077 6.91306809 -13.125 5.625 C-13.74375 5.41875 -14.3625 5.2125 -15 5 C-13.68 5 -12.36 5 -11 5 C-10.67 4.01 -10.34 3.02 -10 2 C-7.17884816 0.92990792 -5.09455459 1 -2 1 C-1.34 0.67 -0.68 0.34 0 0 Z " fill="#D5D5D5" transform="translate(54,0)"/>
<path d="M0 0 C2.5 0.125 2.5 0.125 3.5 1.125 C3.6875 4.5625 3.6875 4.5625 3.5 8.125 C2.84 8.785 2.18 9.445 1.5 10.125 C-2.03571429 9.58928571 -2.03571429 9.58928571 -3.5 8.125 C-3.625 4.625 -3.625 4.625 -3.5 1.125 C-2.5 0.125 -2.5 0.125 0 0 Z " fill="#FAFAFA" transform="translate(71.5,21.875)"/>
<path d="M0 0 C0.66 0 1.32 0 2 0 C2.33 3.63 2.66 7.26 3 11 C4.65 11 6.3 11 8 11 C8 7.37 8 3.74 8 0 C8.66 0 9.32 0 10 0 C10.05391993 1.79133978 10.09275571 3.58313899 10.125 5.375 C10.14820313 6.37273438 10.17140625 7.37046875 10.1953125 8.3984375 C10 11 10 11 8 13 C5 13.3125 5 13.3125 2 13 C-0.20914 9.68629 -0.22481553 8.6553979 -0.125 4.8125 C-0.10695313 3.91144531 -0.08890625 3.01039062 -0.0703125 2.08203125 C-0.04710938 1.39496094 -0.02390625 0.70789063 0 0 Z " fill="#9E9E9E" transform="translate(29,20)"/>
<path d="M0 0 C0.33 0 0.66 0 1 0 C0.938125 0.78375 0.87625 1.5675 0.8125 2.375 C0.874375 3.24125 0.93625 4.1075 1 5 C1.99 5.66 2.98 6.32 4 7 C3.1028125 7.061875 3.1028125 7.061875 2.1875 7.125 C-0.35100832 7.87739901 -0.35100832 7.87739901 -1.75 11.0625 C-2.1625 12.031875 -2.575 13.00125 -3 14 C-4.65 13.67 -6.3 13.34 -8 13 C-7.6875 10.625 -7.6875 10.625 -7 8 C-4 6 -4 6 -1 6 C-0.67 4.02 -0.34 2.04 0 0 Z " fill="#E8E8E8" transform="translate(8,41)"/>
<path d="M0 0 C3 1 3 1 5 3 C5.66 2.01 6.32 1.02 7 0 C7.66 0.33 8.32 0.66 9 1 C8.649375 1.556875 8.29875 2.11375 7.9375 2.6875 C6.41492647 6.44318137 7.76108373 9.2832512 9 13 C8.34 13 7.68 13 7 13 C5.375 11 5.375 11 4 9 C3.34 10.32 2.68 11.64 2 13 C1.34 13 0.68 13 0 13 C0.350625 12.278125 0.70125 11.55625 1.0625 10.8125 C2.44033573 6.67899282 1.34260173 4.0278052 0 0 Z " fill="#979797" transform="translate(48,20)"/>
<path d="M0 0 C1.65 0 3.3 0 5 0 C5.12375 0.804375 5.2475 1.60875 5.375 2.4375 C5.58125 3.283125 5.7875 4.12875 6 5 C6.66 5.33 7.32 5.66 8 6 C4.67438135 7.76062164 3.40826005 8.10784228 -0.3125 7.125 C-1.199375 6.75375 -2.08625 6.3825 -3 6 C-2.34 5.67 -1.68 5.34 -1 5 C-0.34 5.33 0.32 5.66 1 6 C0.67 4.02 0.34 2.04 0 0 Z " fill="#ECECEC" transform="translate(84,10)"/>
<path d="M0 0 C2 0.25 2 0.25 4 1 C4.33 1.99 4.66 2.98 5 4 C3.3125 6.0625 3.3125 6.0625 1 8 C-2.39154295 7.83849795 -3.58296757 7.41703243 -6 5 C-5.34 4.34 -4.68 3.68 -4 3 C-1.375 3.375 -1.375 3.375 1 4 C1.33 3.34 1.66 2.68 2 2 C1.01 1.67 0.02 1.34 -1 1 C-0.67 0.67 -0.34 0.34 0 0 Z " fill="#DADADA" transform="translate(70,7)"/>
<path d="M0 0 C0.66 0 1.32 0 2 0 C2 3.63 2 7.26 2 11 C3.98 11 5.96 11 8 11 C8 11.66 8 12.32 8 13 C5.36 13 2.72 13 0 13 C0 8.71 0 4.42 0 0 Z " fill="#A3A3A3" transform="translate(14,20)"/>
<path d="M0 0 C2.475 0.99 2.475 0.99 5 2 C5 3.65 5 5.3 5 7 C3.125 7.625 3.125 7.625 1 8 C-1 6 -1 6 -1.1875 3.4375 C-1 1 -1 1 0 0 Z " fill="#E8E8E8" transform="translate(90,47)"/>
<path d="M0 0 C0.66 0 1.32 0 2 0 C2.33 0.99 2.66 1.98 3 3 C6.60992379 2.34414811 6.60992379 2.34414811 10 1 C10.33 1.99 10.66 2.98 11 4 C9.375 5.5625 9.375 5.5625 7 7 C3.75 6.6875 3.75 6.6875 1 6 C0.67 4.02 0.34 2.04 0 0 Z " fill="#DBDBDB" transform="translate(21,8)"/>
<path d="M0 0 C0.66 0.33 1.32 0.66 2 1 C2 1.99 2 2.98 2 4 C-0.59688473 6.59688473 -2.10659265 7.92058601 -5.8125 8.25 C-6.534375 8.1675 -7.25625 8.085 -8 8 C-6.68 7.34 -5.36 6.68 -4 6 C-5.32 5.34 -6.64 4.68 -8 4 C-6.865625 3.525625 -5.73125 3.05125 -4.5625 2.5625 C-1.24259834 1.36377917 -1.24259834 1.36377917 0 0 Z " fill="#D4D4D4" transform="translate(60,52)"/>
<path d="M0 0 C2.66666667 0 5.33333333 0 8 0 C8 1.65 8 3.3 8 5 C5.36 5 2.72 5 0 5 C0 3.35 0 1.7 0 0 Z " fill="#BFBFBF" transform="translate(14,38)"/>
<path d="M0 0 C1.5 1.375 1.5 1.375 3 3 C3 3.66 3 4.32 3 5 C3.66 5.33 4.32 5.66 5 6 C2.03 6 -0.94 6 -4 6 C-3.34 5.67 -2.68 5.34 -2 5 C-1.6278958 3.67696283 -1.29369827 2.34262065 -1 1 C-0.67 0.67 -0.34 0.34 0 0 Z " fill="#FCFCFC" transform="translate(47,54)"/>
<path d="M0 0 C0.99 0.33 1.98 0.66 3 1 C3.95024979 4.69541586 3.95024979 7.30458414 3 11 C2.67 11 2.34 11 2 11 C1.7525 10.05125 1.505 9.1025 1.25 8.125 C0.3142923 4.91306809 0.3142923 4.91306809 -2.125 3.625 C-2.74375 3.41875 -3.3625 3.2125 -4 3 C-2.68 3 -1.36 3 0 3 C0 2.01 0 1.02 0 0 Z " fill="#D2D2D2" transform="translate(43,2)"/>
<path d="M0 0 C0.99 0.33 1.98 0.66 3 1 C3.94921875 3.28515625 3.94921875 3.28515625 4.6875 6.0625 C4.93886719 6.98160156 5.19023438 7.90070312 5.44921875 8.84765625 C5.63097656 9.55792969 5.81273437 10.26820312 6 11 C5.01 10.67 4.02 10.34 3 10 C1.25327015 6.5065403 0 3.93154432 0 0 Z " fill="#E4E4E4" transform="translate(46,3)"/>
<path d="M0 0 C0.33 0 0.66 0 1 0 C0.938125 0.78375 0.87625 1.5675 0.8125 2.375 C0.874375 3.24125 0.93625 4.1075 1 5 C1.99 5.66 2.98 6.32 4 7 C0.37 7.66 -3.26 8.32 -7 9 C-6.01 8.01 -5.02 7.02 -4 6 C-3.01 6 -2.02 6 -1 6 C-0.67 4.02 -0.34 2.04 0 0 Z " fill="#D1D1D1" transform="translate(8,41)"/>
<path d="M0 0 C0.33 0.99 0.66 1.98 1 3 C1.66 3.33 2.32 3.66 3 4 C-0.32561865 5.76062164 -1.59173995 6.10784228 -5.3125 5.125 C-6.199375 4.75375 -7.08625 4.3825 -8 4 C-6 3 -6 3 -3.4375 2.5625 C-2.2309375 2.2840625 -2.2309375 2.2840625 -1 2 C-0.67 1.34 -0.34 0.68 0 0 Z " fill="#D2D2D2" transform="translate(89,12)"/>
<path d="M0 0 C0.99 0.33 1.98 0.66 3 1 C3 2.32 3 3.64 3 5 C1.68 5 0.36 5 -1 5 C-0.67 3.35 -0.34 1.7 0 0 Z " fill="#B4B4B4" transform="translate(73,38)"/>
<path d="M0 0 C0.598125 0.350625 1.19625 0.70125 1.8125 1.0625 C1.4825 3.3725 1.1525 5.6825 0.8125 8.0625 C0.4825 8.0625 0.1525 8.0625 -0.1875 8.0625 C-0.27 7.11375 -0.3525 6.165 -0.4375 5.1875 C-0.83824923 1.95788209 -0.83824923 1.95788209 -3.25 0.6875 C-3.889375 0.48125 -4.52875 0.275 -5.1875 0.0625 C-2.1875 -0.9375 -2.1875 -0.9375 0 0 Z " fill="#B4B4B4" transform="translate(75.1875,20.9375)"/>
<path d="M0 0 C0.33 0.66 0.66 1.32 1 2 C0.67 2.66 0.34 3.32 0 4 C-1.65 4 -3.3 4 -5 4 C-5 3.01 -5 2.02 -5 1 C-3.35 0.67 -1.7 0.34 0 0 Z " fill="#E9E9E9" transform="translate(43,56)"/>
<path d="M0 0 C1.32 0.33 2.64 0.66 4 1 C4 2.32 4 3.64 4 5 C2.68 5 1.36 5 0 5 C0 3.35 0 1.7 0 0 Z " fill="#ACACAC" transform="translate(55,38)"/>
</svg>
