<?xml version="1.0" encoding="UTF-8"?>
<svg version="1.1" xmlns="http://www.w3.org/2000/svg" width="54" height="59">
<path d="M0 0 C17.82 0 35.64 0 54 0 C54 19.47 54 38.94 54 59 C36.18 59 18.36 59 0 59 C0 39.53 0 20.06 0 0 Z " fill="#F9F9F9" transform="translate(0,0)"/>
<path d="M0 0 C17.82 0 35.64 0 54 0 C54 19.47 54 38.94 54 59 C36.18 59 18.36 59 0 59 C0 39.53 0 20.06 0 0 Z M1 1 C1 17.83 1 34.66 1 52 C5.7025 52.04125 10.405 52.0825 15.25 52.125 C17.46638184 52.15231201 17.46638184 52.15231201 19.72753906 52.18017578 C20.89510742 52.1851709 22.06267578 52.19016602 23.265625 52.1953125 C24.45961914 52.20578613 25.65361328 52.21625977 26.88378906 52.22705078 C31.07639302 51.92157274 33.06003447 50.93996553 36 48 C34.68 46.35 33.36 44.7 32 43 C33.98 42.505 33.98 42.505 36 42 C35.67 41.34 35.34 40.68 35 40 C34.34 40 33.68 40 33 40 C32.34 38.35 31.68 36.7 31 35 C32.98 35.33 34.96 35.66 37 36 C36.505 33.03 36.505 33.03 36 30 C38.62901288 31.52206009 40.84365964 32.84365964 43 35 C43 32.36 43 29.72 43 27 C42.67 27.66 42.34 28.32 42 29 C41.01 29 40.02 29 39 29 C39.66 28.01 40.32 27.02 41 26 C41.66 26 42.32 26 43 26 C42.938125 24.741875 42.87625 23.48375 42.8125 22.1875 C42.79172142 18.26034823 42.79172142 18.26034823 44.5 16.125 C44.995 15.75375 45.49 15.3825 46 15 C46.2284549 12.75637427 46.2284549 12.75637427 44 10.875 C43.34 10.25625 42.68 9.6375 42 9 C43.63412443 10.70840281 44.86906094 11.93453047 47 13 C47.495 14.485 47.495 14.485 48 16 C48.66 16.33 49.32 16.66 50 17 C47.94766315 19.2477975 46.99332739 20.0022242 44 21 C44.71563266 23.0162233 44.71563266 23.0162233 46 25 C48.02463255 25.65213292 48.02463255 25.65213292 50 26 C51.41441874 28.82883747 51.31900332 30.87376745 51 34 C49 35.625 49 35.625 47 37 C47 38.32 47 39.64 47 41 C46.01 41 45.02 41 44 41 C42.80161791 43.32854463 42.80161791 43.32854463 42 46 C42.66 46.99 43.32 47.98 44 49 C43.01 48.01 42.02 47.02 41 46 C39.68 46.66 38.36 47.32 37 48 C38.72226496 51.24849977 38.72226496 51.24849977 42 52 C45.63 52 49.26 52 53 52 C53 35.17 53 18.34 53 1 C43.1 1 33.2 1 23 1 C23.66 1.99 24.32 2.98 25 4 C22.525 3.505 22.525 3.505 20 3 C19.731875 3.78375 19.46375 4.5675 19.1875 5.375 C18 8 18 8 15 10 C15.54855348 14.571279 16.41744803 18.67435795 18 23 C17.38125 22.505 16.7625 22.01 16.125 21.5 C14.16119096 19.80777227 14.16119096 19.80777227 12 20 C11.67 19.34 11.34 18.68 11 18 C11 20.31 11 22.62 11 25 C11.99 24.67 12.98 24.34 14 24 C14.33 25.65 14.66 27.3 15 29 C14.01 29 13.02 29 12 29 C11.67 28.34 11.34 27.68 11 27 C10.67 27.99 10.34 28.98 10 30 C9.01 29.01 8.02 28.02 7 27 C6.01 27.33 5.02 27.66 4 28 C4 29.65 4 31.3 4 33 C4.99 33 5.98 33 7 33 C7.33 35.31 7.66 37.62 8 40 C7.67 40 7.34 40 7 40 C7 39.01 7 38.02 7 37 C6.319375 36.62875 5.63875 36.2575 4.9375 35.875 C3 34 3 34 2.95703125 31.80859375 C3.22596635 29.5172667 3.56314568 27.26499469 4 25 C5.32 25 6.64 25 8 25 C8.66 23.68 9.32 22.36 10 21 C9.195625 20.525625 8.39125 20.05125 7.5625 19.5625 C5 18 5 18 4 17 C4.99 16.34 5.98 15.68 7 15 C7 14.01 7 13.02 7 12 C7.99 11.67 8.98 11.34 10 11 C10.33 10.34 10.66 9.68 11 9 C11 9.99 11 10.98 11 12 C11.66 12 12.32 12 13 12 C12.67 10.02 12.34 8.04 12 6 C12.804375 5.87625 13.60875 5.7525 14.4375 5.625 C15.283125 5.41875 16.12875 5.2125 17 5 C17.33 4.34 17.66 3.68 18 3 C18.66 2.34 19.32 1.68 20 1 C13.73 1 7.46 1 1 1 Z " fill="#A2A2A2" transform="translate(0,0)"/>
<path d="M0 0 C6.27 0 12.54 0 19 0 C18.01 0.99 17.02 1.98 16 3 C15.67 3.66 15.34 4.32 15 5 C13.68 5 12.36 5 11 5 C11.33 6.98 11.66 8.96 12 11 C11.34 11 10.68 11 10 11 C10 10.01 10 9.02 10 8 C9.01 9.485 9.01 9.485 8 11 C7.01 11.495 7.01 11.495 6 12 C5.67 12.99 5.34 13.98 5 15 C4.01 15.495 4.01 15.495 3 16 C3.61875 16.45375 4.2375 16.9075 4.875 17.375 C7 19 7 19 9 21 C7.6875 23 7.6875 23 6 25 C5.01 25 4.02 25 3 25 C2.67 27.64 2.34 30.28 2 33 C2.99 33.61875 2.99 33.61875 4 34.25 C4.99 35.11625 4.99 35.11625 6 36 C6 37.32 6 38.64 6 40 C6.79953138 36.71303767 7.09658936 35.28976808 6 32 C5.01 32 4.02 32 3 32 C3 30.35 3 28.7 3 27 C3.99 26.67 4.98 26.34 6 26 C7.82421875 27.21484375 7.82421875 27.21484375 9.6875 28.9375 C10.62142578 29.78634766 10.62142578 29.78634766 11.57421875 30.65234375 C12.04472656 31.09707031 12.51523438 31.54179688 13 32 C13 31.34 13 30.68 13 30 C14.32 29.67 15.64 29.34 17 29 C16.67 31.31 16.34 33.62 16 36 C16.66 35.34 17.32 34.68 18 34 C19.32 34 20.64 34 22 34 C20.9024777 36.99324263 20.32317108 37.84610901 17.375 39.25 C16.59125 39.4975 15.8075 39.745 15 40 C15.33 40.99 15.66 41.98 16 43 C16.66 43.33 17.32 43.66 18 44 C18 43.01 18 42.02 18 41 C20.31 41 22.62 41 25 41 C23.125 42.0625 23.125 42.0625 21 43 C20.34 42.67 19.68 42.34 19 42 C19.33 42.99 19.66 43.98 20 45 C20 45.99 20 46.98 20 48 C21.65 48.66 23.3 49.32 25 50 C25 50.33 25 50.66 25 51 C16.75 51 8.5 51 0 51 C0 34.17 0 17.34 0 0 Z " fill="#EFEEEF" transform="translate(1,1)"/>
<path d="M0 0 C0.33 0.99 0.66 1.98 1 3 C2.98045559 3.66179847 2.98045559 3.66179847 5 4 C6 5 6 5 6.375 6.9375 C6.87541174 9.37585941 6.87541174 9.37585941 10 11 C8.1875 13 8.1875 13 6 15 C5.01 15 4.02 15 3 15 C3.99 16.32 4.98 17.64 6 19 C7.32 18.67 8.64 18.34 10 18 C10.2493357 19.60115576 10.47378648 21.20620159 10.6875 22.8125 C10.81511719 23.70582031 10.94273438 24.59914063 11.07421875 25.51953125 C11 28 11 28 9.64453125 29.82421875 C8 31 8 31 6 31 C6.33 32.65 6.66 34.3 7 36 C5.68 35.67 4.36 35.34 3 35 C2.505 37.475 2.505 37.475 2 40 C3.32 40.99 4.64 41.98 6 43 C4.515 43.495 4.515 43.495 3 44 C2.01 43.01 1.02 42.02 0 41 C-1.485 41.495 -1.485 41.495 -3 42 C-2.67 42.66 -2.34 43.32 -2 44 C-1.01 44 -0.02 44 1 44 C1 44.66 1 45.32 1 46 C-2.96 46 -6.92 46 -11 46 C-11.33 45.34 -11.66 44.68 -12 44 C-10.02 43.34 -8.04 42.68 -6 42 C-6.99 40.68 -7.98 39.36 -9 38 C-10.485 38.495 -10.485 38.495 -12 39 C-12.495 37.515 -12.495 37.515 -13 36 C-9.535 35.505 -9.535 35.505 -6 35 C-6.66 34.38125 -7.32 33.7625 -8 33.125 C-10 31 -10 31 -10 29 C-8.02 29.33 -6.04 29.66 -4 30 C-4.33 28.02 -4.66 26.04 -5 24 C-2.525 24.99 -2.525 24.99 0 26 C0.33 25.67 0.66 25.34 1 25 C1 24.34 1 23.68 1 23 C0.01 23 -0.98 23 -2 23 C-2 21.35 -2 19.7 -2 18 C-1.01 18 -0.02 18 1 18 C1 15.69 1 13.38 1 11 C1.99 11 2.98 11 4 11 C4.33 9.68 4.66 8.36 5 7 C4.360625 6.773125 3.72125 6.54625 3.0625 6.3125 C1 5 1 5 0.25 2.375 C0.1675 1.59125 0.085 0.8075 0 0 Z " fill="#DEDEDE" transform="translate(41,6)"/>
<path d="M0 0 C17.82 0 35.64 0 54 0 C54 1.98 54 3.96 54 6 C36.18 6 18.36 6 0 6 C0 4.02 0 2.04 0 0 Z " fill="#E7E7E7" transform="translate(0,53)"/>
<path d="M0 0 C1.74991334 -0.02715383 3.49994945 -0.04646551 5.25 -0.0625 C6.71179688 -0.07990234 6.71179688 -0.07990234 8.203125 -0.09765625 C10.65758678 -0.01195577 12.66168914 0.29293934 15 1 C14.690625 1.928125 14.690625 1.928125 14.375 2.875 C14.25125 3.57625 14.1275 4.2775 14 5 C14.66 5.66 15.32 6.32 16 7 C16 7.99 16 8.98 16 10 C16.66 10 17.32 10 18 10 C18 10.66 18 11.32 18 12 C18.66 12 19.32 12 20 12 C19.566875 12.8353125 19.566875 12.8353125 19.125 13.6875 C17.93364233 16.02189686 17.93364233 16.02189686 17.0625 18.6875 C16.711875 19.450625 16.36125 20.21375 16 21 C15.01 21.33 14.02 21.66 13 22 C13.33 20.02 13.66 18.04 14 16 C12.02 16.33 10.04 16.66 8 17 C8.66 15.35 9.32 13.7 10 12 C8.8509288 10.7018576 8.8509288 10.7018576 6 10 C5.67 10.99 5.34 11.98 5 13 C2.9375 13.6875 2.9375 13.6875 1 14 C0.67 13.01 0.34 12.02 0 11 C-0.66 11 -1.32 11 -2 11 C-1.34 12.98 -0.68 14.96 0 17 C-2.67857172 16.63803085 -4.60980914 16.26012724 -6.875 14.75 C-8 13 -8 13 -7.875 10.5 C-6.94713026 7.84894359 -6.02991341 6.86075396 -4 5 C-3.67 4.01 -3.34 3.02 -3 2 C-1.35 2.33 0.3 2.66 2 3 C1.34 2.01 0.68 1.02 0 0 Z " fill="#E7E7E7" transform="translate(23,1)"/>
<path d="M0 0 C4.23090117 0.30220723 6.25186236 3.02285089 9 6 C9 5.34 9 4.68 9 4 C10.32 3.67 11.64 3.34 13 3 C12.67 5.31 12.34 7.62 12 10 C12.66 9.34 13.32 8.68 14 8 C15.32 8 16.64 8 18 8 C16.9024777 10.99324263 16.32317108 11.84610901 13.375 13.25 C12.59125 13.4975 11.8075 13.745 11 14 C11.33 14.99 11.66 15.98 12 17 C12.66 17.33 13.32 17.66 14 18 C14 17.01 14 16.02 14 15 C16.31 15 18.62 15 21 15 C19.125 16.0625 19.125 16.0625 17 17 C16.34 16.67 15.68 16.34 15 16 C15.33 16.99 15.66 17.98 16 19 C16 19.99 16 20.98 16 22 C17.65 22.66 19.3 23.32 21 24 C21 24.33 21 24.66 21 25 C12.75 25 4.5 25 -4 25 C-2.68 24.34 -1.36 23.68 0 23 C2.09782787 20.90217213 2.6509396 19.6200793 3.625 16.875 C3.88539062 16.15054688 4.14578125 15.42609375 4.4140625 14.6796875 C4.60742188 14.12539063 4.80078125 13.57109375 5 13 C4.34 13 3.68 13 3 13 C2.67 10.69 2.34 8.38 2 6 C1.01 6 0.02 6 -1 6 C-1.042721 4.33388095 -1.04063832 2.66617115 -1 1 C-0.67 0.67 -0.34 0.34 0 0 Z " fill="#E8E8E8" transform="translate(5,27)"/>
<path d="M0 0 C2.31 0.33 4.62 0.66 7 1 C6.79375 1.61875 6.5875 2.2375 6.375 2.875 C6.25125 3.57625 6.1275 4.2775 6 5 C6.66 5.66 7.32 6.32 8 7 C8 7.99 8 8.98 8 10 C8.66 10 9.32 10 10 10 C10 10.66 10 11.32 10 12 C10.66 12 11.32 12 12 12 C11.566875 12.8353125 11.566875 12.8353125 11.125 13.6875 C9.93364233 16.02189686 9.93364233 16.02189686 9.0625 18.6875 C8.711875 19.450625 8.36125 20.21375 8 21 C7.01 21.33 6.02 21.66 5 22 C5.33 20.02 5.66 18.04 6 16 C4.02 16.33 2.04 16.66 0 17 C0.66 15.35 1.32 13.7 2 12 C0.8509288 10.7018576 0.8509288 10.7018576 -2 10 C-2.33 10.99 -2.66 11.98 -3 13 C-3.66 13 -4.32 13 -5 13 C-6.125 8.25 -6.125 8.25 -5 6 C-2.69 6.66 -0.38 7.32 2 8 C2 7.01 2 6.02 2 5 C2.66 5 3.32 5 4 5 C2.68 3.35 1.36 1.7 0 0 Z " fill="#DEDEDE" transform="translate(31,1)"/>
<path d="M0 0 C1.65 1.32 3.3 2.64 5 4 C5 3.01 5 2.02 5 1 C7.31 1 9.62 1 12 1 C10.125 2.0625 10.125 2.0625 8 3 C7.34 2.67 6.68 2.34 6 2 C6.33 2.99 6.66 3.98 7 5 C7 5.99 7 6.98 7 8 C8.65 8.66 10.3 9.32 12 10 C12 10.33 12 10.66 12 11 C3.75 11 -4.5 11 -13 11 C-11.68 10.34 -10.36 9.68 -9 9 C-8.13375 8.46375 -7.2675 7.9275 -6.375 7.375 C-4 6 -4 6 -2 6 C-1.855625 5.195625 -1.71125 4.39125 -1.5625 3.5625 C-1 1 -1 1 0 0 Z " fill="#D7D7D7" transform="translate(14,41)"/>
<path d="M0 0 C0 0.99 0 1.98 0 3 C-1.65 2.67 -3.3 2.34 -5 2 C-5.1546875 2.928125 -5.1546875 2.928125 -5.3125 3.875 C-6 6 -6 6 -9 8 C-8.39174965 12.34464536 -7.73832608 16.67551867 -7 21 C-13 18 -13 18 -15 14 C-15.66 13.67 -16.32 13.34 -17 13 C-16.814375 12.38125 -16.62875 11.7625 -16.4375 11.125 C-15.76313824 8.95839822 -15.76313824 8.95839822 -17 7 C-16.01 7 -15.02 7 -14 7 C-14 7.99 -14 8.98 -14 10 C-13.34 10 -12.68 10 -12 10 C-12.33 8.02 -12.66 6.04 -13 4 C-12.360625 3.71125 -11.72125 3.4225 -11.0625 3.125 C-8.84793921 2.17176549 -8.84793921 2.17176549 -8 0 C-4.71023192 -1.09658936 -3.28696233 -0.79953138 0 0 Z " fill="#E9E9E9" transform="translate(25,2)"/>
<path d="M0 0 C1.98 0 3.96 0 6 0 C5.01 0.495 5.01 0.495 4 1 C4.66 2.65 5.32 4.3 6 6 C6.99 5.67 7.98 5.34 9 5 C9.99 6.98 10.98 8.96 12 11 C10.00458132 11.68025637 8.00382009 12.34490497 6 13 C5.319375 13.2475 4.63875 13.495 3.9375 13.75 C1.13807026 14.11121674 -0.53269652 13.29858078 -3 12 C-5 9 -5 9 -4.625 6.8125 C-4.41875 6.214375 -4.2125 5.61625 -4 5 C-2.02 5 -0.04 5 2 5 C2 4.34 2 3.68 2 3 C1.34 2.67 0.68 2.34 0 2 C0 1.34 0 0.68 0 0 Z " fill="#E3E3E3" transform="translate(24,38)"/>
<path d="M0 0 C0.33 0 0.66 0 1 0 C1 4.29 1 8.58 1 13 C-10.85714286 13.42857143 -10.85714286 13.42857143 -15 10 C-14.34 9.01 -13.68 8.02 -13 7 C-11.68 7.66 -10.36 8.32 -9 9 C-9 8.67 -9 8.34 -9 8 C-9 4 -9 4 -8 2 C-6.68 2.33 -5.36 2.66 -4 3 C-4 4.32 -4 5.64 -4 7 C-3.01 6.67 -2.02 6.34 -1 6 C-1.66 4.68 -2.32 3.36 -3 2 C-2.01 2 -1.02 2 0 2 C0 1.34 0 0.68 0 0 Z " fill="#F4F4F4" transform="translate(52,39)"/>
<path d="M0 0 C0.433125 0.94875 0.86625 1.8975 1.3125 2.875 C2.79302201 6.20041937 2.79302201 6.20041937 6 8 C5.01 8.33 4.02 8.66 3 9 C2.01 8.01 1.02 7.02 0 6 C-0.99 6.33 -1.98 6.66 -3 7 C-2.67 7.66 -2.34 8.32 -2 9 C-1.01 9 -0.02 9 1 9 C1 9.66 1 10.32 1 11 C-2.96 11 -6.92 11 -11 11 C-11.33 10.34 -11.66 9.68 -12 9 C-10.02 8.34 -8.04 7.68 -6 7 C-6.99 5.68 -7.98 4.36 -9 3 C-9.99 3.33 -10.98 3.66 -12 4 C-12.33 3.01 -12.66 2.02 -13 1 C-8.62426048 0.40667939 -4.42471556 -0.13827236 0 0 Z " fill="#DADADA" transform="translate(41,41)"/>
<path d="M0 0 C3.375 -0.1875 3.375 -0.1875 7 0 C7.66 0.99 8.32 1.98 9 3 C9.66 2.67 10.32 2.34 11 2 C10.67 2.99 10.34 3.98 10 5 C9.01 5 8.02 5 7 5 C8.24976756 8.65316671 8.67098753 9.78065836 12 12 C11.67 13.32 11.34 14.64 11 16 C10.01 16 9.02 16 8 16 C8 16.99 8 17.98 8 19 C7.01 19 6.02 19 5 19 C6.20381448 16.50638429 7.45428722 14.31856917 9 12 C8.34 12 7.68 12 7 12 C7 11.34 7 10.68 7 10 C6.34 10 5.68 10 5 10 C2 4.25 2 4.25 2 2 C1.34 1.34 0.68 0.68 0 0 Z " fill="#EBEBEB" transform="translate(34,1)"/>
<path d="M0 0 C-0.33 2.31 -0.66 4.62 -1 7 C-0.34 6.34 0.32 5.68 1 5 C2.32 5 3.64 5 5 5 C4.375 6.875 4.375 6.875 3 9 C-0.63343017 10.62344752 -2.17211056 11.27596315 -6 10 C-5.71872579 8.51882199 -5.42466268 7.04006751 -5.125 5.5625 C-4.96257813 4.73878906 -4.80015625 3.91507813 -4.6328125 3.06640625 C-4.42398437 2.38449219 -4.21515625 1.70257812 -4 1 C-2 0 -2 0 0 0 Z " fill="#E2E2E2" transform="translate(18,30)"/>
<path d="M0 0 C0 0.99 0 1.98 0 3 C-1.65 2.67 -3.3 2.34 -5 2 C-5.0825 2.5775 -5.165 3.155 -5.25 3.75 C-6.21797787 6.6539336 -7.68694284 8.03740604 -10 10 C-10.66 10 -11.32 10 -12 10 C-12.33 8.02 -12.66 6.04 -13 4 C-12.360625 3.71125 -11.72125 3.4225 -11.0625 3.125 C-8.84793921 2.17176549 -8.84793921 2.17176549 -8 0 C-4.71023192 -1.09658936 -3.28696233 -0.79953138 0 0 Z " fill="#D8D8D8" transform="translate(25,2)"/>
<path d="M0 0 C1.98 0.66 3.96 1.32 6 2 C4.86500606 5.29148243 4.00716624 5.9959869 0.875 7.75 C-0.07375 8.1625 -1.0225 8.575 -2 9 C-1.67 9.66 -1.34 10.32 -1 11 C-1.99 11.33 -2.98 11.66 -4 12 C-4.75 9.75 -4.75 9.75 -5 7 C-3.125 4.875 -3.125 4.875 -1 3 C-0.67 2.01 -0.34 1.02 0 0 Z " fill="#EAEAEA" transform="translate(20,3)"/>
<path d="M0 0 C2.09065618 3.39731629 2.42098999 6.04269405 2 10 C0.625 11.875 0.625 11.875 -1 13 C-1.66 13 -2.32 13 -3 13 C-2.67 14.65 -2.34 16.3 -2 18 C-3.32 17.67 -4.64 17.34 -6 17 C-5.34 14.03 -4.68 11.06 -4 8 C-3.01 8.33 -2.02 8.66 -1 9 C-0.83312552 6.58354218 -0.83312552 6.58354218 -1 4 C-1.66 3.34 -2.32 2.68 -3 2 C-2.01 1.34 -1.02 0.68 0 0 Z " fill="#D6D6D6" transform="translate(50,24)"/>
<path d="M0 0 C5.01113235 1.4317521 6.94469549 3.98445693 10 8 C7.35963647 8.97791242 6.12733368 9.03638105 3.375 8.25 C1 7 1 7 -1 4 C-0.625 1.8125 -0.625 1.8125 0 0 Z " fill="#F5F5F5" transform="translate(20,43)"/>
<path d="M0 0 C0.66 0 1.32 0 2 0 C2.33 1.65 2.66 3.3 3 5 C3.66 5 4.32 5 5 5 C5.66 6.65 6.32 8.3 7 10 C6.236875 9.835 5.47375 9.67 4.6875 9.5 C1.69630259 8.94349816 -0.23659881 8.61829941 -3 10 C-3.66 8.35 -4.32 6.7 -5 5 C-2.03 5.495 -2.03 5.495 1 6 C0.67 4.02 0.34 2.04 0 0 Z " fill="#D9D9D9" transform="translate(36,30)"/>
<path d="M0 0 C2.64 0.66 5.28 1.32 8 2 C8.33 3.98 8.66 5.96 9 8 C8.34 8 7.68 8 7 8 C7 7.01 7 6.02 7 5 C6.01 6.485 6.01 6.485 5 8 C1.59575156 6.86525052 0.78346291 6.03188696 -1 3 C-0.67 2.01 -0.34 1.02 0 0 Z " fill="#F9F9F9" transform="translate(4,4)"/>
<path d="M0 0 C0.99 0 1.98 0 3 0 C2.34 2.97 1.68 5.94 1 9 C-1.31 9.33 -3.62 9.66 -6 10 C-6 9.01 -6 8.02 -6 7 C-5.01 7 -4.02 7 -3 7 C-3.33 6.34 -3.66 5.68 -4 5 C-2.1875 2.5 -2.1875 2.5 0 0 Z " fill="#F9F9F9" transform="translate(7,41)"/>
<path d="M0 0 C0.66 0.33 1.32 0.66 2 1 C1.67 2.32 1.34 3.64 1 5 C2.32 5.33 3.64 5.66 5 6 C5 6.66 5 7.32 5 8 C1.04 8 -2.92 8 -7 8 C-7.33 7.34 -7.66 6.68 -8 6 C-6.02 5.34 -4.04 4.68 -2 4 C-2 3.01 -2 2.02 -2 1 C-1.34 0.67 -0.68 0.34 0 0 Z " fill="#D4D4D4" transform="translate(37,44)"/>
<path d="M0 0 C1.65 1.32 3.3 2.64 5 4 C5 3.01 5 2.02 5 1 C7.31 1 9.62 1 12 1 C10.125 2.0625 10.125 2.0625 8 3 C7.34 2.67 6.68 2.34 6 2 C6.33 2.99 6.66 3.98 7 5 C4 7 4 7 0.8125 6.625 C-0.115625 6.41875 -1.04375 6.2125 -2 6 C-1.125 1.125 -1.125 1.125 0 0 Z " fill="#D4D4D4" transform="translate(14,41)"/>
<path d="M0 0 C0.33 0.99 0.66 1.98 1 3 C2.98045559 3.66179847 2.98045559 3.66179847 5 4 C6 5 6 5 6.375 6.9375 C6.87541174 9.37585941 6.87541174 9.37585941 10 11 C8.35 12.32 6.7 13.64 5 15 C4.67 14.34 4.34 13.68 4 13 C4.66 13 5.32 13 6 13 C6 12.34 6 11.68 6 11 C5.34 11 4.68 11 4 11 C4.33 9.68 4.66 8.36 5 7 C4.360625 6.773125 3.72125 6.54625 3.0625 6.3125 C1 5 1 5 0.25 2.375 C0.1675 1.59125 0.085 0.8075 0 0 Z " fill="#D1D1D1" transform="translate(41,6)"/>
<path d="M0 0 C4.29 0 8.58 0 13 0 C11.515 1.485 11.515 1.485 10 3 C9.67 3.66 9.34 4.32 9 5 C4.21519067 4.46835452 3.76888381 3.76888381 0 0 Z " fill="#F5F5F5" transform="translate(7,1)"/>
<path d="M0 0 C0.66 0.66 1.32 1.32 2 2 C1.625 4.625 1.625 4.625 1 7 C-0.32 7 -1.64 7 -3 7 C-3.66 5.68 -4.32 4.36 -5 3 C-3.35 2.01 -1.7 1.02 0 0 Z " fill="#F8F8F8" transform="translate(49,18)"/>
<path d="M0 0 C1.98 0.99 3.96 1.98 6 3 C4.515 5.475 4.515 5.475 3 8 C1.68 7.34 0.36 6.68 -1 6 C-0.67 4.02 -0.34 2.04 0 0 Z " fill="#F8F8F8" transform="translate(4,18)"/>
<path d="M0 0 C0.66 0.33 1.32 0.66 2 1 C2 2.65 2 4.3 2 6 C1.01 6 0.02 6 -1 6 C-1.66 6.66 -2.32 7.32 -3 8 C-3.66 6.35 -4.32 4.7 -5 3 C-2.625 1.4375 -2.625 1.4375 0 0 Z " fill="#DBDBDB" transform="translate(13,23)"/>
<path d="M0 0 C0.66 0 1.32 0 2 0 C2 2.97 2 5.94 2 9 C3.32 9 4.64 9 6 9 C6 9.66 6 10.32 6 11 C4.02 11 2.04 11 0 11 C0 7.37 0 3.74 0 0 Z " fill="#9F9F9F" transform="translate(24,20)"/>
<path d="M0 0 C0.99 0.33 1.98 0.66 3 1 C3 2.65 3 4.3 3 6 C0 6 0 6 -3 5 C-2.625 3.0625 -2.625 3.0625 -2 1 C-1.34 0.67 -0.68 0.34 0 0 Z " fill="#F8F8F8" transform="translate(47,27)"/>
<path d="M0 0 C2.7972908 2.06756277 3.02692273 3.14440371 3.6875 6.6875 C3.790625 7.780625 3.89375 8.87375 4 10 C2 9 -0 8 -2 7 C-1.67 6.34 -1.34 5.68 -1 5 C-1 4.01 -1 3.02 -1 2 C-0.67 1.34 -0.34 0.68 0 0 Z " fill="#D9D9D9" transform="translate(14,13)"/>
<path d="M0 0 C1.32 1.65 2.64 3.3 4 5 C2.1875 6.0625 2.1875 6.0625 0 7 C-0.99 6.67 -1.98 6.34 -3 6 C-2.625 3.5625 -2.625 3.5625 -2 1 C-1.34 0.67 -0.68 0.34 0 0 Z " fill="#F9F9F9" transform="translate(32,43)"/>
<path d="M0 0 C0.33 0 0.66 0 1 0 C1 4.29 1 8.58 1 13 C-0.32 12.34 -1.64 11.68 -3 11 C-2.34 10.34 -1.68 9.68 -1 9 C-1.26676204 7.01508358 -1.26676204 7.01508358 -2 5 C-2.33 4.01 -2.66 3.02 -3 2 C-2.01 2 -1.02 2 0 2 C0 1.34 0 0.68 0 0 Z " fill="#FAFAFA" transform="translate(52,39)"/>
<path d="M0 0 C3.3 0 6.6 0 10 0 C10 0.99 10 1.98 10 3 C6.7 3 3.4 3 0 3 C0 2.01 0 1.02 0 0 Z " fill="#BCBCBC" transform="translate(34,56)"/>
<path d="M0 0 C2.0625 0.4375 2.0625 0.4375 4 1 C4.33 2.32 4.66 3.64 5 5 C3.02 5.33 1.04 5.66 -1 6 C-1.042721 4.33388095 -1.04063832 2.66617115 -1 1 C-0.67 0.67 -0.34 0.34 0 0 Z " fill="#FAFAFA" transform="translate(5,27)"/>
<path d="M0 0 C0.33 0.66 0.66 1.32 1 2 C1.99 2 2.98 2 4 2 C3.814375 2.94875 3.62875 3.8975 3.4375 4.875 C2.71313368 7.89868793 2.71313368 7.89868793 4 10 C2.68 9.67 1.36 9.34 0 9 C0 6.03 0 3.06 0 0 Z " fill="#F1F1F1" transform="translate(1,39)"/>
<path d="M0 0 C0.99 0.33 1.98 0.66 3 1 C3 1.99 3 2.98 3 4 C2.34 4 1.68 4 1 4 C1.33 5.98 1.66 7.96 2 10 C1.01 10.33 0.02 10.66 -1 11 C-2.60080151 6.99799622 -1.29279692 3.95443764 0 0 Z " fill="#DEDEDE" transform="translate(44,24)"/>
<path d="M0 0 C0.33 0 0.66 0 1 0 C1.33 2.31 1.66 4.62 2 7 C0.35 7.33 -1.3 7.66 -3 8 C-2.45276317 4.62537285 -1.9451 2.91765 0 0 Z " fill="#ECECEC" transform="translate(5,8)"/>
<path d="M0 0 C0.99 0.33 1.98 0.66 3 1 C3 1.66 3 2.32 3 3 C2.34 3 1.68 3 1 3 C1.33 4.32 1.66 5.64 2 7 C-0.475 6.01 -0.475 6.01 -3 5 C-2.625 3.0625 -2.625 3.0625 -2 1 C-1.34 0.67 -0.68 0.34 0 0 Z " fill="#FAFAFA" transform="translate(32,3)"/>
<path d="M0 0 C2.97 0.495 2.97 0.495 6 1 C4.515 3.475 4.515 3.475 3 6 C1.68 5.67 0.36 5.34 -1 5 C-0.67 3.35 -0.34 1.7 0 0 Z " fill="#F5F5F5" transform="translate(29,10)"/>
<path d="M0 0 C3.16115776 1.36983503 3.9927092 1.9890638 6 5 C5.01 5.33 4.02 5.66 3 6 C0.3125 4.5625 0.3125 4.5625 -2 3 C-1.34 2.01 -0.68 1.02 0 0 Z " fill="#FAFAFA" transform="translate(39,46)"/>
<path d="M0 0 C1.32 0.66 2.64 1.32 4 2 C3.67 2.99 3.34 3.98 3 5 C0.69 5 -1.62 5 -4 5 C-2.68 3.35 -1.36 1.7 0 0 Z " fill="#FAFAFA" transform="translate(13,46)"/>
<path d="M0 0 C5.75 1.875 5.75 1.875 8 3 C7.67 3.99 7.34 4.98 7 6 C6.67 5.34 6.34 4.68 6 4 C5.401875 4.226875 4.80375 4.45375 4.1875 4.6875 C3.465625 4.790625 2.74375 4.89375 2 5 C0.25 3.5625 0.25 3.5625 -1 2 C-0.67 1.34 -0.34 0.68 0 0 Z " fill="#EDEDED" transform="translate(35,37)"/>
<path d="M0 0 C0.33 0 0.66 0 1 0 C1 4.95 1 9.9 1 15 C0.01 15 -0.98 15 -2 15 C-1.67 14.67 -1.34 14.34 -1 14 C-0.75266863 9.85723125 -0.75266863 9.85723125 -2 6 C-1.39421747 3.98072489 -0.73080266 1.97746603 0 0 Z " fill="#FBFBFB" transform="translate(52,20)"/>
<path d="M0 0 C1.98 0.66 3.96 1.32 6 2 C5.34 3.32 4.68 4.64 4 6 C2 6 2 6 0.375 4.5 C-0.07875 4.005 -0.5325 3.51 -1 3 C-0.67 2.01 -0.34 1.02 0 0 Z " fill="#FAFAFA" transform="translate(20,3)"/>
<path d="M0 0 C0.33 0 0.66 0 1 0 C1 2.64 1 5.28 1 8 C0.01 8 -0.98 8 -2 8 C-2.66 6.68 -3.32 5.36 -4 4 C-2.68 3.34 -1.36 2.68 0 2 C0 1.34 0 0.68 0 0 Z " fill="#F6F6F6" transform="translate(42,18)"/>
<path d="M0 0 C0.33 0.66 0.66 1.32 1 2 C1.99 2.33 2.98 2.66 4 3 C4 3.33 4 3.66 4 4 C1.36 4 -1.28 4 -4 4 C-4 3.01 -4 2.02 -4 1 C-2.68 0.67 -1.36 0.34 0 0 Z " fill="#F5F5F5" transform="translate(32,38)"/>
<path d="M0 0 C2.99324263 1.0975223 3.84610901 1.67682892 5.25 4.625 C5.4975 5.40875 5.745 6.1925 6 7 C4.35 6.67 2.7 6.34 1 6 C0 3 0 3 0 0 Z " fill="#DADADA" transform="translate(17,11)"/>
<path d="M0 0 C0.99 0.99 1.98 1.98 3 3 C2.73904456 5.67479327 2.1995243 7.60095141 1 10 C0.01 9.67 -0.98 9.34 -2 9 C-1.34 6.03 -0.68 3.06 0 0 Z " fill="#C9C9C9" transform="translate(46,32)"/>
<path d="M0 0 C2.625 0.9375 2.625 0.9375 5 2 C4.01 2.495 4.01 2.495 3 3 C2.67 3.99 2.34 4.98 2 6 C2 5.34 2 4.68 2 4 C0.68 4.33 -0.64 4.66 -2 5 C-2 3.68 -2 2.36 -2 1 C-1.34 0.67 -0.68 0.34 0 0 Z " fill="#E8E8E8" transform="translate(10,31)"/>
<path d="M0 0 C2.31 0.33 4.62 0.66 7 1 C6.34 2.98 5.68 4.96 5 7 C4.34 6.34 3.68 5.68 3 5 C3 4.34 3 3.68 3 3 C1.54166642 1.37485532 1.54166642 1.37485532 0 0 Z " fill="#CFCFCF" transform="translate(31,1)"/>
<path d="M0 0 C0.99 0.33 1.98 0.66 3 1 C2.67 2.65 2.34 4.3 2 6 C0.68 5.34 -0.64 4.68 -2 4 C-1.34 2.68 -0.68 1.36 0 0 Z " fill="#EAEAEA" transform="translate(17,39)"/>
<path d="M0 0 C1.32 0 2.64 0 4 0 C2.25 3.875 2.25 3.875 0 5 C-0.66 4.34 -1.32 3.68 -2 3 C-1.34 2.01 -0.68 1.02 0 0 Z " fill="#D8D8D8" transform="translate(19,35)"/>
<path d="M0 0 C1.42944945 2.35438733 2.08661261 3.48032433 1.625 6.25 C1.41875 6.8275 1.2125 7.405 1 8 C1.66 8.33 2.32 8.66 3 9 C1.68 9.33 0.36 9.66 -1 10 C-1.02689216 8.52093108 -1.04634621 7.04172517 -1.0625 5.5625 C-1.07410156 4.73878906 -1.08570313 3.91507813 -1.09765625 3.06640625 C-1 1 -1 1 0 0 Z " fill="#C9C9C9" transform="translate(7,32)"/>
<path d="M0 0 C1.4783226 2.95664519 1.06032783 5.74229737 1 9 C0.01 9.33 -0.98 9.66 -2 10 C-1.85950482 8.52031676 -1.71245174 7.04125484 -1.5625 5.5625 C-1.48128906 4.73878906 -1.40007812 3.91507813 -1.31640625 3.06640625 C-1 1 -1 1 0 0 Z " fill="#E5E5E5" transform="translate(3,18)"/>
<path d="M0 0 C0 1.32 0 2.64 0 4 C-0.99 3.67 -1.98 3.34 -3 3 C-3 2.34 -3 1.68 -3 1 C-3.99 1.33 -4.98 1.66 -6 2 C-6.33 1.34 -6.66 0.68 -7 0 C-3.98968256 -0.93423645 -3.13349732 -1.04449911 0 0 Z " fill="#F1F1F1" transform="translate(26,11)"/>
<path d="M0 0 C-0.375 2.9375 -0.375 2.9375 -1 6 C-1.99 6.495 -1.99 6.495 -3 7 C-3.33 5.02 -3.66 3.04 -4 1 C-2 0 -2 0 0 0 Z " fill="#D9D9D9" transform="translate(18,30)"/>
</svg>
