<svg id="Hero_bg" xmlns="http://www.w3.org/2000/svg" xmlns:xlink="http://www.w3.org/1999/xlink" width="1920" height="700" viewBox="0 0 1920 700">
  <defs>
    <style>
      .cls-1 {
        fill: #f6f6f6;
      }

      .cls-2 {
        fill: #ccccce;
      }

      .cls-2, .cls-3, .cls-4, .cls-5, .cls-7 {
        fill-rule: evenodd;
      }

      .cls-3, .cls-4 {
        fill: #34c3ff;
      }

      .cls-3 {
        filter: url(#filter);
      }

      .cls-4 {
        filter: url(#filter-2);
      }

      .cls-5, .cls-7 {
        fill: #fe3e57;
      }

      .cls-5 {
        filter: url(#filter-3);
      }

      .cls-6 {
        fill: url(#linear-gradient);
        filter: url(#filter-4);
      }

      .cls-7 {
        filter: url(#filter-5);
      }
    </style>
    <filter id="filter" x="144" y="251" width="67" height="63" filterUnits="userSpaceOnUse">
      <feOffset result="offset" dy="10" in="SourceAlpha"/>
      <feGaussianBlur result="blur" stdDeviation="3.162"/>
      <feFlood result="flood" flood-color="#4dcaff" flood-opacity="0.3"/>
      <feComposite result="composite" operator="in" in2="blur"/>
      <feBlend result="blend" in="SourceGraphic"/>
    </filter>
    <filter id="filter-2" x="744" y="588" width="65" height="66" filterUnits="userSpaceOnUse">
      <feOffset result="offset" dy="10" in="SourceAlpha"/>
      <feGaussianBlur result="blur" stdDeviation="3.162"/>
      <feFlood result="flood" flood-color="#4dcaff" flood-opacity="0.3"/>
      <feComposite result="composite" operator="in" in2="blur"/>
      <feBlend result="blend" in="SourceGraphic"/>
    </filter>
    <filter id="filter-3" x="112" y="651" width="88" height="102" filterUnits="userSpaceOnUse">
      <feOffset result="offset" dy="5" in="SourceAlpha"/>
      <feGaussianBlur result="blur" stdDeviation="2.236"/>
      <feFlood result="flood" flood-color="#fe3e57" flood-opacity="0.4"/>
      <feComposite result="composite" operator="in" in2="blur"/>
      <feBlend result="blend" in="SourceGraphic"/>
    </filter>
    <linearGradient id="linear-gradient" x1="1496" y1="172" x2="1496" y2="72" gradientUnits="userSpaceOnUse">
      <stop offset="0" stop-color="#ffc35b"/>
      <stop offset="1" stop-color="#ffdc9e"/>
    </linearGradient>
    <filter id="filter-4" x="1427" y="68" width="139" height="139" filterUnits="userSpaceOnUse">
      <feOffset result="offset" dy="15" in="SourceAlpha"/>
      <feGaussianBlur result="blur" stdDeviation="4.472"/>
      <feFlood result="flood" flood-color="#ffc55f" flood-opacity="0.3"/>
      <feComposite result="composite" operator="in" in2="blur"/>
      <feBlend result="blend" in="SourceGraphic"/>
    </filter>
    <filter id="filter-5" x="1739" y="641" width="46" height="46" filterUnits="userSpaceOnUse">
      <feOffset result="offset" dy="5" in="SourceAlpha"/>
      <feGaussianBlur result="blur" stdDeviation="3.162"/>
      <feFlood result="flood" flood-color="#fe3e57" flood-opacity="0.3"/>
      <feComposite result="composite" operator="in" in2="blur"/>
      <feBlend result="blend" in="SourceGraphic"/>
    </filter>
  </defs>
  <g id="Main_Bg" data-name="Main Bg">
    <rect id="bg" class="cls-1" width="1920" height="700"/>
  </g>
  <g id="abstract_shape" data-name="abstract shape">
    <path class="cls-2" d="M1613.06,435.155a2,2,0,1,0-2.06-2A2.028,2.028,0,0,0,1613.06,435.155Zm0,6.988a2,2,0,1,0,2.06,2A2.028,2.028,0,0,0,1613.06,442.143Zm0,10.98a2,2,0,1,0,2.06,2A2.028,2.028,0,0,0,1613.06,453.123Zm0,10.98a2,2,0,1,0,2.06,2A2.028,2.028,0,0,0,1613.06,464.1Zm0,10.981a2,2,0,1,0,2.06,2A2.028,2.028,0,0,0,1613.06,475.084Zm0,10.981a2,2,0,1,0,2.06,2A2.027,2.027,0,0,0,1613.06,486.065Zm0,10.98a2,2,0,1,0,2.06,2A2.028,2.028,0,0,0,1613.06,497.045Zm0,10.981a2,2,0,1,0,2.06,2A2.027,2.027,0,0,0,1613.06,508.026Zm0,10.98a2,2,0,1,0,2.06,2A2.028,2.028,0,0,0,1613.06,519.006Zm8.88-117.014a2,2,0,1,0-2.06-2A2.028,2.028,0,0,0,1621.94,401.992Zm0,6.987a2,2,0,1,0,2.06,2A2.034,2.034,0,0,0,1621.94,408.979Zm0,10.981a2,2,0,1,0,2.06,2A2.034,2.034,0,0,0,1621.94,419.96Zm0,10.98a2,2,0,1,0,2.06,2A2.034,2.034,0,0,0,1621.94,430.94Zm0,10.981a2,2,0,1,0,2.06,2A2.034,2.034,0,0,0,1621.94,441.921Zm0,10.98a2,2,0,1,0,2.06,2A2.034,2.034,0,0,0,1621.94,452.9Zm0,10.981a2,2,0,1,0,2.06,2A2.034,2.034,0,0,0,1621.94,463.882Zm0,10.98a2,2,0,1,0,2.06,2A2.034,2.034,0,0,0,1621.94,474.862Zm0,10.981a2,2,0,1,0,2.06,2A2.034,2.034,0,0,0,1621.94,485.843Z" transform="translate(0 -110)"/>
    <path id="shape_2" class="cls-3" d="M201,251L180.9,293.986,152.984,255.43Z" transform="translate(0 -110)"/>
    <path id="shape_4" class="cls-4" d="M776,588a23,23,0,1,0,23,23A23,23,0,0,0,776,588Zm0,37.311A14.311,14.311,0,1,1,790.311,611,14.312,14.312,0,0,1,776,625.311Z" transform="translate(0 -110)"/>
    <path id="shape_3" class="cls-5" d="M180.329,743l-2.066-.526c0.033-.129,3.192-13.05-4-23.588-5.039-7.384-13.906-11.919-26.356-13.475-12.626-1.58-21.672-6.359-26.885-14.206-8.057-12.127-4.019-27.028-3.843-27.656l2.052,0.574c-0.04.145-3.944,14.615,3.575,25.915,4.856,7.3,13.391,11.759,25.366,13.257,13.093,1.637,22.468,6.486,27.864,14.408C183.766,729.047,180.473,742.433,180.329,743Zm13.859-12.545-2.065-.527c0.033-.129,3.191-13.049-4-23.587-5.039-7.385-13.907-11.919-26.356-13.476-12.627-1.579-21.672-6.359-26.886-14.206-8.057-12.127-4.019-27.028-3.843-27.656l2.053,0.574c-0.041.146-3.944,14.615,3.575,25.916,4.856,7.3,13.39,11.758,25.365,13.256,13.094,1.638,22.469,6.486,27.865,14.409C197.626,716.5,194.332,729.888,194.188,730.452Z" transform="translate(0 -110)"/>
    <circle id="shape_1" class="cls-6" cx="1496" cy="122" r="50"/>
    <path id="shape_5" class="cls-7" d="M1775,650.447l-5.45-5.454-8.05,8.049-8.05-8.049-5.46,5.454,8.05,8.05-8.05,8.049,5.46,5.455,8.05-8.05,8.05,8.05,5.45-5.455-8.05-8.049Z" transform="translate(0 -110)"/>
  </g>
</svg>
