<?xml version="1.0" standalone="no"?>
<!DOCTYPE svg PUBLIC "-//W3C//DTD SVG 20010904//EN"
 "http://www.w3.org/TR/2001/REC-SVG-20010904/DTD/svg10.dtd">
<svg version="1.0" xmlns="http://www.w3.org/2000/svg"
 width="512.000000pt" height="512.000000pt" viewBox="0 0 512.000000 512.000000"
 preserveAspectRatio="xMidYMid meet">
<metadata>
Created by potrace 1.14, written by Peter Selinger 2001-2017
</metadata>
<g transform="translate(0.000000,512.000000) scale(0.100000,-0.100000)"
fill="#000000" stroke="none">
<path d="M2442 4949 c-193 -32 -373 -150 -482 -315 -145 -220 -158 -504 -34
-731 l34 -63 -557 0 c-407 0 -567 -3 -597 -12 -55 -16 -138 -99 -154 -154 -7
-23 -12 -80 -12 -128 l0 -86 -201 -402 -201 -402 4 -136 c3 -127 5 -139 35
-202 17 -37 52 -89 77 -116 l46 -49 0 -972 0 -972 25 -24 24 -25 2111 0 2111
0 24 25 25 24 0 972 0 972 46 49 c25 27 60 79 77 116 30 63 32 75 35 202 l4
136 -201 402 -201 402 0 86 c0 111 -14 155 -67 214 -74 82 -56 80 -694 80
l-557 0 39 78 c145 288 82 632 -158 852 -162 148 -385 215 -601 179z m-924
-2461 c-10 -151 -100 -242 -238 -242 -138 0 -228 91 -238 242 l-5 72 243 0
243 0 -5 -72z m1280 0 c-10 -151 -100 -242 -238 -242 -138 0 -228 91 -238 242
l-5 72 243 0 243 0 -5 -72z m1280 0 c-10 -151 -100 -242 -238 -242 -138 0
-228 91 -238 242 l-5 72 243 0 243 0 -5 -72z m-3087 -284 c97 -104 261 -149
400 -108 65 19 110 45 167 98 l42 39 43 -39 c112 -104 250 -138 388 -98 65 19
110 45 167 98 l42 39 43 -39 c56 -53 101 -79 166 -98 138 -40 276 -6 389 98
l42 39 43 -39 c56 -53 101 -79 166 -98 138 -40 276 -6 389 98 l42 39 43 -39
c56 -53 101 -79 166 -98 138 -40 276 -6 388 97 l43 39 55 -50 c76 -70 145 -95
257 -96 l88 -1 0 -882 0 -883 -720 0 -720 0 0 775 0 776 -25 24 -24 25 -511 0
-511 0 -24 -25 -25 -24 0 -776 0 -775 -720 0 -720 0 0 883 0 882 88 1 c112 1
182 27 255 94 28 27 55 49 58 50 3 0 16 -12 30 -26z"/>
<path d="M745 1735 l-25 -24 0 -591 0 -591 25 -24 24 -25 511 0 511 0 24 25
25 24 0 591 0 591 -25 24 -24 25 -511 0 -511 0 -24 -25z m935 -615 l0 -480
-400 0 -400 0 0 480 0 480 400 0 400 0 0 -480z"/>
<path d="M1223 1177 c-163 -162 -183 -186 -183 -215 0 -44 38 -82 82 -82 29 0
53 20 215 183 163 162 183 186 183 215 0 44 -38 82 -82 82 -29 0 -53 -20 -215
-183z"/>
<path d="M3305 1735 l-25 -24 0 -591 0 -591 25 -24 24 -25 511 0 511 0 24 25
25 24 0 591 0 591 -25 24 -24 25 -511 0 -511 0 -24 -25z m935 -615 l0 -480
-400 0 -400 0 0 480 0 480 400 0 400 0 0 -480z"/>
<path d="M3783 1177 c-163 -162 -183 -186 -183 -215 0 -44 38 -82 82 -82 29 0
53 20 215 183 163 162 183 186 183 215 0 44 -38 82 -82 82 -29 0 -53 -20 -215
-183z"/>
</g>
</svg>
