
<svg xmlns="http://www.w3.org/2000/svg" xmlns:xlink="http://www.w3.org/1999/xlink" width="13pt" height="16pt" viewBox="0 0 13 16" version="1.1">
<g>
<path style=" stroke:none;fill-rule:nonzero;fill:rgb(0%,0%,0%);fill-opacity:1;" d="M 7.015625 0.203125 C 3.488281 0.203125 0 2.339844 0 5.800781 C 0 8 1.359375 9.25 2.1875 9.25 C 2.527344 9.25 2.722656 8.386719 2.722656 8.144531 C 2.722656 7.851562 1.910156 7.234375 1.910156 6.023438 C 1.910156 3.511719 4.011719 1.730469 6.738281 1.730469 C 9.078125 1.730469 10.8125 2.941406 10.8125 5.164062 C 10.8125 6.820312 10.078125 9.933594 7.703125 9.933594 C 6.847656 9.933594 6.117188 9.371094 6.117188 8.566406 C 6.117188 7.382812 7.027344 6.242188 7.027344 5.023438 C 7.027344 2.953125 3.796875 3.328125 3.796875 5.828125 C 3.796875 6.351562 3.867188 6.933594 4.125 7.414062 C 3.648438 9.269531 2.683594 12.035156 2.683594 13.945312 C 2.683594 14.539062 2.773438 15.117188 2.835938 15.710938 C 2.953125 15.828125 2.894531 15.816406 3.074219 15.757812 C 4.808594 13.601562 4.746094 13.179688 5.53125 10.355469 C 5.949219 11.085938 7.046875 11.480469 7.910156 11.480469 C 11.566406 11.480469 13.203125 8.246094 13.203125 5.332031 C 13.203125 2.226562 10.25 0.203125 7.015625 0.203125 Z M 7.015625 0.203125 "/>
</g>
</svg>
