
<svg xmlns="http://www.w3.org/2000/svg" xmlns:xlink="http://www.w3.org/1999/xlink" width="16pt" height="14pt" viewBox="0 0 16 14" version="1.1">
<g>
<path style=" stroke:none;fill-rule:nonzero;fill:rgb(0%,0%,0%);fill-opacity:1;" d="M 13.957031 4.035156 C 13.96875 4.15625 13.96875 4.277344 13.96875 4.398438 C 13.96875 8.085938 10.757812 12.332031 4.894531 12.332031 C 3.089844 12.332031 1.410156 11.875 0 11.082031 C 0.257812 11.109375 0.503906 11.117188 0.769531 11.117188 C 2.261719 11.117188 3.632812 10.675781 4.726562 9.921875 C 3.324219 9.898438 2.152344 9.09375 1.75 7.992188 C 1.945312 8.011719 2.140625 8.03125 2.347656 8.03125 C 2.632812 8.03125 2.921875 7.996094 3.191406 7.9375 C 1.726562 7.679688 0.632812 6.554688 0.632812 5.199219 L 0.632812 5.164062 C 1.054688 5.375 1.550781 5.503906 2.074219 5.519531 C 1.214844 5.015625 0.652344 4.164062 0.652344 3.195312 C 0.652344 2.675781 0.808594 2.203125 1.085938 1.789062 C 2.65625 3.480469 5.011719 4.585938 7.660156 4.707031 C 7.609375 4.5 7.582031 4.285156 7.582031 4.066406 C 7.582031 2.527344 9 1.28125 10.769531 1.28125 C 11.6875 1.28125 12.515625 1.613281 13.097656 2.160156 C 13.820312 2.039062 14.507812 1.804688 15.121094 1.484375 C 14.882812 2.132812 14.378906 2.675781 13.71875 3.023438 C 14.363281 2.960938 14.984375 2.804688 15.554688 2.589844 C 15.121094 3.144531 14.578125 3.632812 13.957031 4.035156 Z M 13.957031 4.035156 "/>
</g>
</svg>
