<?xml version="1.0" encoding="UTF-8"?>
<svg version="1.1" xmlns="http://www.w3.org/2000/svg" width="28" height="43">
<path d="M0 0 C9.24 0 18.48 0 28 0 C28 14.19 28 28.38 28 43 C18.76 43 9.52 43 0 43 C0 28.81 0 14.62 0 0 Z " fill="#FBFBFB" transform="translate(0,0)"/>
<path d="M0 0 C1.32 0.66 2.64 1.32 4 2 C4 6 4 6 2.65234375 7.5625 C1.50758443 8.52211602 0.36174679 9.48044712 -0.78515625 10.4375 C-2.22491194 11.93437025 -2.22491194 11.93437025 -1.87890625 14 C-0.60267966 16.9041245 1.43815468 18.41760581 3.8203125 20.4375 C4.40425781 21.2109375 4.40425781 21.2109375 5 22 C4.6796875 24.1875 4.6796875 24.1875 4 26 C1.89453125 26.87109375 1.89453125 26.87109375 -1 27 C-3.43906425 25.34633148 -5.33210352 23.23058898 -7.3125 21.0625 C-7.86228516 20.48564453 -8.41207031 19.90878906 -8.97851562 19.31445312 C-10.33291509 17.88938934 -11.66834644 16.44634142 -13 15 C-11.38989473 10.92623969 -8.46177729 8.23492931 -5.375 5.25 C-4.859375 4.74339844 -4.34375 4.23679687 -3.8125 3.71484375 C-2.54616661 2.47196098 -1.2736856 1.23534724 0 0 Z " fill="#0A0A0A" transform="translate(18,8)"/>
</svg>
