<?xml version="1.0" encoding="UTF-8"?>
<svg version="1.1" xmlns="http://www.w3.org/2000/svg" width="31" height="25">
<path d="M0 0 C10.23 0 20.46 0 31 0 C31 8.25 31 16.5 31 25 C20.77 25 10.54 25 0 25 C0 16.75 0 8.5 0 0 Z " fill="#939393" transform="translate(0,0)"/>
<path d="M0 0 C7.26 0.33 14.52 0.66 22 1 C20.35 2.98 18.7 4.96 17 7 C17 8.32 17 9.64 17 11 C11.39 11 5.78 11 0 11 C0 7.37 0 3.74 0 0 Z " fill="#FDFDFD" transform="translate(0,14)"/>
<path d="M0 0 C5.61 0 11.22 0 17 0 C17.33 1.65 17.66 3.3 18 5 C19.32 6.65 20.64 8.3 22 10 C11.11 10.495 11.11 10.495 0 11 C0 7.37 0 3.74 0 0 Z " fill="#FCFCFC" transform="translate(0,0)"/>
<path d="M0 0 C0 3.63 0 7.26 0 11 C-3.96 11 -7.92 11 -12 11 C-10.83658836 9.83658836 -9.67288734 8.67346481 -8.5078125 7.51171875 C-7.45577059 6.45695135 -6.40931422 5.39659611 -5.3671875 4.33203125 C-1.10718527 0 -1.10718527 0 0 0 Z " fill="#FCFCFC" transform="translate(31,14)"/>
<path d="M0 0 C3.96 0 7.92 0 12 0 C12 3.63 12 7.26 12 11 C7.81814579 7.47412292 3.80904125 3.92446674 0 0 Z " fill="#FBFBFB" transform="translate(19,0)"/>
</svg>
