<?xml version="1.0" encoding="UTF-8"?>
<svg version="1.1" xmlns="http://www.w3.org/2000/svg" width="31" height="25">
<path d="M0 0 C10.23 0 20.46 0 31 0 C31 8.25 31 16.5 31 25 C20.77 25 10.54 25 0 25 C0 16.75 0 8.5 0 0 Z " fill="#EA5772" transform="translate(0,0)"/>
<path d="M0 0 C7.26 0.33 14.52 0.66 22 1 C20.35 2.98 18.7 4.96 17 7 C17 8.32 17 9.64 17 11 C11.39 11 5.78 11 0 11 C0 7.37 0 3.74 0 0 Z " fill="#FEFCFC" transform="translate(0,14)"/>
<path d="M0 0 C5.61 0 11.22 0 17 0 C17.33 1.65 17.66 3.3 18 5 C19.32 6.65 20.64 8.3 22 10 C11.11 10.495 11.11 10.495 0 11 C0 7.37 0 3.74 0 0 Z " fill="#FEF8F9" transform="translate(0,0)"/>
<path d="M0 0 C0.53583096 2.85776514 0.78434148 4.25736803 0 7 C-2.71313602 10.0410394 -5.76651249 12.52997482 -9 15 C-9.99 14.67 -10.98 14.34 -12 14 C-11.39773952 9.78417661 -10.42902856 9.42902856 -7 6 C-13.6 5.67 -20.2 5.34 -27 5 C-27.33 3.68 -27.66 2.36 -28 1 C-24.27091231 0.83153467 -20.54171841 0.66554419 -16.8125 0.5 C-15.75740234 0.45230469 -14.70230469 0.40460937 -13.61523438 0.35546875 C-12.08286133 0.28779297 -12.08286133 0.28779297 -10.51953125 0.21875 C-9.58214111 0.17685547 -8.64475098 0.13496094 -7.67895508 0.09179688 C-5.11673177 0.00399992 -2.56347632 -0.01626313 0 0 Z " fill="#FD4360" transform="translate(28,10)"/>
<path d="M0 0 C0.33 0.99 0.66 1.98 1 3 C2.32 3.33 3.64 3.66 5 4 C2.03 6.64 -0.94 9.28 -4 12 C-4.99 11.67 -5.98 11.34 -7 11 C-6.39773952 6.78417661 -5.42902856 6.42902856 -2 3 C-8.6 2.67 -15.2 2.34 -22 2 C-22 1.67 -22 1.34 -22 1 C-18.89590179 0.83204189 -15.79171114 0.66585677 -12.6875 0.5 C-11.80642578 0.45230469 -10.92535156 0.40460937 -10.01757812 0.35546875 C-8.74624023 0.28779297 -8.74624023 0.28779297 -7.44921875 0.21875 C-6.66893311 0.17685547 -5.88864746 0.13496094 -5.0847168 0.09179688 C-3.39117604 0.01722476 -1.69518179 0 0 0 Z " fill="#E65769" transform="translate(23,13)"/>
<path d="M0 0 C0 3.63 0 7.26 0 11 C-3.96 11 -7.92 11 -12 11 C-3.91176471 0 -3.91176471 0 0 0 Z " fill="#FDFBFB" transform="translate(31,14)"/>
<path d="M0 0 C3.63 0 7.26 0 11 0 C11 3.63 11 7.26 11 11 C6.84641746 7.56530675 3.21124658 4.36729534 0 0 Z " fill="#FDF7FA" transform="translate(20,0)"/>
<path d="M0 0 C7.26 0.33 14.52 0.66 22 1 C20.35 2.98 18.7 4.96 17 7 C16.67 5.68 16.34 4.36 16 3 C10.72 2.67 5.44 2.34 0 2 C0 1.34 0 0.68 0 0 Z " fill="#FFE6E5" transform="translate(0,14)"/>
<path d="M0 0 C0 1.98 0 3.96 0 6 C-1.32 6 -2.64 6 -4 6 C-4.33 6.66 -4.66 7.32 -5 8 C-5.66 5.69 -6.32 3.38 -7 1 C-4.53721199 -0.231394 -2.7204945 -0.07159196 0 0 Z " fill="#FB3F54" transform="translate(28,10)"/>
<path d="M0 0 C2.64 0 5.28 0 8 0 C8 0.33 8 0.66 8 1 C11.96 1.33 15.92 1.66 20 2 C20 2.33 20 2.66 20 3 C13.4 3 6.8 3 0 3 C0 2.01 0 1.02 0 0 Z " fill="#EE455A" transform="translate(0,11)"/>
<path d="M0 0 C4.67692308 1.47692308 4.67692308 1.47692308 6.3125 4.125 C6.539375 4.74375 6.76625 5.3625 7 6 C2.25 5.25 2.25 5.25 0 3 C0 2.01 0 1.02 0 0 Z " fill="#F1415F" transform="translate(17,2)"/>
<path d="M0 0 C3.25543229 0.34879632 4.01873107 1.02133261 6.25 3.5625 C7.11625 4.7690625 7.11625 4.7690625 8 6 C5.33333333 4.66666667 2.66666667 3.33333333 0 2 C-0.33 2.66 -0.66 3.32 -1 4 C-0.67 2.68 -0.34 1.36 0 0 Z " fill="#E96978" transform="translate(17,0)"/>
<path d="M0 0 C0 3 0 3 -2 5.1875 C-2.66 5.785625 -3.32 6.38375 -4 7 C-4.99 6.67 -5.98 6.34 -7 6 C-4.69 4.02 -2.38 2.04 0 0 Z " fill="#FED8E1" transform="translate(26,18)"/>
</svg>
