<?xml version="1.0" encoding="UTF-8"?>
<svg version="1.1" xmlns="http://www.w3.org/2000/svg" width="5084" height="1153">
<path d="M0 0 C1677.72 0 3355.44 0 5084 0 C5084 380.49 5084 760.98 5084 1153 C3406.28 1153 1728.56 1153 0 1153 C0 772.51 0 392.02 0 0 Z " fill="#FEFEFE" transform="translate(0,0)"/>
<path d="M0 0 C16.6667737 13.24794832 27.49809275 29.59484739 30.4375 50.9375 C31.96876634 71.00204384 27.8190594 89.54644816 15.1875 105.625 C2.63944016 120.15653019 -13.10246005 130.81531457 -32.5625 132.9375 C-36.00125631 133.09556699 -39.43298244 133.12252906 -42.875 133.125 C-43.76123047 133.13724609 -44.64746094 133.14949219 -45.56054688 133.16210938 C-64.64134076 133.20386166 -81.35287635 125.35367137 -95.15625 112.52734375 C-109.49843767 97.42384133 -117.00394576 78.6154581 -116.92895508 57.95874023 C-116.46892671 40.34492694 -109.32407929 21.3995117 -96.5625 8.9375 C-95.9025 8.9375 -95.2425 8.9375 -94.5625 8.9375 C-94.2325 7.9475 -93.9025 6.9575 -93.5625 5.9375 C-67.93500422 -16.90534429 -28.17812105 -20.95296181 0 0 Z " fill="#FEEBED" transform="translate(5022.5625,979.0625)"/>
<path d="M0 0 C16.6667737 13.24794832 27.49809275 29.59484739 30.4375 50.9375 C31.96876634 71.00204384 27.8190594 89.54644816 15.1875 105.625 C2.63944016 120.15653019 -13.10246005 130.81531457 -32.5625 132.9375 C-36.00125631 133.09556699 -39.43298244 133.12252906 -42.875 133.125 C-43.76123047 133.13724609 -44.64746094 133.14949219 -45.56054688 133.16210938 C-64.64134076 133.20386166 -81.35287635 125.35367137 -95.15625 112.52734375 C-109.49843767 97.42384133 -117.00394576 78.6154581 -116.92895508 57.95874023 C-116.46892671 40.34492694 -109.32407929 21.3995117 -96.5625 8.9375 C-95.9025 8.9375 -95.2425 8.9375 -94.5625 8.9375 C-94.2325 7.9475 -93.9025 6.9575 -93.5625 5.9375 C-67.93500422 -16.90534429 -28.17812105 -20.95296181 0 0 Z M-86.19140625 19.68359375 C-97.46776818 33.02855004 -102.85506054 48.54852146 -101.5625 65.9375 C-99.65493263 78.64964819 -95.05205246 89.29351049 -86.5625 98.9375 C-85.96695313 99.62714844 -85.37140625 100.31679687 -84.7578125 101.02734375 C-75.80409685 110.70553017 -63.06223072 117.55015778 -49.81640625 118.28125 C-31.09566868 118.83322153 -15.51543091 114.95261097 -1.5625 101.9375 C9.80056343 89.94764838 15.46841902 75.71420571 15.75 59.25 C15.3368755 44.25511057 10.41427087 29.87957426 -0.3203125 18.95703125 C-15.69387447 5.11011219 -30.73844546 1.04681112 -51.00292969 1.76269531 C-64.1004555 2.65718487 -77.32129527 10.17534529 -86.19140625 19.68359375 Z " fill="#F94059" transform="translate(5022.5625,979.0625)"/>
<path d="M0 0 C4.68614704 2.01832563 8.01015832 4.68021109 11.0625 8.75 C12.70767769 14.45328267 12.78919814 19.67624992 10.875 25.3125 C7.99644284 29.43843192 4.86637047 32.37787651 0 34 C-6.59537428 34.745842 -11.87766846 34.5470685 -17.33984375 30.54296875 C-21.44473458 26.72783492 -23.20161087 23.05166121 -23.4375 17.4375 C-23.1674429 12.45832223 -21.93848005 8.91155672 -18.3125 5.3359375 C-12.36532243 0.10737722 -8.00495969 -1.10740549 0 0 Z " fill="#FB3F58" transform="translate(4985,1022)"/>
<path d="M0 0 C3.78802231 2.52534821 4.62479846 5.33007438 6.125 9.4375 C6.52356201 10.51197388 6.52356201 10.51197388 6.93017578 11.6081543 C9.7327629 19.51576982 10.09456191 26.98821886 9.9375 35.3125 C9.89090267 38.93810266 9.89090267 38.93810266 10.625 42.1875 C11.05846295 45.4384721 10.52554254 46.20317201 9 49 C8.87625 50.03125 8.7525 51.0625 8.625 52.125 C7.48224149 59.21010276 4.32562539 65.68131176 1 72 C1.66 72 2.32 72 3 72 C3 72.66 3 73.32 3 74 C1.77204377 75.13170313 0.49148743 76.20681006 -0.8125 77.25 C-4.35505165 80.24038511 -5.99459041 82.80687086 -8 87 C-10.9375 89.6875 -10.9375 89.6875 -14 92 C-14.70125 92.61875 -15.4025 93.2375 -16.125 93.875 C-18 95 -18 95 -20.1171875 94.5703125 C-21.04917969 94.28800781 -21.04917969 94.28800781 -22 94 C-21.21496094 93.32195312 -20.42992188 92.64390625 -19.62109375 91.9453125 C-13.07531089 86.18973563 -7.49407673 80.55877057 -3 73 C-2.55269531 72.2575 -2.10539062 71.515 -1.64453125 70.75 C7.85988442 53.43734129 9.63659318 34.1073341 4.93359375 15.0703125 C3.76811128 11.2373869 2.38897024 7.554075 0.76953125 3.890625 C0 2 0 2 0 0 Z " fill="#FEBAC2" transform="translate(5045,1004)"/>
<path d="M0 0 C-1.65 0.66 -3.3 1.32 -5 2 C-5 2.66 -5 3.32 -5 4 C-5.969375 4.28875 -6.93875 4.5775 -7.9375 4.875 C-11.10664203 5.64214682 -11.10664203 5.64214682 -12 8 C-12.721875 8.103125 -13.44375 8.20625 -14.1875 8.3125 C-18.18996258 9.29087974 -20.02071401 11.1561361 -23 14 C-23.33 14.99 -23.66 15.98 -24 17 C-25.68909768 18.58749782 -27.48401943 19.97391918 -29.30859375 21.40234375 C-31.17198291 23.16245037 -31.98980951 24.65942471 -33 27 C-33.515625 28.155 -34.03125 29.31 -34.5625 30.5 C-35.62112529 33.07752244 -36.35510706 35.32830068 -37 38 C-37.33499512 38.55397461 -37.66999023 39.10794922 -38.01513672 39.67871094 C-39.36170554 42.85252759 -39.22447423 45.51204068 -39.1953125 48.953125 C-39.19106766 49.94345734 -39.19106766 49.94345734 -39.18673706 50.95379639 C-39.17558415 53.05271897 -39.15048946 55.15120742 -39.125 57.25 C-39.11496384 58.67707715 -39.1058391 60.10416102 -39.09765625 61.53125 C-39.07566111 65.02097328 -39.04116536 68.51044423 -39 72 C-38.34 72 -37.68 72 -37 72 C-37.33 73.65 -37.66 75.3 -38 77 C-43.97801507 68.03297739 -44.01292272 55.42809993 -42.6015625 45.078125 C-39.56000935 30.46286958 -31.69867974 16.24960052 -19.453125 7.5234375 C-16.27222752 5.54803938 -13.01560044 3.77625201 -9.6875 2.0625 C-9.07640381 1.74337646 -8.46530762 1.42425293 -7.83569336 1.09545898 C-3.36268682 -1.12089561 -3.36268682 -1.12089561 0 0 Z " fill="#FDB8BF" transform="translate(4964,984)"/>
<path d="M0 0 C3.4375 1.0625 3.4375 1.0625 5.5 3.25 C6.73056864 6.94170592 6.12563585 8.60949486 4.4375 12.0625 C1.18923326 14.22801116 0.20655843 14.61406953 -3.5625 14.0625 C-5.875 12.4375 -5.875 12.4375 -7.5625 10.0625 C-8.17225382 6.40397708 -8.00793026 4.75737121 -6 1.625 C-3.5625 0.0625 -3.5625 0.0625 0 0 Z " fill="#4AC6F4" transform="translate(232.5625,201.9375)"/>
<path d="M0 0 C2.29492223 2.66507098 3.04299299 4.09714716 2.875 7.625 C1.90125807 10.2680138 1.36002096 11.45377937 -1 13 C-3.9375 13.5 -3.9375 13.5 -7 13 C-9.4375 10.875 -9.4375 10.875 -11 8 C-11 4.45665039 -10.64741834 2.74333217 -8.3125 0.0625 C-5.07205253 -1.42635424 -3.35094158 -1.14074607 0 0 Z " fill="#34C2FB" transform="translate(236,158)"/>
<path d="M0 0 C3.03058422 1.2433166 4.54587288 2.3080691 6.4375 5 C6.4375 8.53156157 6.11448902 10.27465462 3.6875 12.875 C0.94022993 14.24863504 -0.53037906 14.53062116 -3.5625 14 C-6.59497414 11.86907223 -7.43887987 10.65930734 -8.125 7 C-7.5625 4 -7.5625 4 -5.375 1.5625 C-2.5625 0 -2.5625 0 0 0 Z " fill="#34C3FC" transform="translate(97.5625,202)"/>
<path d="M0 0 C1.875 1.0625 1.875 1.0625 3 3 C3.504958 6.9675271 3.61854451 9.10654682 1.3125 12.4375 C-1 14 -1 14 -3.5 14.5 C-6 14 -6 14 -8.375 12.4375 C-10 10 -10 10 -9.9375 6.4375 C-8.30124321 0.43789176 -6.23944244 -0.77993031 0 0 Z " fill="#36C4FA" transform="translate(55,202)"/>
<path d="M0 0 C2.8125 0.875 2.8125 0.875 4.8125 2.875 C5.36891422 9.88581917 5.36891422 9.88581917 3.6875 12.875 C0.83065949 14.39864827 -1.00525209 14.39455068 -4.1875 13.875 C-6.80886844 11.4605817 -7.98502546 9.79738403 -8.75 6.3125 C-8.1875 3.875 -8.1875 3.875 -6.0625 1.5 C-3.1875 -0.125 -3.1875 -0.125 0 0 Z " fill="#48C4F3" transform="translate(278.1875,157.125)"/>
<path d="M0 0 C2.3125 1 2.3125 1 4 3 C4.57198503 5.77326075 4.56516801 8.22606314 4 11 C2.375 13.0625 2.375 13.0625 0 14 C-3.44266385 13.92974155 -5.28353249 13.60090824 -7.9375 11.375 C-9.48100034 7.92482276 -8.93333407 5.60000284 -8 2 C-4.74236778 -0.17175481 -3.77560787 -0.46043998 0 0 Z " fill="#3AC2FC" transform="translate(144,157)"/>
<path d="M0 0 C2.375 0.875 2.375 0.875 5.375 2.875 C5.70913568 5.88222111 5.90846301 7.97651765 5.375 10.875 C3.31031073 13.32203913 1.98355973 13.75328805 -1.125 14.375 C-3.625 13.875 -3.625 13.875 -5.9375 11.6875 C-7.77805553 8.61990745 -8.4284163 7.35647064 -7.625 3.875 C-5.10390137 1.1378072 -3.79508866 -0.18071851 0 0 Z " fill="#46C4F5" transform="translate(7.625,157.125)"/>
<path d="M0 0 C2.91289646 0.08473881 3.77703881 0.15009119 6.125 2 C7.40702118 5.24778698 7.11793562 7.06796839 6.0625 10.375 C3.94834778 12.6401631 2.59093896 13.26931221 -0.4375 13.875 C-2.9375 13.375 -2.9375 13.375 -5.3125 11.25 C-6.9375 8.375 -6.9375 8.375 -6.8125 5.1875 C-5.44332839 0.78659125 -4.64918662 0.44277968 0 0 Z " fill="#3BC2F8" transform="translate(141.9375,67.625)"/>
<path d="M0 0 C3.375 0.875 3.375 0.875 5.375 2.875 C5.81022403 6.7920163 5.92592928 9.02741649 3.75 12.375 C1.375 13.875 1.375 13.875 -1.6875 13.875 C-5.04758858 12.73114006 -6.04964938 12.02570125 -7.625 8.875 C-8.20496839 5.5608949 -7.92009872 4.32355005 -6.0625 1.5 C-3.625 -0.125 -3.625 -0.125 0 0 Z " fill="#39C3FC" transform="translate(187.625,292.125)"/>
<path d="M0 0 C2 2.1875 2 2.1875 3 5 C2.375 8.1875 2.375 8.1875 1 11 C-2.24153166 13.1610211 -3.23692901 13.64247553 -7 13 C-9.375 10.875 -9.375 10.875 -11 8 C-11 4.45665039 -10.64741834 2.74333217 -8.3125 0.0625 C-5.07205253 -1.42635424 -3.35094158 -1.14074607 0 0 Z " fill="#3CC5FB" transform="translate(191,113)"/>
<path d="M0 0 C1.9375 1.125 1.9375 1.125 3 3 C3.54068562 6.63031776 3.46379841 8.32214079 1.375 11.375 C-1.67785921 13.46379841 -3.36968224 13.54068562 -7 13 C-8.875 11.9375 -8.875 11.9375 -10 10 C-10.36528977 6.5906288 -10.6140629 4.11976176 -8.9375 1.0625 C-5.88023824 -0.6140629 -3.4093712 -0.36528977 0 0 Z " fill="#46C2F4" transform="translate(213,225)"/>
<path d="M0 0 C3.11199723 1.16699896 4.5828226 2.20920909 6.5 4.9375 C6.5625 8 6.5625 8 5.5 10.9375 C2.86082523 13.21012272 1.36291917 13.9375 -2.125 13.9375 C-5.36910604 12.57156062 -6.17963999 11.1650467 -7.5 7.9375 C-7.42307328 4.70657772 -6.95666636 3.42678539 -4.75 1.0625 C-2.5 -0.0625 -2.5 -0.0625 0 0 Z " fill="#33C4F8" transform="translate(277.5,202.0625)"/>
<path d="M0 0 C2 2 2 2 2.375 5.9375 C2.29486433 8.88115036 2.26281734 9.68851278 0.3125 12 C-2.4593226 13.19862599 -4.01380309 13.52258446 -7 13 C-9.3125 11.375 -9.3125 11.375 -11 9 C-11.44912849 5.85610056 -11.504106 3.94519875 -10 1.125 C-6.66094446 -0.75321874 -3.79001126 -0.30079454 0 0 Z " fill="#35C4FB" transform="translate(191,158)"/>
<path d="M0 0 C2.8125 0.875 2.8125 0.875 4.8125 2.875 C5.12787716 7.21143601 5.26147847 9.20153229 2.8125 12.875 C0 13.875 0 13.875 -3.1875 13.875 C-6.27411637 11.5935879 -7.89384921 10.07896825 -8.8125 6.3125 C-8.1875 3.875 -8.1875 3.875 -6.0625 1.5 C-3.1875 -0.125 -3.1875 -0.125 0 0 Z " fill="#4AC3F1" transform="translate(98.1875,247.125)"/>
<path d="M0 0 C3.4375 0.875 3.4375 0.875 5.4375 3.875 C5.90193597 7.5130818 5.86593764 9.23234354 3.8125 12.3125 C1.4375 13.875 1.4375 13.875 -1.625 13.9375 C-4.5625 12.875 -4.5625 12.875 -6.5 10.625 C-7.73604048 7.42583641 -7.73974372 6.07037581 -6.5625 2.875 C-4.65831043 -0.29864928 -3.77373168 -0.13241164 0 0 Z " fill="#31C4FC" transform="translate(187.5625,202.125)"/>
<path d="M0 0 C2.91289646 0.08473881 3.77703881 0.15009119 6.125 2 C7.40702118 5.24778698 7.11793562 7.06796839 6.0625 10.375 C4.375 12.3125 4.375 12.3125 2.0625 13.375 C-1 13.375 -1 13.375 -3.9375 12.375 C-6.26909059 9.66734641 -6.99995423 8.27017737 -6.75 4.6875 C-5.32458784 0.6305577 -4.32325063 0.41173816 0 0 Z " fill="#4CC2F0" transform="translate(141.9375,202.625)"/>
<path d="M0 0 C2.4375 1.5625 2.4375 1.5625 4 4 C3.78571429 10.21428571 3.78571429 10.21428571 1 13 C-5.00458716 13.54587156 -5.00458716 13.54587156 -7.9375 11.9375 C-9.6140629 8.88023824 -9.36528977 6.4093712 -9 3 C-6.84532543 -0.71082843 -4.00794956 -0.57256422 0 0 Z " fill="#36C4FB" transform="translate(257,180)"/>
<path d="M0 0 C2.32749345 3.49124017 2.50299316 4.89222251 2 9 C0.02113939 11.78506308 -1.15932233 12.81084752 -4.5 13.5625 C-7 13 -7 13 -9.375 10.875 C-11 8 -11 8 -11 4.875 C-10 2 -10 2 -8.3125 0.0625 C-5.13778084 -1.39615475 -3.30121799 -1.00471852 0 0 Z " fill="#39C1FB" transform="translate(56,158)"/>
<path d="M0 0 C2.4375 1.5625 2.4375 1.5625 4 4 C3.78571429 10.21428571 3.78571429 10.21428571 1 13 C-5.00458716 13.54587156 -5.00458716 13.54587156 -7.9375 11.9375 C-9.6140629 8.88023824 -9.36528977 6.4093712 -9 3 C-6.84532543 -0.71082843 -4.00794956 -0.57256422 0 0 Z " fill="#3AC4FB" transform="translate(302,135)"/>
<path d="M0 0 C2.8125 0.875 2.8125 0.875 4.8125 2.875 C5.12787716 7.21143601 5.26147847 9.20153229 2.8125 12.875 C0 13.875 0 13.875 -3.1875 13.875 C-6.27411637 11.5935879 -7.89384921 10.07896825 -8.8125 6.3125 C-8.1875 3.875 -8.1875 3.875 -6.0625 1.5 C-3.1875 -0.125 -3.1875 -0.125 0 0 Z " fill="#48C1F3" transform="translate(278.1875,112.125)"/>
<path d="M0 0 C2.31282587 3.46923881 2.42478586 4.92205575 2 9 C0.9375 10.875 0.9375 10.875 -1 12 C-4.4093712 12.36528977 -6.88023824 12.6140629 -9.9375 10.9375 C-11.63335287 7.84506242 -11.43060657 5.44485259 -11 2 C-7.88980721 -1.98104677 -4.56233816 -1.18282841 0 0 Z " fill="#37C3FC" transform="translate(259,91)"/>
<path d="M0 0 C2 1.5625 2 1.5625 3 4 C2.875 7.625 2.875 7.625 2 11 C-1 13 -1 13 -4.5625 12.75 C-8 12 -8 12 -10 10 C-10.54587156 3.99541284 -10.54587156 3.99541284 -8.9375 1.0625 C-5.84506242 -0.63335287 -3.44485259 -0.43060657 0 0 Z " fill="#38C3FC" transform="translate(168,180)"/>
<path d="M0 0 C2.4375 1.5625 2.4375 1.5625 4 4 C3.9375 7.625 3.9375 7.625 3 11 C-0.46923881 13.31282587 -1.92205575 13.42478586 -6 13 C-7.875 11.9375 -7.875 11.9375 -9 10 C-9.63316583 4.09045226 -9.63316583 4.09045226 -7.875 1.0625 C-5.06487736 -0.52990283 -3.17235276 -0.45319325 0 0 Z " fill="#3AC2F9" transform="translate(302,180)"/>
<path d="M0 0 C2.4375 1.5625 2.4375 1.5625 4 4 C3.9375 7.625 3.9375 7.625 3 11 C-0.46923881 13.31282587 -1.92205575 13.42478586 -6 13 C-7.875 11.9375 -7.875 11.9375 -9 10 C-9.63316583 4.09045226 -9.63316583 4.09045226 -7.875 1.0625 C-5.06487736 -0.52990283 -3.17235276 -0.45319325 0 0 Z " fill="#47C2F2" transform="translate(77,180)"/>
<path d="M0 0 C2.4375 1.5625 2.4375 1.5625 4 4 C3.9375 7.625 3.9375 7.625 3 11 C-0.46923881 13.31282587 -1.92205575 13.42478586 -6 13 C-7.875 11.9375 -7.875 11.9375 -9 10 C-9.63316583 4.09045226 -9.63316583 4.09045226 -7.875 1.0625 C-5.06487736 -0.52990283 -3.17235276 -0.45319325 0 0 Z " fill="#38C4FA" transform="translate(257,135)"/>
<path d="M0 0 C3.0625 0.5 3.0625 0.5 5.5 2.0625 C7.0625 4.5 7.0625 4.5 6.9375 8.125 C6.0625 11.5 6.0625 11.5 4.0625 13.5 C0.11091529 13.84361606 -2.54285554 13.58901197 -5.9375 11.5 C-6.29647436 5.27777778 -6.29647436 5.27777778 -4.8125 2.0625 C-2.9375 0.5 -2.9375 0.5 0 0 Z " fill="#36C2FA" transform="translate(208.9375,134.5)"/>
<path d="M0 0 C1.9375 1.5625 1.9375 1.5625 3 4 C2.67272727 10.32727273 2.67272727 10.32727273 0 13 C-6.05240175 13.55021834 -6.05240175 13.55021834 -8.9375 11.875 C-10.52990283 9.06487736 -10.45319325 7.17235276 -10 4 C-7.22943094 -0.04929323 -4.80283685 -0.81750414 0 0 Z " fill="#3DC3F8" transform="translate(168,135)"/>
<path d="M0 0 C2.79734842 1.98758966 3.84278924 3.10165277 4.4375 6.5 C3.8959746 9.59443084 3.38460953 10.92308202 1 13 C-2.44485259 13.43060657 -4.84506242 13.63335287 -7.9375 11.9375 C-9.6140629 8.88023824 -9.36528977 6.4093712 -9 3 C-6.84532543 -0.71082843 -4.00794956 -0.57256422 0 0 Z " fill="#3BC3F9" transform="translate(122,135)"/>
<path d="M0 0 C3.5625 0.25 3.5625 0.25 6.5625 2.25 C7.74929817 5.38653803 7.71419724 6.8328326 6.5625 10 C4.5625 12.25 4.5625 12.25 1.125 13.375 C-2.4375 13.25 -2.4375 13.25 -4.9375 11.1875 C-6.76247386 7.61359285 -6.61540563 6.03612525 -5.4375 2.25 C-3.4375 0.25 -3.4375 0.25 0 0 Z " fill="#44C2F7" transform="translate(141.4375,112.75)"/>
<path d="M0 0 C2 2 2 2 2.25 5.4375 C2 9 2 9 0 12 C-2.8125 13 -2.8125 13 -6 13 C-8.9375 10.9375 -8.9375 10.9375 -11 8 C-11.0715787 4.42106498 -10.6663269 2.765042 -8.3125 0.0625 C-5.16096578 -1.38550221 -3.29050737 -0.929926 0 0 Z " fill="#46C2F4" transform="translate(101,113)"/>
<path d="M0 0 C2.3125 1.625 2.3125 1.625 4 4 C4.45319325 7.17235276 4.52990283 9.06487736 2.9375 11.875 C-0.1069286 13.64273274 -2.5631012 13.36823916 -6 13 C-7.9375 11.9375 -7.9375 11.9375 -9 10 C-9.4375 6.5 -9.4375 6.5 -9 3 C-6.35893733 -0.03233122 -3.92985113 -0.68772395 0 0 Z " fill="#3EC2F4" transform="translate(167,90)"/>
<path d="M0 0 C2.31361802 3.47042703 2.51020728 4.91834173 2 9 C-0.25172903 11.59814888 -1.65017705 11.95716454 -5.0625 12.375 C-8 12 -8 12 -9.875 10.9375 C-11.66235303 7.85928089 -11.43386742 5.47093932 -11 2 C-7.88980721 -1.98104677 -4.56233816 -1.18282841 0 0 Z " fill="#3EC2F5" transform="translate(79,91)"/>
<path d="M0 0 C2.3125 1.125 2.3125 1.125 4 3 C4.49453975 6.32048116 4.30818153 8.31112364 2.9375 11.375 C1 13 1 13 -2.5 13.4375 C-6 13 -6 13 -7.9375 11.9375 C-9.63335287 8.84506242 -9.43060657 6.44485259 -9 3 C-6.33856846 -0.0557177 -3.95300117 -0.59295018 0 0 Z " fill="#3CC3FA" transform="translate(212,45)"/>
<path d="M0 0 C0.70125 -0.01675781 1.4025 -0.03351562 2.125 -0.05078125 C2.74375 0.06910156 3.3625 0.18898438 4 0.3125 C6.46943529 4.01665293 6.46913089 5.93394505 6 10.3125 C3.92308202 12.69710953 2.59443084 13.2084746 -0.5 13.75 C-3 13.3125 -3 13.3125 -5.375 11.75 C-7 9.3125 -7 9.3125 -6.875 5.6875 C-5.69205357 1.12470663 -4.56108031 0.02515302 0 0 Z " fill="#48C2F6" transform="translate(142,22.6875)"/>
<path d="M0 0 C2.7912125 1.98322993 3.82597224 3.12986121 4.5 6.5 C3.82597224 9.87013879 2.7912125 11.01677007 0 13 C-3.17235276 13.45319325 -5.06487736 13.52990283 -7.875 11.9375 C-9.64273274 8.8930714 -9.36823916 6.4368988 -9 3 C-6.84532543 -0.71082843 -4.00794956 -0.57256422 0 0 Z " fill="#44C1F4" transform="translate(122,270)"/>
<path d="M0 0 C2.375 1.125 2.375 1.125 4 3 C4.61833806 6.63273611 4.43339202 8.32390845 2.4375 11.4375 C0 13 0 13 -3.625 12.9375 C-7 12 -7 12 -9 9 C-9.32502803 5.87973093 -9.51151479 3.85252465 -7.875 1.125 C-5.10703881 -0.53577671 -3.16909182 -0.38805206 0 0 Z " fill="#37C3FA" transform="translate(167,225)"/>
<path d="M0 0 C2.375 1.125 2.375 1.125 4 3 C4.61833806 6.63273611 4.43339202 8.32390845 2.4375 11.4375 C0 13 0 13 -3.625 12.875 C-7 12 -7 12 -9 10 C-9.55021834 3.94759825 -9.55021834 3.94759825 -7.875 1.0625 C-5.09808875 -0.51108304 -3.13770673 -0.38420899 0 0 Z " fill="#45C4F3" transform="translate(122,225)"/>
<path d="M0 0 C3 2 3 2 3.9375 5.375 C4 9 4 9 2.4375 11.4375 C-0.65888511 13.42236225 -2.38418138 13.53852618 -6 13 C-7.875 11.9375 -7.875 11.9375 -9 10 C-9.63316583 4.09045226 -9.63316583 4.09045226 -7.875 1.0625 C-5.14015561 -0.48724515 -3.0875593 -0.32162076 0 0 Z " fill="#43C1F4" transform="translate(77,225)"/>
<path d="M0 0 C2.4375 1.5625 2.4375 1.5625 4 4 C3.9375 7.625 3.9375 7.625 3 11 C-0.46923881 13.31282587 -1.92205575 13.42478586 -6 13 C-7.875 11.9375 -7.875 11.9375 -9 10 C-9.63316583 4.09045226 -9.63316583 4.09045226 -7.875 1.0625 C-5.06487736 -0.52990283 -3.17235276 -0.45319325 0 0 Z " fill="#41C2F4" transform="translate(122,180)"/>
<path d="M0 0 C2.4375 1.5625 2.4375 1.5625 4 4 C3.9375 7.625 3.9375 7.625 3 11 C0 13 0 13 -3.5625 12.75 C-7 12 -7 12 -9 10 C-9.55021834 3.94759825 -9.55021834 3.94759825 -7.875 1.0625 C-5.06487736 -0.52990283 -3.17235276 -0.45319325 0 0 Z " fill="#3AC3F8" transform="translate(212,180)"/>
<path d="M0 0 C3.0625 0.5 3.0625 0.5 5.5 2.0625 C7.0625 4.5 7.0625 4.5 7 8.125 C6.0625 11.5 6.0625 11.5 3.0625 13.5 C-0.05776907 13.82502803 -2.08497535 14.01151479 -4.8125 12.375 C-6.47327671 9.60703881 -6.32555206 7.66909182 -5.9375 4.5 C-4.37581884 1.20311756 -3.62602767 0.6171962 0 0 Z " fill="#3EC1FA" transform="translate(28.9375,134.5)"/>
<path d="M0 0 C0.70125 -0.01675781 1.4025 -0.03351563 2.125 -0.05078125 C2.74375 0.06910156 3.3625 0.18898438 4 0.3125 C6.46324069 4.00736103 6.38991688 5.94543092 6 10.3125 C4.875 12.25 4.875 12.25 3 13.3125 C0.0625 13.8125 0.0625 13.8125 -3 13.3125 C-5.4375 11.1875 -5.4375 11.1875 -7 8.3125 C-6.78809112 2.90882356 -5.6686381 0.03126087 0 0 Z " fill="#3EC2F7" transform="translate(52,112.6875)"/>
<path d="M0 0 C2 1.5625 2 1.5625 3 4 C2.875 7.625 2.875 7.625 2 11 C-1 13 -1 13 -4.5625 12.8125 C-8 12 -8 12 -10 9 C-10.32162076 5.9124407 -10.48724515 3.85984439 -8.9375 1.125 C-5.85928089 -0.66235303 -3.47093932 -0.43386742 0 0 Z " fill="#37C3FB" transform="translate(168,315)"/>
<path d="M0 0 C2 3 2 3 1.8125 6.5625 C1 10 1 10 -2 12 C-8.45283019 11.54716981 -8.45283019 11.54716981 -11 9 C-11.6700702 2.85768985 -11.6700702 2.85768985 -9.4375 0 C-5.94857191 -1.43135511 -3.60244028 -0.933966 0 0 Z " fill="#53C0E6" transform="translate(214,271)"/>
<path d="M0 0 C2 2 2 2 2.25 5.4375 C2 9 2 9 0 12 C-7.01123596 12.77902622 -7.01123596 12.77902622 -10.0625 10.375 C-11.34452118 7.12721302 -11.05543562 5.30703161 -10 2 C-6.87424861 -1.58882567 -4.39869419 -1.24310923 0 0 Z " fill="#45C2F2" transform="translate(146,248)"/>
<path d="M0 0 C2.4375 1.5625 2.4375 1.5625 4 4 C3.9375 7.625 3.9375 7.625 3 11 C0 13 0 13 -3.5625 12.8125 C-7 12 -7 12 -9 9 C-9.32502803 5.87973093 -9.51151479 3.85252465 -7.875 1.125 C-5.07553259 -0.55468045 -3.20195936 -0.45742277 0 0 Z " fill="#44C0F5" transform="translate(257,225)"/>
<path d="M0 0 C2 3 2 3 1.8125 6.5625 C1 10 1 10 -2 12 C-8.45283019 11.54716981 -8.45283019 11.54716981 -11 9 C-11.6700702 2.85768985 -11.6700702 2.85768985 -9.4375 0 C-5.94857191 -1.43135511 -3.60244028 -0.933966 0 0 Z " fill="#3AC3FC" transform="translate(34,181)"/>
<path d="M0 0 C3.5625 0.25 3.5625 0.25 6.5625 2.25 C7.34152622 9.26123596 7.34152622 9.26123596 4.9375 12.3125 C1.68971302 13.59452118 -0.13046839 13.30543562 -3.4375 12.25 C-5.375 10.5625 -5.375 10.5625 -6.4375 8.25 C-6.12450737 3.03345615 -5.62866416 0.40935739 0 0 Z " fill="#43C1F5" transform="translate(321.4375,157.75)"/>
<path d="M0 0 C1.918125 0.1546875 1.918125 0.1546875 3.875 0.3125 C4.95394531 0.39951172 4.95394531 0.39951172 6.0546875 0.48828125 C8 1 8 1 10 4 C9.8125 7.5625 9.8125 7.5625 9 11 C5.53076119 13.31282587 4.07794425 13.42478586 0 13 C-1.875 11.875 -1.875 11.875 -3 10 C-3.45185216 6.46049143 -3.42109443 4.66673285 -1.5 1.625 C-1.005 1.08875 -0.51 0.5525 0 0 Z " fill="#45C2F3" transform="translate(71,135)"/>
<path d="M0 0 C2.7912125 1.98322993 3.82597224 3.12986121 4.5 6.5 C3.82597224 9.87013879 2.7912125 11.01677007 0 13 C-3.17235276 13.45319325 -5.06487736 13.52990283 -7.875 11.9375 C-9.64273274 8.8930714 -9.36823916 6.4368988 -9 3 C-6.84532543 -0.71082843 -4.00794956 -0.57256422 0 0 Z " fill="#46C2F4" transform="translate(122,90)"/>
<path d="M0 0 C3.5625 0.3125 3.5625 0.3125 5.5 1.375 C7.19585287 4.46743758 6.99310657 6.86764741 6.5625 10.3125 C4.49424529 12.68716282 3.12821765 13.19935647 0.0625 13.8125 C-2.4375 13.3125 -2.4375 13.3125 -4.8125 11.1875 C-6.4375 8.3125 -6.4375 8.3125 -6.3125 5.125 C-5.03605468 1.02214003 -4.32440699 0.39312791 0 0 Z " fill="#40C0F8" transform="translate(186.4375,67.6875)"/>
<path d="M0 0 C2 3 2 3 1.8125 6.5625 C1 10 1 10 -2 12 C-5.0875593 12.32162076 -7.14015561 12.48724515 -9.875 10.9375 C-11.66235303 7.85928089 -11.43386742 5.47093932 -11 2 C-7.88980721 -1.98104677 -4.56233816 -1.18282841 0 0 Z " fill="#45C2F4" transform="translate(124,46)"/>
<path d="M0 0 C3.5625 0.3125 3.5625 0.3125 5.5 1.4375 C7.09240283 4.24762264 7.01569325 6.14014724 6.5625 9.3125 C4.57927007 12.1037125 3.43263879 13.13847224 0.0625 13.8125 C-2.4375 13.3125 -2.4375 13.3125 -4.8125 11.75 C-6.4375 9.3125 -6.4375 9.3125 -6.3125 5.6875 C-5.14951423 1.20169775 -4.66151968 0.42377452 0 0 Z " fill="#37C2FB" transform="translate(186.4375,22.6875)"/>
<path d="M0 0 C2 1.125 2 1.125 3 3 C2.66666667 9.33333333 2.66666667 9.33333333 0 12 C-6.00458716 12.54587156 -6.00458716 12.54587156 -8.9375 10.9375 C-10.6140629 7.88023824 -10.36528977 5.4093712 -10 2 C-7.70805517 -2.31424909 -4.19774255 -1.04943564 0 0 Z " fill="#42C1F4" transform="translate(168,1)"/>
<path d="M0 0 C2 2 2 2 2.3125 5.4375 C2 9 2 9 0.9375 10.9375 C-2.15493758 12.63335287 -4.55514741 12.43060657 -8 12 C-10 10.375 -10 10.375 -11 8 C-10.92897215 4.5196355 -10.61415498 2.70514091 -8.3125 0.0625 C-5.16096578 -1.38550221 -3.29050737 -0.929926 0 0 Z " fill="#4AC2F3" transform="translate(236,248)"/>
<path d="M0 0 C2.8125 0.875 2.8125 0.875 4.8125 2.875 C5.12787716 7.21143601 5.26147847 9.20153229 2.8125 12.875 C-0.19472111 13.20913568 -2.28901765 13.40846301 -5.1875 12.875 C-7.63453913 10.81031073 -8.06578805 9.48355973 -8.6875 6.375 C-8.1875 3.875 -8.1875 3.875 -6.0625 1.5 C-3.1875 -0.125 -3.1875 -0.125 0 0 Z " fill="#39C0F8" transform="translate(98.1875,157.125)"/>
<path d="M0 0 C2.5 0.5 2.5 0.5 4.875 2.0625 C6.5 4.5 6.5 4.5 6.375 8.125 C5.5 11.5 5.5 11.5 3.5 13.5 C-2.55240175 14.05021834 -2.55240175 14.05021834 -5.4375 12.375 C-7.02990283 9.56487736 -6.95319325 7.67235276 -6.5 4.5 C-4.51677007 1.7087875 -3.37013879 0.67402776 0 0 Z " fill="#39C1FD" transform="translate(209.5,89.5)"/>
<path d="M0 0 C3.5625 0.3125 3.5625 0.3125 5.5 1.375 C7.19585287 4.46743758 6.99310657 6.86764741 6.5625 10.3125 C4.9375 12.3125 4.9375 12.3125 2.5625 13.3125 C-0.9178645 13.24147215 -2.73235909 12.92665498 -5.375 10.625 C-6.82300221 7.47346578 -6.367426 5.60300737 -5.4375 2.3125 C-3.4375 0.3125 -3.4375 0.3125 0 0 Z " fill="#36C2FA" transform="translate(231.4375,67.6875)"/>
<path d="M0 0 C1.9375 1.125 1.9375 1.125 3 3 C2.66666667 9.33333333 2.66666667 9.33333333 0 12 C-6.00458716 12.54587156 -6.00458716 12.54587156 -8.9375 10.9375 C-10.63335287 7.84506242 -10.43060657 5.44485259 -10 2 C-7.00946104 -1.68066334 -4.3259629 -1.28858469 0 0 Z " fill="#37C4F9" transform="translate(168,46)"/>
<path d="M0 0 C2.4375 1.5625 2.4375 1.5625 4 4 C3.9375 7.625 3.9375 7.625 3 11 C0 13 0 13 -3.5625 12.8125 C-7 12 -7 12 -9 9 C-9.32502803 5.87973093 -9.51151479 3.85252465 -7.875 1.125 C-5.07553259 -0.55468045 -3.20195936 -0.45742277 0 0 Z " fill="#34C2FC" transform="translate(167,270)"/>
<path d="M0 0 C2.75 1.3125 2.75 1.3125 3.75 3.3125 C3.9375 6.8125 3.9375 6.8125 3.75 10.3125 C1.75 12.3125 1.75 12.3125 -2.1875 12.6875 C-5.10039646 12.60276119 -5.96453881 12.53740881 -8.3125 10.6875 C-9.60687583 7.40841455 -9.38203164 5.63784294 -8.25 2.3125 C-5.22264012 -0.45537189 -4.04423612 -0.85551149 0 0 Z " fill="#36C1FC" transform="translate(189.25,247.6875)"/>
<path d="M0 0 C0.70125 -0.01675781 1.4025 -0.03351563 2.125 -0.05078125 C2.74375 0.06910156 3.3625 0.18898438 4 0.3125 C6.32749345 3.80374017 6.50299316 5.20472251 6 9.3125 C4.375 11.75 4.375 11.75 2 13.3125 C-1.51359068 13.3125 -3.27528132 12.9437066 -5.9375 10.625 C-7.38550221 7.47346578 -6.929926 5.60300737 -6 2.3125 C-3.67471713 -0.01278287 -3.15334102 0.01738975 0 0 Z " fill="#40C2F6" transform="translate(232,112.6875)"/>
<path d="M0 0 C3.5625 0.3125 3.5625 0.3125 5.5 1.375 C7.216047 4.50426217 7.05998049 6.83013658 6.5625 10.3125 C4.375 12.3125 4.375 12.3125 1.5625 13.3125 C-1.26778135 13.1777247 -2.89650646 12.63709612 -5.3125 11.1875 C-7.14752135 8.12913109 -6.22788061 5.65641796 -5.4375 2.3125 C-3.4375 0.3125 -3.4375 0.3125 0 0 Z " fill="#38C3FB" transform="translate(96.4375,67.6875)"/>
<path d="M0 0 C3.5625 0.25 3.5625 0.25 6.5625 2.25 C6.92578125 4.125 6.92578125 4.125 6.875 6.25 C6.87113281 6.95125 6.86726562 7.6525 6.86328125 8.375 C6.5625 10.25 6.5625 10.25 4.5625 12.25 C0.6454837 12.68522403 -1.58991649 12.80092928 -4.9375 10.625 C-6.4375 8.25 -6.4375 8.25 -6.3125 5.125 C-5.04901248 0.97354099 -4.37875718 0.31845507 0 0 Z " fill="#37C3FD" transform="translate(141.4375,292.75)"/>
<path d="M0 0 C0.33 0 0.66 0 1 0 C1.08139142 2.39652528 1.14067009 4.79025436 1.1875 7.1875 C1.21263672 7.86103516 1.23777344 8.53457031 1.26367188 9.22851562 C1.32923345 13.70855667 0.77604854 16.46037634 -2 20 C-2.99 20.66 -3.98 21.32 -5 22 C-5 21.34 -5 20.68 -5 20 C-5.556875 20.33 -6.11375 20.66 -6.6875 21 C-9.30284522 22.1309601 -11.1806646 22.15662974 -14 22 C-14 22.66 -14 23.32 -14 24 C-16.31 24.66 -18.62 25.32 -21 26 C-21 25.01 -21 24.02 -21 23 C-24.91063224 21.52952664 -24.91063224 21.52952664 -29 21 C-31.1875 19.25 -31.1875 19.25 -33 17 C-32.75 14.75 -32.75 14.75 -32 13 C-31.2575 13.78375 -30.515 14.5675 -29.75 15.375 C-24.91639266 19.98889791 -21.31087225 20.4475642 -14.76171875 20.31640625 C-10.52412254 19.83091079 -8.38360078 18.60819227 -5 16 C-3.10057876 13.50447863 -3.10057876 13.50447863 -2 11 C-1.67 10.34 -1.34 9.68 -1 9 C-0.77532169 7.46331135 -0.59203195 5.92031946 -0.4375 4.375 C-0.35371094 3.55773438 -0.26992188 2.74046875 -0.18359375 1.8984375 C-0.09271484 0.95871094 -0.09271484 0.95871094 0 0 Z " fill="#FCADB5" transform="translate(4997,1035)"/>
<path d="M0 0 C3.78802231 2.52534821 4.62479846 5.33007438 6.125 9.4375 C6.39070801 10.15381592 6.65641602 10.87013184 6.93017578 11.6081543 C9.7327629 19.51576982 10.09456191 26.98821886 9.9375 35.3125 C9.89090267 38.93810266 9.89090267 38.93810266 10.625 42.1875 C11.05846295 45.4384721 10.52554254 46.20317201 9 49 C8.66073053 51.33247761 8.32759934 53.66585471 8 56 C6.9375 58.9375 6.9375 58.9375 6 61 C5.67 61 5.34 61 5 61 C4.83579102 57.05898456 4.94636383 54.19800861 5.98828125 50.3515625 C7.20403263 45.67243399 7.34421774 41.19143175 7.3125 36.375 C7.30831055 35.50053223 7.30412109 34.62606445 7.29980469 33.72509766 C7.11791541 23.17358477 5.05280052 13.58011803 0.76953125 3.890625 C0 2 0 2 0 0 Z " fill="#FECBD1" transform="translate(5045,1004)"/>
<path d="M0 0 C1 2 1 2 0.25 5.5625 C-0.1625 6.696875 -0.575 7.83125 -1 9 C-1.99 9.33 -2.98 9.66 -4 10 C-4.7860106 12.68168324 -5.41782414 15.27676414 -6 18 C-6.36295165 19.33666334 -6.73697364 20.67039919 -7.125 22 C-7.41375 22.99 -7.7025 23.98 -8 25 C-8.66 25 -9.32 25 -10 25 C-10 36.88 -10 48.76 -10 61 C-10.33 61 -10.66 61 -11 61 C-16.6253 41.01009463 -12.1934849 21.8991985 -2.70703125 4.03515625 C-1 1 -1 1 0 0 Z " fill="#EF586F" transform="translate(4919,997)"/>
<path d="M0 0 C0.33 0.66 0.66 1.32 1 2 C1.66 2 2.32 2 3 2 C3.33 1.34 3.66 0.68 4 0 C3.97643433 0.89755005 3.97643433 0.89755005 3.95239258 1.81323242 C3.49318497 21.98930329 6.85971739 36.96426377 16 55 C14.68 54.67 13.36 54.34 12 54 C11.814375 53.071875 11.814375 53.071875 11.625 52.125 C11.12802644 49.80879168 11.12802644 49.80879168 9 48 C8.67 46.989375 8.34 45.97875 8 44.9375 C7.34247444 41.87849194 7.34247444 41.87849194 5 41 C4.4375 39.06640625 4.4375 39.06640625 4 36.5625 C3.2893833 32.54705247 3.2893833 32.54705247 2.39453125 28.5703125 C0.68341603 21.56507571 1.17364886 15.12448686 2 8 C1.34 8 0.68 8 0 8 C0 5.36 0 2.72 0 0 Z " fill="#FEBDC3" transform="translate(4903,1026)"/>
<path d="M0 0 C0.99 0.33 1.98 0.66 3 1 C2.5875 1.391875 2.175 1.78375 1.75 2.1875 C-7.3441183 11.60640824 -12.67965838 24.23812108 -15 37 C-15.33 37 -15.66 37 -16 37 C-16.21755666 31.5610835 -16.10428384 27.12919186 -14 22 C-13.34 22 -12.68 22 -12 22 C-12 21.34 -12 20.68 -12 20 C-12.66 19.67 -13.32 19.34 -14 19 C-13.34 18.34 -12.68 17.68 -12 17 C-11.40165446 15.47943382 -10.86493344 13.93387912 -10.375 12.375 C-9.98441406 11.14910156 -9.98441406 11.14910156 -9.5859375 9.8984375 C-9.39257812 9.27195312 -9.19921875 8.64546875 -9 8 C-7.35 7.67 -5.7 7.34 -4 7 C-3.896875 6.21625 -3.79375 5.4325 -3.6875 4.625 C-3 2 -3 2 0 0 Z " fill="#FDE1DF" transform="translate(4923,989)"/>
<path d="M0 0 C0.33 8.25 0.66 16.5 1 25 C1.66 25 2.32 25 3 25 C2.67 26.65 2.34 28.3 2 30 C-3.5686821 21.64697684 -3.4284501 10.69566697 -3 1 C-1 0 -1 0 0 0 Z " fill="#FEC1C9" transform="translate(4924,1031)"/>
<path d="M0 0 C1.45792884 -0.05399736 2.91642712 -0.09279177 4.375 -0.125 C5.18710937 -0.14820313 5.99921875 -0.17140625 6.8359375 -0.1953125 C9 0 9 0 11 2 C13.06874034 2.6425235 13.06874034 2.6425235 15 3 C15.19878036 6.57804656 15.04108797 8.99208089 13 12 C12.01 12.33 11.02 12.66 10 13 C10.02320313 12.37351563 10.04640625 11.74703125 10.0703125 11.1015625 C10.08835937 10.28429687 10.10640625 9.46703125 10.125 8.625 C10.15980469 7.40683594 10.15980469 7.40683594 10.1953125 6.1640625 C10.21370051 3.78657757 10.21370051 3.78657757 8 2 C5.04230823 1.49989476 5.04230823 1.49989476 2 2 C-0.38542151 4.14687936 -0.95335174 5.36247377 -1.1875 8.5625 C-1.125625 9.366875 -1.06375 10.17125 -1 11 C-1 11.99 -1 12.98 -1 14 C-1.99 13.34 -2.98 12.68 -4 12 C-4.40843923 9.28796348 -4.13336867 6.7562858 -4 4 C-2.68 3.34 -1.36 2.68 0 2 C0 1.34 0 0.68 0 0 Z " fill="#E6FBFD" transform="translate(47,201)"/>
<path d="M0 0 C2.96504411 3.45184239 4.95657849 6.67055342 6.6875 10.875 C7.10386719 11.86242187 7.52023437 12.84984375 7.94921875 13.8671875 C9.95832377 19.85715861 10.11804209 25.66124337 10.0625 31.9375 C10.05798828 32.62134766 10.05347656 33.30519531 10.04882812 34.00976562 C10.0371956 35.67321604 10.01926694 37.3366205 10 39 C5.73105473 32.5965821 6.85684426 23.47591094 7 16 C6.34 16 5.68 16 5 16 C4.49632243 14.54293274 3.99717444 13.08429904 3.5 11.625 C3.2215625 10.81289063 2.943125 10.00078125 2.65625 9.1640625 C2 7 2 7 2 5 C1.34 4.67 0.68 4.34 0 4 C0 2.68 0 1.36 0 0 Z " fill="#FEB0BD" transform="translate(5028,1007)"/>
<path d="M0 0 C1 3 1 3 0.06640625 5.56640625 C-4.07924697 13.82540889 -8.99196937 21.82108849 -16 28 C-16.66 28 -17.32 28 -18 28 C-18 27.01 -18 26.02 -18 25 C-16.68 24.67 -15.36 24.34 -14 24 C-13.95875 23.319375 -13.9175 22.63875 -13.875 21.9375 C-12.46888358 17.2169663 -9.04480606 13.86031228 -5.44140625 10.58203125 C-3.6735137 8.64166138 -2.8272722 6.726958 -1.8125 4.3125 C-1.46832031 3.50425781 -1.12414063 2.69601562 -0.76953125 1.86328125 C-0.51558594 1.24839844 -0.26164062 0.63351562 0 0 Z " fill="#FED2D8" transform="translate(5034,1056)"/>
<path d="M0 0 C2.91289646 0.08473881 3.77703881 0.15009119 6.125 2 C7.40702118 5.24778698 7.11793562 7.06796839 6.0625 10.375 C3.94834778 12.6401631 2.59093896 13.26931221 -0.4375 13.875 C-2.9375 13.375 -2.9375 13.375 -5.3125 11.25 C-6.9375 8.375 -6.9375 8.375 -6.8125 5.1875 C-5.44332839 0.78659125 -4.64918662 0.44277968 0 0 Z M-4.9375 3.375 C-5.27083333 6.375 -5.27083333 6.375 -4.9375 9.375 C-4.2775 10.035 -3.6175 10.695 -2.9375 11.375 C-1.9475 11.375 -0.9575 11.375 0.0625 11.375 C0.7225 10.055 1.3825 8.735 2.0625 7.375 C2.3925 8.035 2.7225 8.695 3.0625 9.375 C3.7225 9.375 4.3825 9.375 5.0625 9.375 C5.27220559 5.23406302 5.27220559 5.23406302 4.0625 1.375 C-0.9580829 0.87208619 -0.9580829 0.87208619 -4.9375 3.375 Z " fill="#5BC4EB" transform="translate(141.9375,67.625)"/>
<path d="M0 0 C3.5625 0.3125 3.5625 0.3125 5.5 1.4375 C7.09240283 4.24762264 7.01569325 6.14014724 6.5625 9.3125 C4.57927007 12.1037125 3.43263879 13.13847224 0.0625 13.8125 C-2.4375 13.3125 -2.4375 13.3125 -4.8125 11.75 C-6.4375 9.3125 -6.4375 9.3125 -6.3125 5.6875 C-5.14951423 1.20169775 -4.66151968 0.42377452 0 0 Z M-3.4375 2.3125 C-3.458125 3.611875 -3.47875 4.91125 -3.5 6.25 C-3.51160156 6.98089844 -3.52320313 7.71179688 -3.53515625 8.46484375 C-3.64311184 10.32982141 -3.64311184 10.32982141 -2.4375 11.3125 C-0.10452567 11.35342937 2.22955225 11.35491723 4.5625 11.3125 C5.49630961 6.78109347 5.49630961 6.78109347 4.5625 2.3125 C1.9225 2.3125 -0.7175 2.3125 -3.4375 2.3125 Z " fill="#54C2EC" transform="translate(186.4375,22.6875)"/>
<path d="M0 0 C2 1.5625 2 1.5625 3 4 C2.875 7.625 2.875 7.625 2 11 C-1 13 -1 13 -4.5625 12.8125 C-8 12 -8 12 -10 9 C-10.32162076 5.9124407 -10.48724515 3.85984439 -8.9375 1.125 C-5.85928089 -0.66235303 -3.47093932 -0.43386742 0 0 Z M-7 2 C-8.35439668 4.70879335 -8.06501451 7.00933268 -8 10 C-4.62182575 10.84454356 -2.32534757 11.10844919 1 10 C1.04241723 7.66705225 1.04092937 5.33297433 1 3 C-0.18424326 1.58422523 -0.18424326 1.58422523 -3.5625 1.9375 C-5.2640625 1.9684375 -5.2640625 1.9684375 -7 2 Z " fill="#53C0E6" transform="translate(168,315)"/>
<path d="M0 0 C3.375 0.875 3.375 0.875 5.375 2.875 C5.81022403 6.7920163 5.92592928 9.02741649 3.75 12.375 C1.375 13.875 1.375 13.875 -1.6875 13.875 C-5.04758858 12.73114006 -6.04964938 12.02570125 -7.625 8.875 C-8.20496839 5.5608949 -7.92009872 4.32355005 -6.0625 1.5 C-3.625 -0.125 -3.625 -0.125 0 0 Z M-2.625 0.875 C-3.285 2.195 -3.945 3.515 -4.625 4.875 C-5.285 4.875 -5.945 4.875 -6.625 4.875 C-6.625 5.865 -6.625 6.855 -6.625 7.875 C-5.965 7.875 -5.305 7.875 -4.625 7.875 C-4.625 8.865 -4.625 9.855 -4.625 10.875 C-1.985 10.875 0.655 10.875 3.375 10.875 C3.375 8.235 3.375 5.595 3.375 2.875 C2.385 2.875 1.395 2.875 0.375 2.875 C0.375 2.215 0.375 1.555 0.375 0.875 C-0.615 0.875 -1.605 0.875 -2.625 0.875 Z " fill="#5BC5EB" transform="translate(187.625,292.125)"/>
<path d="M0 0 C1.670625 0.061875 1.670625 0.061875 3.375 0.125 C3.375 0.455 3.375 0.785 3.375 1.125 C1.951875 1.2178125 1.951875 1.2178125 0.5 1.3125 C-1.046875 1.7146875 -1.046875 1.7146875 -2.625 2.125 C-4.07791273 4.58755685 -4.07791273 4.58755685 -4.625 7.125 C-3.305 7.125 -1.985 7.125 -0.625 7.125 C-0.625 8.115 -0.625 9.105 -0.625 10.125 C1.025 9.795 2.675 9.465 4.375 9.125 C4.375 6.815 4.375 4.505 4.375 2.125 C5.035 2.455 5.695 2.785 6.375 3.125 C6.6875 6.4375 6.6875 6.4375 6.375 10.125 C4.1875 12.125 4.1875 12.125 1.375 13.125 C-1.45528135 12.9902247 -3.08400646 12.44959612 -5.5 11 C-7.33502135 7.94163109 -6.41538061 5.46891796 -5.625 2.125 C-3.625 0.125 -3.625 0.125 0 0 Z " fill="#5CC1E6" transform="translate(96.625,67.875)"/>
<path d="M0 0 C1 1 1 1 1.125 3.9375 C1 7 1 7 0 9 C-1.99954746 9.04254356 -4.00041636 9.04080783 -6 9 C-7 8 -7 8 -7.0625 4.4375 C-7.041875 3.303125 -7.02125 2.16875 -7 1 C-4.51588385 -0.24205807 -2.74800896 -0.14092354 0 0 Z " fill="#36C1FC" transform="translate(212,272)"/>
<path d="M0 0 C3.0625 0.5 3.0625 0.5 5.5 2.0625 C7.0625 4.5 7.0625 4.5 6.9375 8.125 C6.0625 11.5 6.0625 11.5 4.0625 13.5 C0.11091529 13.84361606 -2.54285554 13.58901197 -5.9375 11.5 C-6.29647436 5.27777778 -6.29647436 5.27777778 -4.8125 2.0625 C-2.9375 0.5 -2.9375 0.5 0 0 Z M-2.9375 2.5 C-4.15440533 4.26529595 -4.15440533 4.26529595 -4.9375 6.5 C-4.58856834 8.78164024 -4.58856834 8.78164024 -2.9375 10.5 C0.12158413 11.31584568 0.12158413 11.31584568 3.0625 11.5 C3.3925 10.51 3.7225 9.52 4.0625 8.5 C4.7225 8.5 5.3825 8.5 6.0625 8.5 C5.68345792 5.20924004 5.68345792 5.20924004 4.0625 2.5 C1.72952567 2.45907063 -0.60455225 2.45758277 -2.9375 2.5 Z " fill="#5EC0E7" transform="translate(208.9375,134.5)"/>
<path d="M0 0 C1.670625 0.061875 1.670625 0.061875 3.375 0.125 C2.446875 1.4553125 2.446875 1.4553125 1.5 2.8125 C-0.27897741 5.58561184 -1.53583602 8.0390354 -2.625 11.125 C-0.315 11.125 1.995 11.125 4.375 11.125 C3.715 11.785 3.055 12.445 2.375 13.125 C-1.02496774 12.98032052 -2.96845213 12.69683202 -5.5625 10.4375 C-7.01050221 7.28596578 -6.554926 5.41550737 -5.625 2.125 C-3.625 0.125 -3.625 0.125 0 0 Z " fill="#4EC2F0" transform="translate(231.625,67.875)"/>
<path d="M0 0 C3.11199723 1.16699896 4.5828226 2.20920909 6.5 4.9375 C6.5625 8 6.5625 8 5.5 10.9375 C2.86082523 13.21012272 1.36291917 13.9375 -2.125 13.9375 C-5.36910604 12.57156062 -6.17963999 11.1650467 -7.5 7.9375 C-7.42307328 4.70657772 -6.95666636 3.42678539 -4.75 1.0625 C-2.5 -0.0625 -2.5 -0.0625 0 0 Z M-4.5 2.9375 C-4.80523962 7.58838715 -4.80523962 7.58838715 -3.5 11.9375 C-0.58347826 12.10431109 -0.58347826 12.10431109 2.5 11.9375 C3.16 11.2775 3.82 10.6175 4.5 9.9375 C4.40304884 5.59555064 4.40304884 5.59555064 2.5 1.9375 C-1.30240375 1.46013947 -1.30240375 1.46013947 -4.5 2.9375 Z " fill="#61C8EA" transform="translate(277.5,202.0625)"/>
<path d="M0 0 C0.66 0.33 1.32 0.66 2 1 C-2.75534719 5.50831617 -6.83295653 8.74665719 -13 11 C-13.66 11.391875 -14.32 11.78375 -15 12.1875 C-17.99077231 13.40250125 -20.81426544 13.12252825 -24 13 C-24 12.34 -24 11.68 -24 11 C-23.10539062 10.70867187 -22.21078125 10.41734375 -21.2890625 10.1171875 C-14.24652459 7.72963201 -8.11236886 5.22122807 -1.890625 1.0390625 C-1.26671875 0.69617187 -0.6428125 0.35328125 0 0 Z " fill="#FEB9BF" transform="translate(5021,1099)"/>
<path d="M0 0 C1.875 1.0625 1.875 1.0625 3 3 C3.1875 6.6875 3.1875 6.6875 3 10 C2.67 10 2.34 10 2 10 C2 8.02 2 6.04 2 4 C-0.64 3.67 -3.28 3.34 -6 3 C-6.38063221 5.3260857 -6.71269945 7.66055264 -7 10 C-6.01732141 11.20561184 -6.01732141 11.20561184 -4.15234375 11.09765625 C-2.1015625 11.06510417 -0.05078125 11.03255208 2 11 C0.26107595 13.19653565 -0.63751034 13.93493775 -3.4375 14.4375 C-6 14 -6 14 -8.375 12.4375 C-10 10 -10 10 -9.9375 6.4375 C-8.30124321 0.43789176 -6.23944244 -0.77993031 0 0 Z " fill="#66C8EC" transform="translate(55,202)"/>
<path d="M0 0 C2.31282587 3.46923881 2.42478586 4.92205575 2 9 C0.9375 10.875 0.9375 10.875 -1 12 C-4.4093712 12.36528977 -6.88023824 12.6140629 -9.9375 10.9375 C-11.63335287 7.84506242 -11.43060657 5.44485259 -11 2 C-7.88980721 -1.98104677 -4.56233816 -1.18282841 0 0 Z M-8 1 C-8 1.66 -8 2.32 -8 3 C-8.66 3 -9.32 3 -10 3 C-10 4.98 -10 6.96 -10 9 C-7.26094655 10.36952673 -5.02912668 10.12621361 -2 10 C-1.34 9.67 -0.68 9.34 0 9 C0 6.69 0 4.38 0 2 C-2.64 1.67 -5.28 1.34 -8 1 Z " fill="#56BFE7" transform="translate(259,91)"/>
<path d="M0 0 C2.4375 1.5625 2.4375 1.5625 4 4 C3.9375 7.625 3.9375 7.625 3 11 C-0.22791555 13.1519437 -1.28400809 13.20086443 -5 13 C-5.33 12.34 -5.66 11.68 -6 11 C-3.69 11 -1.38 11 1 11 C1.33 8.36 1.66 5.72 2 3 C-2.455 3.495 -2.455 3.495 -7 4 C-7 5.98 -7 7.96 -7 10 C-7.66 9.67 -8.32 9.34 -9 9 C-9.36 3.6 -9.36 3.6 -7.875 1.125 C-5.07553259 -0.55468045 -3.20195936 -0.45742277 0 0 Z " fill="#4BC2E7" transform="translate(167,270)"/>
<path d="M0 0 C2.4375 1.5625 2.4375 1.5625 4 4 C3.78571429 10.21428571 3.78571429 10.21428571 1 13 C-5.00458716 13.54587156 -5.00458716 13.54587156 -7.9375 11.9375 C-9.6140629 8.88023824 -9.36528977 6.4093712 -9 3 C-6.84532543 -0.71082843 -4.00794956 -0.57256422 0 0 Z M-5 1 C-5.33 1.99 -5.66 2.98 -6 4 C-6.66 4 -7.32 4 -8 4 C-8 5.65 -8 7.3 -8 9 C-7.34 9 -6.68 9 -6 9 C-6 9.66 -6 10.32 -6 11 C-4.02 11 -2.04 11 0 11 C0 10.34 0 9.68 0 9 C0.66 9 1.32 9 2 9 C2 7.02 2 5.04 2 3 C1.01 3 0.02 3 -1 3 C-1 2.34 -1 1.68 -1 1 C-2.32 1 -3.64 1 -5 1 Z " fill="#5FC0E2" transform="translate(257,180)"/>
<path d="M0 0 C2 3 2 3 1.8125 6.5625 C1 10 1 10 -2 12 C-4.6875 12.125 -4.6875 12.125 -7 12 C-7 11.34 -7 10.68 -7 10 C-5.02 10 -3.04 10 -1 10 C-1 9.01 -1 8.02 -1 7 C-0.34 7 0.32 7 1 7 C0.67 5.35 0.34 3.7 0 2 C-1.11375 2.165 -2.2275 2.33 -3.375 2.5 C-7 3 -7 3 -9 3 C-9.33 4.98 -9.66 6.96 -10 9 C-10.33 9 -10.66 9 -11 9 C-11.48176187 2.6166552 -11.48176187 2.6166552 -9.4375 0 C-5.94857191 -1.43135511 -3.60244028 -0.933966 0 0 Z " fill="#52BFE9" transform="translate(34,181)"/>
<path d="M0 0 C2 2.1875 2 2.1875 3 5 C2.375 8.25 2.375 8.25 1 11 C0.01 11.33 -0.98 11.66 -2 12 C-2 11.34 -2 10.68 -2 10 C-1.34 10 -0.68 10 0 10 C0 7.36 0 4.72 0 2 C-2.38564077 2.57584432 -4.66682784 3.22227595 -7 4 C-7.59732819 6.76264289 -8 9.16032769 -8 12 C-9.5625 10.375 -9.5625 10.375 -11 8 C-10.92897215 4.5196355 -10.61415498 2.70514091 -8.3125 0.0625 C-5.07205253 -1.42635424 -3.35094158 -1.14074607 0 0 Z " fill="#57C4EB" transform="translate(191,113)"/>
<path d="M0 0 C3.5625 0.25 3.5625 0.25 6.5625 2.25 C6.92578125 4.125 6.92578125 4.125 6.875 6.25 C6.87113281 6.95125 6.86726562 7.6525 6.86328125 8.375 C6.5625 10.25 6.5625 10.25 4.5625 12.25 C0.6454837 12.68522403 -1.58991649 12.80092928 -4.9375 10.625 C-6.4375 8.25 -6.4375 8.25 -6.3125 5.125 C-5.04901248 0.97354099 -4.37875718 0.31845507 0 0 Z M-4.4375 2.25 C-4.60431109 5.16652174 -4.60431109 5.16652174 -4.4375 8.25 C-2.53994856 10.59973818 -2.53994856 10.59973818 0.6875 10.375 C1.63625 10.33375 2.585 10.2925 3.5625 10.25 C3.5625 9.59 3.5625 8.93 3.5625 8.25 C4.2225 8.25 4.8825 8.25 5.5625 8.25 C5.81280977 5.83380177 5.81280977 5.83380177 5.5625 3.25 C1.750531 0.70868733 -0.22935016 1.08913108 -4.4375 2.25 Z " fill="#53C0E9" transform="translate(141.4375,292.75)"/>
<path d="M0 0 C0 0.66 0 1.32 0 2 C-0.99 2.66 -1.98 3.32 -3 4 C-3.25030977 6.58380177 -3.25030977 6.58380177 -3 9 C0.153368 9.70074844 2.72724974 10 6 10 C5.2575 8.3603125 5.2575 8.3603125 4.5 6.6875 C3 3 3 3 3 0 C4.9375 0.5625 4.9375 0.5625 7 2 C8 5.375 8 5.375 8 9 C6.5 11.5 6.5 11.5 4 13 C-2.21428571 12.78571429 -2.21428571 12.78571429 -5 10 C-5.56410256 3.79487179 -5.56410256 3.79487179 -3.625 1.0625 C-2 0 -2 0 0 0 Z " fill="#55C0EE" transform="translate(163,180)"/>
<path d="M0 0 C0.66 0.33 1.32 0.66 2 1 C1.34 1.66 0.68 2.32 0 3 C-0.16681109 6.08347826 -0.16681109 6.08347826 0 9 C2.64 9.33 5.28 9.66 8 10 C8 7.03 8 4.06 8 1 C8.99 1.99 9.98 2.98 11 4 C10.9276293 7.4737938 10.64541231 9.30848681 8.25 11.875 C5.50272993 13.24863504 4.03212094 13.53062116 1 13 C-1.3125 11.375 -1.3125 11.375 -3 9 C-3.4375 5.9375 -3.4375 5.9375 -3 3 C-1.5 1.125 -1.5 1.125 0 0 Z " fill="#66C7E8" transform="translate(93,203)"/>
<path d="M0 0 C2 2 2 2 2.375 5.9375 C2.29486433 8.88115036 2.26281734 9.68851278 0.3125 12 C-2.4593226 13.19862599 -4.01380309 13.52258446 -7 13 C-9.3125 11.375 -9.3125 11.375 -11 9 C-11.44912849 5.85610056 -11.504106 3.94519875 -10 1.125 C-6.66094446 -0.75321874 -3.79001126 -0.30079454 0 0 Z M-9 3 C-8.91256309 6.52894948 -8.91256309 6.52894948 -8 10 C-6.515 10.99 -6.515 10.99 -5 12 C-2.32854463 11.19838209 -2.32854463 11.19838209 0 10 C0.020625 8.700625 0.04125 7.40125 0.0625 6.0625 C0.07410156 5.33160156 0.08570313 4.60070312 0.09765625 3.84765625 C0.20561184 1.98267859 0.20561184 1.98267859 -1 1 C-5.49885769 0.53277305 -5.49885769 0.53277305 -9 3 Z " fill="#56C0E7" transform="translate(191,158)"/>
<path d="M0 0 C2.3125 1 2.3125 1 4 3 C4.57198503 5.77326075 4.56516801 8.22606314 4 11 C2.375 13.0625 2.375 13.0625 0 14 C-3.44266385 13.92974155 -5.28353249 13.60090824 -7.9375 11.375 C-9.48100034 7.92482276 -8.93333407 5.60000284 -8 2 C-4.74236778 -0.17175481 -3.77560787 -0.46043998 0 0 Z M-7 3 C-7.16677282 6.41656024 -7.16677282 6.41656024 -7 10 C-5.11499729 12.31563087 -5.11499729 12.31563087 -2 12.25 C1.11499729 12.31563087 1.11499729 12.31563087 3 10 C3.16681109 6.91652174 3.16681109 6.91652174 3 4 C-1.93183136 1.76976483 -1.93183136 1.76976483 -7 3 Z " fill="#65C4EB" transform="translate(144,157)"/>
<path d="M0 0 C1.375 2.0625 1.375 2.0625 2 4 C1.34 4 0.68 4 0 4 C-0.33 3.34 -0.66 2.68 -1 2 C-2.98 2.66 -4.96 3.32 -7 4 C-7 6.31 -7 8.62 -7 11 C-5.35 11 -3.7 11 -2 11 C-2 11.66 -2 12.32 -2 13 C-4.25 13.3125 -4.25 13.3125 -7 13 C-9.375 10.875 -9.375 10.875 -11 8 C-11 4.45665039 -10.64741834 2.74333217 -8.3125 0.0625 C-5.11239737 -1.40781743 -3.31362543 -1.08053003 0 0 Z " fill="#5CC5E6" transform="translate(56,158)"/>
<path d="M0 0 C2.29492223 2.66507098 3.04299299 4.09714716 2.875 7.625 C1.90125807 10.2680138 1.36002096 11.45377937 -1 13 C-3.9375 13.5 -3.9375 13.5 -7 13 C-9.4375 10.875 -9.4375 10.875 -11 8 C-11 4.45665039 -10.64741834 2.74333217 -8.3125 0.0625 C-5.07205253 -1.42635424 -3.35094158 -1.14074607 0 0 Z M-9 2 C-9.38514787 6.70353479 -9.38514787 6.70353479 -7.8125 11 C-5.94787302 12.25768528 -5.94787302 12.25768528 -3.3125 11.6875 C-2.549375 11.460625 -1.78625 11.23375 -1 11 C-1 10.34 -1 9.68 -1 9 C-0.34 9 0.32 9 1 9 C1.2502157 6.08365871 1.2502157 6.08365871 1 3 C-2.54442593 0.63704938 -5.10215986 0.05107993 -9 2 Z " fill="#6AC7EB" transform="translate(236,158)"/>
<path d="M0 0 C2.75 1.3125 2.75 1.3125 3.75 3.3125 C3.9375 6.8125 3.9375 6.8125 3.75 10.3125 C1.75 12.3125 1.75 12.3125 -2.1875 12.6875 C-5.10039646 12.60276119 -5.96453881 12.53740881 -8.3125 10.6875 C-9.60687583 7.40841455 -9.38203164 5.63784294 -8.25 2.3125 C-5.22264012 -0.45537189 -4.04423612 -0.85551149 0 0 Z M-7.25 3.3125 C-6.92673447 6.90929066 -6.92673447 6.90929066 -6.25 10.3125 C-3.28 10.8075 -3.28 10.8075 -0.25 11.3125 C-0.25 10.6525 -0.25 9.9925 -0.25 9.3125 C0.41 9.3125 1.07 9.3125 1.75 9.3125 C2.54953138 6.02553767 2.84658936 4.60226808 1.75 1.3125 C-3.2705829 0.80958619 -3.2705829 0.80958619 -7.25 3.3125 Z " fill="#5AC1ED" transform="translate(189.25,247.6875)"/>
<path d="M0 0 C0.33 0.99 0.66 1.98 1 3 C-0.27875 2.95875 -1.5575 2.9175 -2.875 2.875 C-5.01871492 2.75787127 -5.01871492 2.75787127 -7 3 C-9.3721969 4.94458314 -9.3721969 4.94458314 -9.3125 8.5 C-9.209375 9.655 -9.10625 10.81 -9 12 C-5.71805371 14.1879642 -4.77524063 14.18876203 -1 14 C-0.01 14 0.98 14 2 14 C1.67 14.66 1.34 15.32 1 16 C-6.07858428 16.47990402 -6.07858428 16.47990402 -10 14.4375 C-12 12 -12 12 -12.625 8.5625 C-11.31435633 1.09183108 -7.15031965 -0.70101173 0 0 Z " fill="#D3FAFF" transform="translate(123,223)"/>
<path d="M0 0 C3.375 1 3.375 1 5.375 4 C5.71457563 8.07490752 5.68832486 9.53001271 3.375 13 C2.715 13 2.055 13 1.375 13 C1.375 12.01 1.375 11.02 1.375 10 C2.035 10 2.695 10 3.375 10 C3.375 7.69 3.375 5.38 3.375 3 C1.065 3 -1.245 3 -3.625 3 C-4.82488045 8.28199593 -4.82488045 8.28199593 -2.625 13 C-4.5625 12.375 -4.5625 12.375 -6.625 11 C-7.625 8.1875 -7.625 8.1875 -7.625 5 C-5.52593768 0.88933628 -4.68891387 0 0 0 Z " fill="#62C7EF" transform="translate(187.625,202)"/>
<path d="M0 0 C1.9375 1.125 1.9375 1.125 3 3 C2.66666667 9.33333333 2.66666667 9.33333333 0 12 C-6.00458716 12.54587156 -6.00458716 12.54587156 -8.9375 10.9375 C-10.63335287 7.84506242 -10.43060657 5.44485259 -10 2 C-7.00946104 -1.68066334 -4.3259629 -1.28858469 0 0 Z M-7 1 C-7 1.66 -7 2.32 -7 3 C-7.66 3 -8.32 3 -9 3 C-9.20086443 6.71599191 -9.1519437 7.77208445 -7 11 C-3.27698497 11.47730962 -2.20808915 11.1387261 1 9 C1.41666667 6 1.41666667 6 1 3 C-0.89755144 0.65026182 -0.89755144 0.65026182 -4.125 0.875 C-5.07375 0.91625 -6.0225 0.9575 -7 1 Z " fill="#55C2E1" transform="translate(168,46)"/>
<path d="M0 0 C0.99 0.66 1.98 1.32 3 2 C3 2.66 3 3.32 3 4 C2.34 4 1.68 4 1 4 C1 3.34 1 2.68 1 2 C-1.31 2.33 -3.62 2.66 -6 3 C-6.07427838 6.34252724 -6.06546953 8.8035914 -5 12 C-3.35 12 -1.7 12 0 12 C0 11.34 0 10.68 0 10 C0.99 9.67 1.98 9.34 3 9 C2.34 10.32 1.68 11.64 1 13 C-5.34507042 13.35915493 -5.34507042 13.35915493 -7.9375 11.9375 C-9.6140629 8.88023824 -9.36528977 6.4093712 -9 3 C-6.83464775 -0.72921777 -4.01926187 -0.41867311 0 0 Z " fill="#58C0E6" transform="translate(302,135)"/>
<path d="M0 0 C2.375 1.6875 2.375 1.6875 4 4 C4.25 6.75 4.25 6.75 4 9 C3.67 7.68 3.34 6.36 3 5 C1.35 5.66 -0.3 6.32 -2 7 C-2.33 6.01 -2.66 5.02 -3 4 C-2.67 3.34 -2.34 2.68 -2 2 C-3.65 2.66 -5.3 3.32 -7 4 C-7 6.31 -7 8.62 -7 11 C-7.66 10.67 -8.32 10.34 -9 10 C-9.36103152 3.6217765 -9.36103152 3.6217765 -7.875 1.0625 C-5.06487736 -0.52990283 -3.17235276 -0.45319325 0 0 Z " fill="#55C2E8" transform="translate(257,135)"/>
<path d="M0 0 C0.33 0.66 0.66 1.32 1 2 C-0.98 2.66 -2.96 3.32 -5 4 C-5.33 6.31 -5.66 8.62 -6 11 C-3.36 11 -0.72 11 2 11 C1.67 11.66 1.34 12.32 1 13 C-5.34507042 13.35915493 -5.34507042 13.35915493 -7.9375 11.9375 C-9.63335287 8.84506242 -9.43060657 6.44485259 -9 3 C-6.29148704 -0.10977414 -4.00164289 -0.33347024 0 0 Z " fill="#54C1E6" transform="translate(212,45)"/>
<path d="M0 0 C2.375 1.125 2.375 1.125 4 3 C4.4375 6 4.4375 6 4 9 C3.01 9.99 2.02 10.98 1 12 C1 9.03 1 6.06 1 3 C-2.34252724 2.92572162 -4.8035914 2.93453047 -8 4 C-8 5.32 -8 6.64 -8 8 C-7.34 8 -6.68 8 -6 8 C-5.67 9.32 -5.34 10.64 -5 12 C-5.99 11.67 -6.98 11.34 -8 11 C-9.39935013 8.20129973 -9.25265405 6.09501208 -9 3 C-6.78557651 -0.69070582 -4.02540619 -0.49290688 0 0 Z " fill="#56C1E9" transform="translate(167,225)"/>
<path d="M0 0 C0.66 0 1.32 0 2 0 C2 0.66 2 1.32 2 2 C3.65 2 5.3 2 7 2 C7.625 3.875 7.625 3.875 8 6 C6 8 6 8 2.875 8.125 C1.451875 8.063125 1.451875 8.063125 0 8 C-0.98120464 4.94736336 -0.98120464 3.05263664 0 0 Z " fill="#32C5FA" transform="translate(274,116)"/>
<path d="M0 0 C2.8125 0.875 2.8125 0.875 4.8125 2.875 C4.9375 6.5 4.9375 6.5 4.8125 9.875 C4.4825 9.875 4.1525 9.875 3.8125 9.875 C3.1525 7.565 2.4925 5.255 1.8125 2.875 C-0.1675 2.875 -2.1475 2.875 -4.1875 2.875 C-4.5175 5.185 -4.8475 7.495 -5.1875 9.875 C-2.5475 10.535 0.0925 11.195 2.8125 11.875 C2.8125 12.205 2.8125 12.535 2.8125 12.875 C-4.61059859 13.36176056 -4.61059859 13.36176056 -7.1875 11.1875 C-8.39907109 8.38574186 -8.79012465 6.88812323 -8.1875 3.875 C-5.4432202 0.80786375 -4.16206734 -0.16321833 0 0 Z " fill="#60C3E8" transform="translate(98.1875,157.125)"/>
<path d="M0 0 C1.875 1.5 1.875 1.5 3 3 C1.906875 2.979375 0.81375 2.95875 -0.3125 2.9375 C-3.94384191 2.81455548 -3.94384191 2.81455548 -7 4 C-6.67 6.31 -6.34 8.62 -6 11 C-3.69 11.33 -1.38 11.66 1 12 C1 12.33 1 12.66 1 13 C-5.34507042 13.35915493 -5.34507042 13.35915493 -7.9375 11.9375 C-9.6140629 8.88023824 -9.36528977 6.4093712 -9 3 C-6.84332735 -0.71426957 -4.0099826 -0.50124783 0 0 Z " fill="#56BFE9" transform="translate(122,135)"/>
<path d="M0 0 C2.97 0.99 5.94 1.98 9 3 C9 3.66 9 4.32 9 5 C9.7425 5.226875 10.485 5.45375 11.25 5.6875 C14.54966517 7.2623402 15.85978051 9.07503336 18 12 C18.98230498 13.0173873 19.97469597 14.02596117 21 15 C20.67 15.66 20.34 16.32 20 17 C19.61070313 16.57589844 19.22140625 16.15179687 18.8203125 15.71484375 C14.65700484 11.35008572 10.25531402 7.91502236 5.234375 4.578125 C3 3 3 3 0 0 Z " fill="#FEDBDC" transform="translate(5015,974)"/>
<path d="M0 0 C3.4272611 2.47929527 4.81303325 3.85482869 5.5 8.0625 C4.96248682 11.22038995 4.14978703 12.67106405 2 15 C0.68 14.67 -0.64 14.34 -2 14 C-1.01 13.67 -0.02 13.34 1 13 C2.4783226 10.04335481 2.06032783 7.25770263 2 4 C-0.43355879 2.46775928 -1.65721564 1.96655762 -4.5625 2.25 C-7.22069209 2.94095053 -7.22069209 2.94095053 -10 5 C-9.625 3.0625 -9.625 3.0625 -9 1 C-5.86128812 -0.56935594 -3.46144178 -0.35201103 0 0 Z " fill="#D7F9FE" transform="translate(280,111)"/>
<path d="M0 0 C0 0.33 0 0.66 0 1 C-1.65 1 -3.3 1 -5 1 C-5.33 3.97 -5.66 6.94 -6 10 C-3.03 10 -0.06 10 3 10 C2.01 10.99 1.02 11.98 0 13 C-6.33333333 12.66666667 -6.33333333 12.66666667 -9 10 C-9.55021834 3.94759825 -9.55021834 3.94759825 -7.875 1.0625 C-5.214973 -0.44484863 -2.99793795 -0.19986253 0 0 Z " fill="#57BCE6" transform="translate(212,180)"/>
<path d="M0 0 C0.33 0 0.66 0 1 0 C1.08139142 2.39652528 1.14067009 4.79025436 1.1875 7.1875 C1.21263672 7.86103516 1.23777344 8.53457031 1.26367188 9.22851562 C1.32923345 13.70855667 0.77604854 16.46037634 -2 20 C-2.99 20.66 -3.98 21.32 -5 22 C-4.51311151 18.88391365 -3.68989196 16.15217552 -2.5 13.25 C-0.79677328 8.89638635 -0.31148553 4.64006038 0 0 Z " fill="#FDCCCE" transform="translate(4997,1035)"/>
<path d="M0 0 C3.0625 0.5 3.0625 0.5 5.4375 2.1875 C7.33508004 4.88790237 7.42132213 6.27060081 7.0625 9.5 C6.77375 8.88125 6.485 8.2625 6.1875 7.625 C5.12529958 5.36674235 5.12529958 5.36674235 3.0625 3.5 C-0.02097826 3.33318891 -0.02097826 3.33318891 -2.9375 3.5 C-3.2675 5.81 -3.5975 8.12 -3.9375 10.5 C-3.2775 10.83 -2.6175 11.16 -1.9375 11.5 C-2.9275 11.5 -3.9175 11.5 -4.9375 11.5 C-5.9375 10.5 -5.9375 10.5 -6.1875 7.6875 C-5.81556153 2.94528448 -4.84645935 0.82492925 0 0 Z " fill="#5BC0EA" transform="translate(28.9375,134.5)"/>
<path d="M0 0 C1.9375 1.5625 1.9375 1.5625 3 4 C2.6875 7.75 2.6875 7.75 2 11 C1.67 11 1.34 11 1 11 C1 8.36 1 5.72 1 3 C-1.64 2.67 -4.28 2.34 -7 2 C-7.66 4.64 -8.32 7.28 -9 10 C-9.33 10 -9.66 10 -10 10 C-10.32152515 6.46322336 -10.4131192 4.6037896 -8.375 1.625 C-5.30628876 -0.47464453 -3.64607289 -0.62060815 0 0 Z " fill="#5CC2EA" transform="translate(168,135)"/>
<path d="M0 0 C1.32 0.99 2.64 1.98 4 3 C3.25 9.75 3.25 9.75 1 12 C-2.5 12.3125 -2.5 12.3125 -6 12 C-6.66 11.01 -7.32 10.02 -8 9 C-6.6078125 9.2784375 -6.6078125 9.2784375 -5.1875 9.5625 C-1.98656229 10.24123881 -1.98656229 10.24123881 1 9 C0.835 7.88625 0.67 6.7725 0.5 5.625 C0 2 0 2 0 0 Z " fill="#4FBFE7" transform="translate(212,91)"/>
<path d="M0 0 C1.32 0 2.64 0 4 0 C5.26237731 2.52475462 5.09856404 4.31200466 5.0625 7.125 C5.05347656 8.03507813 5.04445312 8.94515625 5.03515625 9.8828125 C5.02355469 10.58148438 5.01195312 11.28015625 5 12 C-0.27358491 15.06603774 -0.27358491 15.06603774 -3.75 14.75 C-6 14 -6 14 -8 13 C-7.67 12.34 -7.34 11.68 -7 11 C-5.906875 11.226875 -4.81375 11.45375 -3.6875 11.6875 C-0.18032354 12.3073053 -0.18032354 12.3073053 2 11 C3.58910182 7.82179635 2.7953556 5.364966 2 2 C1.34 1.34 0.68 0.68 0 0 Z " fill="#D9FBFE" transform="translate(212,180)"/>
<path d="M0 0 C0.33 0.66 0.66 1.32 1 2 C1.66 2 2.32 2 3 2 C3.33 1.34 3.66 0.68 4 0 C3.67 6.6 3.34 13.2 3 20 C2.34 20.33 1.68 20.66 1 21 C1.33 16.71 1.66 12.42 2 8 C1.34 8 0.68 8 0 8 C0 5.36 0 2.72 0 0 Z " fill="#FED7DC" transform="translate(4903,1026)"/>
<path d="M0 0 C2.375 0.1875 2.375 0.1875 5 1 C6.3125 3.5625 6.3125 3.5625 7 6 C5.68 5.67 4.36 5.34 3 5 C2.67 5.99 2.34 6.98 2 8 C1.67 6.68 1.34 5.36 1 4 C-0.32 4.99 -1.64 5.98 -3 7 C-2.38722388 4.03824877 -1.74627478 2.61941217 0 0 Z " fill="#43C2F5" transform="translate(95,202)"/>
<path d="M0 0 C0.66 0.33 1.32 0.66 2 1 C1.505 1.37125 1.01 1.7425 0.5 2.125 C-1.59755514 4.74694393 -1.21743835 6.73842472 -1 10 C1.64 10.33 4.28 10.66 7 11 C7 10.34 7 9.68 7 9 C7.66 9 8.32 9 9 9 C8 12 8 12 6 13 C0.78346028 13.44396083 0.78346028 13.44396083 -1.875 11.9375 C-3.64273274 8.8930714 -3.36823916 6.4368988 -3 3 C-1.5 1.0625 -1.5 1.0625 0 0 Z " fill="#59C2E5" transform="translate(296,180)"/>
<path d="M0 0 C0.66 0 1.32 0 2 0 C2.08131463 1.43655854 2.13933559 2.8744483 2.1875 4.3125 C2.22230469 5.11300781 2.25710937 5.91351563 2.29296875 6.73828125 C1.93312505 9.51627459 1.16758647 10.29427215 -1 12 C-3.70879335 13.35439668 -6.00933268 13.06501451 -9 13 C-9.66 11.68 -10.32 10.36 -11 9 C-9.741875 9.226875 -8.48375 9.45375 -7.1875 9.6875 C-3.97683678 10.10047103 -3.97683678 10.10047103 -1 9 C0.49912601 6.00174798 0.186287 3.29107031 0 0 Z " fill="#DEFCFF" transform="translate(215,272)"/>
<path d="M0 0 C0.33 0 0.66 0 1 0 C1 2.31 1 4.62 1 7 C0.34 7 -0.32 7 -1 7 C-1 8.32 -1 9.64 -1 11 C-2.32 11 -3.64 11 -5 11 C-5.66 9.68 -6.32 8.36 -7 7 C-4.8614515 4.8614515 -3.86724686 4.57344937 -1 4 C-0.67 2.68 -0.34 1.36 0 0 Z " fill="#40C2FB" transform="translate(190,205)"/>
<path d="M0 0 C0.33 0.66 0.66 1.32 1 2 C1.99 1.67 2.98 1.34 4 1 C3.67 2.65 3.34 4.3 3 6 C5.97 6 8.94 6 12 6 C9 9 9 9 6.5625 9.5 C4 9 4 9 1.6875 6.75 C0 4 0 4 0 0 Z " fill="#54C6EE" transform="translate(180,72)"/>
<path d="M0 0 C2.61841871 2.61841871 2.81850937 4.71587765 3.625 8.3125 C3.88539062 9.44300781 4.14578125 10.57351563 4.4140625 11.73828125 C4.9267439 14.59220771 5.11914675 17.11339907 5 20 C1.43090614 16.43090614 0.1752321 11.37457376 -0.19140625 6.40625 C-0.18802592 4.26988308 -0.10161674 2.13395152 0 0 Z " fill="#FEC6CC" transform="translate(4905,1046)"/>
<path d="M0 0 C0.66 0 1.32 0 2 0 C2.61770762 8.18462594 2.61770762 8.18462594 0.4375 11.0625 C-2.8703369 12.33474496 -5.48624741 12.31943205 -9 12 C-9.99 11.34 -10.98 10.68 -12 10 C-12.1875 7.375 -12.1875 7.375 -12 5 C-10.948125 6.2684375 -10.948125 6.2684375 -9.875 7.5625 C-7.21485105 10.36243122 -7.21485105 10.36243122 -3.75 9.9375 C-0.86381294 9.31285945 -0.86381294 9.31285945 0 7 C0.04022391 4.6670134 0.04320247 2.33293334 0 0 Z " fill="#D1F9FE" transform="translate(192,205)"/>
<path d="M0 0 C0.99 0 1.98 0 3 0 C3 1.32 3 2.64 3 4 C3.66 4 4.32 4 5 4 C4.51487414 10.42791762 4.51487414 10.42791762 2.3125 12.875 C-0.44784782 14.21787191 -2.96182759 14.65475314 -6 15 C-6.33 14.34 -6.66 13.68 -7 13 C-5.329375 12.5978125 -5.329375 12.5978125 -3.625 12.1875 C0.21840951 11.34190981 0.21840951 11.34190981 2 8 C1.69814573 5.04182816 1.33281171 2.66562342 0 0 Z " fill="#E4FCFE" transform="translate(236,158)"/>
<path d="M0 0 C-0.33 0.99 -0.66 1.98 -1 3 C-2.27875 2.95875 -3.5575 2.9175 -4.875 2.875 C-7.01871492 2.75787127 -7.01871492 2.75787127 -9 3 C-11.37198957 4.93602047 -11.37198957 4.93602047 -11.25 8.4375 C-11.28809647 12.10420618 -11.28809647 12.10420618 -9 15 C-10.32 14.34 -11.64 13.68 -13 13 C-13.02712066 11.56260487 -13.04645067 10.12506137 -13.0625 8.6875 C-13.07410156 7.88699219 -13.08570313 7.08648437 -13.09765625 6.26171875 C-13 4 -13 4 -12 1 C-10.37512529 0.83211627 -8.75009558 0.66573213 -7.125 0.5 C-6.22007812 0.4071875 -5.31515625 0.314375 -4.3828125 0.21875 C-2 0 -2 0 0 0 Z " fill="#DFFBFE" transform="translate(260,133)"/>
<path d="M0 0 C2.44328447 3.6649267 2 5.69043086 2 10 C3.76136355 12.18331689 3.76136355 12.18331689 5.9453125 12.1953125 C8.97265625 12.09765625 8.97265625 12.09765625 12 12 C11.67 12.66 11.34 13.32 11 14 C3.77108434 14.48192771 3.77108434 14.48192771 0.5 12.4375 C-1.53366895 9.13278796 -1.3468602 6.81546222 -1 3 C-0.67 2.01 -0.34 1.02 0 0 Z " fill="#D5FBFE" transform="translate(112,90)"/>
<path d="M0 0 C1.32 0 2.64 0 4 0 C4 0.66 4 1.32 4 2 C4.99 2 5.98 2 7 2 C8.48320272 5.83887763 9.22419163 8.06204091 8 12 C6.85252535 10.37615858 5.7070709 8.75088944 4.5625 7.125 C3.92441406 6.22007812 3.28632813 5.31515625 2.62890625 4.3828125 C1 2 1 2 0 0 Z " fill="#FEDCE2" transform="translate(5036,992)"/>
<path d="M0 0 C2.64 0.33 5.28 0.66 8 1 C8 2.32 8 3.64 8 5 C9.32 5.33 10.64 5.66 12 6 C11.01 7.485 11.01 7.485 10 9 C8.33043913 7.69118353 6.66441696 6.37785174 5 5.0625 C4.071875 4.33160156 3.14375 3.60070312 2.1875 2.84765625 C1.465625 2.23792969 0.74375 1.62820313 0 1 C0 0.67 0 0.34 0 0 Z " fill="#ED4F6B" transform="translate(5008,987)"/>
<path d="M0 0 C0 0.33 0 0.66 0 1 C-1.30324219 1.39832031 -1.30324219 1.39832031 -2.6328125 1.8046875 C-3.78523438 2.15789063 -4.93765625 2.51109375 -6.125 2.875 C-7.26195313 3.22304688 -8.39890625 3.57109375 -9.5703125 3.9296875 C-12.72751664 4.91496533 -15.86627606 5.94272536 -19 7 C-19 6.34 -19 5.68 -19 5 C-13.6983416 -0.08959207 -6.91823304 -0.24274502 0 0 Z " fill="#FEDBDD" transform="translate(4964,967)"/>
<path d="M0 0 C2.45391569 3.68087353 2.22802759 6.44355588 2.125 10.6875 C2.11597656 11.38939453 2.10695312 12.09128906 2.09765625 12.81445312 C2.07413704 14.54311525 2.03826713 16.27160145 2 18 C-1.20211336 13.19682995 -1.35411839 7.52941707 -0.5625 1.875 C-0.376875 1.25625 -0.19125 0.6375 0 0 Z " fill="#FEC2C9" transform="translate(5036,1028)"/>
<path d="M0 0 C0.66 0 1.32 0 2 0 C2.45375 0.969375 2.9075 1.93875 3.375 2.9375 C4.65786221 6.07079582 4.65786221 6.07079582 7 7 C9.38056989 14.64288227 9.38056989 14.64288227 8 19 C7.67386719 18.19175781 7.34773438 17.38351562 7.01171875 16.55078125 C6.57472656 15.48214844 6.13773438 14.41351562 5.6875 13.3125 C5.25824219 12.25675781 4.82898437 11.20101562 4.38671875 10.11328125 C3.07381037 6.99437593 3.07381037 6.99437593 1.33203125 4.23046875 C0 2 0 2 0 0 Z " fill="#ED4A67" transform="translate(5028,1005)"/>
<path d="M0 0 C0.721875 0.268125 1.44375 0.53625 2.1875 0.8125 C2.1875 1.1425 2.1875 1.4725 2.1875 1.8125 C0.2075 2.1425 -1.7725 2.4725 -3.8125 2.8125 C-3.8125 5.4525 -3.8125 8.0925 -3.8125 10.8125 C-4.8025 10.8125 -5.7925 10.8125 -6.8125 10.8125 C-7.625 8.125 -7.625 8.125 -7.8125 4.8125 C-4.13185047 -0.2754567 -4.13185047 -0.2754567 0 0 Z " fill="#58C1EF" transform="translate(277.8125,202.1875)"/>
<path d="M0 0 C2 2 2 2 3 5 C5.31 5.33 7.62 5.66 10 6 C10 6.99 10 7.98 10 9 C6.05272412 9.17942163 3.4019487 9.09350689 0 7 C0 4.69 0 2.38 0 0 Z " fill="#54BEED" transform="translate(203,139)"/>
<path d="M0 0 C0.66 0.33 1.32 0.66 2 1 C1.34 1.66 0.68 2.32 0 3 C-0.64767793 5.57061311 -0.64767793 5.57061311 -1 8 C-0.34 8 0.32 8 1 8 C1.33 9.32 1.66 10.64 2 12 C3.65 12 5.3 12 7 12 C7 12.33 7 12.66 7 13 C4.25 13.3125 4.25 13.3125 1 13 C-1.4375 10.875 -1.4375 10.875 -3 8 C-2.85384044 4.27293127 -2.65788293 2.65788293 0 0 Z " fill="#66C6F1" transform="translate(48,113)"/>
<path d="M0 0 C0.33 0 0.66 0 1 0 C1.32357362 3.55930982 1.3880551 5.41791735 -0.625 8.4375 C-3 10 -3 10 -6.25 9.75 C-7.61125 9.37875 -7.61125 9.37875 -9 9 C-9 8.67 -9 8.34 -9 8 C-6.69 8 -4.38 8 -2 8 C-2 7.34 -2 6.68 -2 6 C-2.66 6 -3.32 6 -4 6 C-3.67 5.01 -3.34 4.02 -3 3 C-2.34 3 -1.68 3 -1 3 C-0.67 2.01 -0.34 1.02 0 0 Z " fill="#50C2F0" transform="translate(237,116)"/>
<path d="M0 0 C-0.57584432 2.38564077 -1.22227595 4.66682784 -2 7 C-3.32 6.67 -4.64 6.34 -6 6 C-6.33 4.68 -6.66 3.36 -7 2 C-4.35261084 0.5393715 -3.10551666 0 0 0 Z " fill="#30C8FB" transform="translate(144,72)"/>
<path d="M0 0 C1.32 0.33 2.64 0.66 4 1 C5.25 7.625 5.25 7.625 3 11 C-0.625 11.1875 -0.625 11.1875 -4 11 C-4 10.67 -4 10.34 -4 10 C-2.35 10 -0.7 10 1 10 C1 9.34 1 8.68 1 8 C1.66 8 2.32 8 3 8 C3 6.02 3 4.04 3 2 C2.01 2 1.02 2 0 2 C0 1.34 0 0.68 0 0 Z " fill="#4EC1EC" transform="translate(256,181)"/>
<path d="M0 0 C1.3303125 0.37125 1.3303125 0.37125 2.6875 0.75 C2.3575 1.41 2.0275 2.07 1.6875 2.75 C-0.63406597 3.15729228 -2.9693787 3.49438677 -5.3125 3.75 C-5.6425 6.06 -5.9725 8.37 -6.3125 10.75 C-8.3125 8.75 -8.3125 8.75 -8.75 6.375 C-8.3125 3.75 -8.3125 3.75 -6.1875 1.375 C-3.3125 -0.25 -3.3125 -0.25 0 0 Z " fill="#63C7EF" transform="translate(278.3125,112.25)"/>
<path d="M0 0 C0.33 0 0.66 0 1 0 C1.309375 1.134375 1.61875 2.26875 1.9375 3.4375 C2.62924531 6.78775099 2.62924531 6.78775099 4 8 C7.36629251 8.14636054 9.78419562 8.07193479 13 7 C12.34 8.32 11.68 9.64 11 11 C9.741875 10.87625 8.48375 10.7525 7.1875 10.625 C6.47980469 10.55539063 5.77210937 10.48578125 5.04296875 10.4140625 C3 10 3 10 0 8 C-0.40843923 5.28796348 -0.13336867 2.7562858 0 0 Z " fill="#CEF9FD" transform="translate(112,49)"/>
<path d="M0 0 C1.125 1.75 1.125 1.75 2 4 C0.92886167 7.31079119 -0.01326353 8.00884235 -3 10 C-5.04296875 10.1953125 -5.04296875 10.1953125 -7.1875 10.125 C-9.0746875 10.063125 -9.0746875 10.063125 -11 10 C-11 9.01 -11 8.02 -11 7 C-10.071875 7.20625 -9.14375 7.4125 -8.1875 7.625 C-4.84826598 8.36692966 -4.84826598 8.36692966 -2 6 C-0.78715124 2.94570927 -0.78715124 2.94570927 0 0 Z " fill="#E0FDFE" transform="translate(149,207)"/>
<path d="M0 0 C0.99 0.33 1.98 0.66 3 1 C3 2.98 3 4.96 3 7 C1.02 7 -0.96 7 -3 7 C-2.67 5.68 -2.34 4.36 -2 3 C-1.34 3 -0.68 3 0 3 C0 2.01 0 1.02 0 0 Z " fill="#3BBFFD" transform="translate(144,206)"/>
<path d="M0 0 C0.99 0.33 1.98 0.66 3 1 C3.02712066 2.43739513 3.04645067 3.87493863 3.0625 5.3125 C3.07410156 6.11300781 3.08570313 6.91351563 3.09765625 7.73828125 C3 10 3 10 2 13 C-0.97 13 -3.94 13 -7 13 C-7 12.67 -7 12.34 -7 12 C-4.69 11.34 -2.38 10.68 0 10 C0.93786082 4.94990405 0.93786082 4.94990405 0 0 Z " fill="#DCFCFE" transform="translate(34,181)"/>
<path d="M0 0 C0 0.99 0 1.98 0 3 C0.66 3 1.32 3 2 3 C2 5.97 2 8.94 2 12 C1.34 12 0.68 12 0 12 C0.0928125 10.3603125 0.0928125 10.3603125 0.1875 8.6875 C0.2900406 5.1592481 0.2900406 5.1592481 -1.125 3.0625 C-3.785027 1.55515137 -6.00206205 1.80013747 -9 2 C-9 1.34 -9 0.68 -9 0 C-2.25 -1.125 -2.25 -1.125 0 0 Z " fill="#D9FAFE" transform="translate(215,89)"/>
<path d="M0 0 C-2.80804268 2.96404505 -5.18315774 5.44499019 -9 7 C-9.33 6.34 -9.66 5.68 -10 5 C-9.25 2.9375 -9.25 2.9375 -8 1 C-5.07175348 0.02391783 -3.04386724 -0.08226668 0 0 Z " fill="#FDE0DF" transform="translate(4937,979)"/>
<path d="M0 0 C-0.56589844 0.34933594 -1.13179687 0.69867187 -1.71484375 1.05859375 C-2.44832031 1.51363281 -3.18179688 1.96867188 -3.9375 2.4375 C-4.66839844 2.88996094 -5.39929687 3.34242188 -6.15234375 3.80859375 C-7.93899809 4.86864033 -7.93899809 4.86864033 -9 6 C-10.99958364 6.04080783 -13.00045254 6.04254356 -15 6 C-13.48400735 2.9680147 -11.1403567 2.58975563 -8.0625 1.3125 C-6.98097656 0.85488281 -5.89945313 0.39726563 -4.78515625 -0.07421875 C-2 -1 -2 -1 0 0 Z " fill="#EC576C" transform="translate(4958,970)"/>
<path d="M0 0 C0.99 0.33 1.98 0.66 3 1 C3 4.3 3 7.6 3 11 C-0.21451269 12.60725635 -3.43612536 12.05748185 -7 12 C-7 11.67 -7 11.34 -7 11 C-4.69 10.34 -2.38 9.68 0 9 C1.04214691 4.38492226 1.04214691 4.38492226 0 0 Z " fill="#D9FBFF" transform="translate(124,182)"/>
<path d="M0 0 C0 0.99 0 1.98 0 3 C0.31669821 5.33564933 0.64820803 7.6693782 1 10 C3.475 10.99 3.475 10.99 6 12 C6 12.33 6 12.66 6 13 C2.77060081 13.35882213 1.38790237 13.27258004 -1.3125 11.375 C-3.47898298 8.3258758 -3.54624158 6.66762206 -3 3 C-1.5 1.125 -1.5 1.125 0 0 Z " fill="#65C6EB" transform="translate(183,158)"/>
<path d="M0 0 C1.98 0.495 1.98 0.495 4 1 C4.59222907 4.01264352 5.05823431 6.92416977 5 10 C3.0625 12.5625 3.0625 12.5625 1 14 C0.34 13.34 -0.32 12.68 -1 12 C-0.01 11.34 0.98 10.68 2 10 C2.43827201 8.09542071 2.43827201 8.09542071 2.3125 6 C2.30863281 5.29875 2.30476562 4.5975 2.30078125 3.875 C2.14912946 1.7583423 2.14912946 1.7583423 0 0 Z " fill="#D7F9FE" transform="translate(10,158)"/>
<path d="M0 0 C0.66 0.33 1.32 0.66 2 1 C2.04241723 3.33294775 2.04092937 5.66702567 2 8 C1 9 1 9 -0.84765625 9.09765625 C-2.8984375 9.06510417 -4.94921875 9.03255208 -7 9 C-7.66 7.68 -8.32 6.36 -9 5 C-7.68 5 -6.36 5 -5 5 C-5 5.99 -5 6.98 -5 8 C-3.35 7.67 -1.7 7.34 0 7 C0 4.69 0 2.38 0 0 Z " fill="#43C2E7" transform="translate(101,70)"/>
<path d="M0 0 C0.66 0.33 1.32 0.66 2 1 C1.58427734 2.08667969 1.58427734 2.08667969 1.16015625 3.1953125 C-1.55621227 10.42755647 -1.55621227 10.42755647 -3 18 C-3.33 18 -3.66 18 -4 18 C-4.21755666 12.5610835 -4.10428384 8.12919186 -2 3 C-1.34 3 -0.68 3 0 3 C0 2.01 0 1.02 0 0 Z " fill="#FECBD0" transform="translate(4911,1008)"/>
<path d="M0 0 C0.66 0 1.32 0 2 0 C0.16508812 4.74018901 -1.91941459 9.36413251 -4 14 C-5.07174763 10.34811918 -4.76411467 7.73567172 -4 4 C-3.01 4 -2.02 4 -1 4 C-0.67 2.68 -0.34 1.36 0 0 Z " fill="#E75267" transform="translate(4929,1006)"/>
<path d="M0 0 C0.99 0.33 1.98 0.66 3 1 C2.52949219 1.53109375 2.05898438 2.0621875 1.57421875 2.609375 C0.95160156 3.31578125 0.32898437 4.0221875 -0.3125 4.75 C-1.23482422 5.79414062 -1.23482422 5.79414062 -2.17578125 6.859375 C-3.87314734 8.85114506 -5.45477809 10.88898915 -7 13 C-6.3920502 8.86594138 -5.09037553 5.61795765 -3 2 C-2.01 1.34 -1.02 0.68 0 0 Z " fill="#FED5D8" transform="translate(4923,989)"/>
<path d="M0 0 C0.99 0 1.98 0 3 0 C3 0.66 3 1.32 3 2 C3.66 2 4.32 2 5 2 C5 2.99 5 3.98 5 5 C2.69 5 0.38 5 -2 5 C-1.125 1.125 -1.125 1.125 0 0 Z " fill="#2EC9FC" transform="translate(232,249)"/>
<path d="M0 0 C0.33 0.99 0.66 1.98 1 3 C-0.216875 2.9175 -1.43375 2.835 -2.6875 2.75 C-6.16639526 2.72528316 -6.93832664 2.95888443 -10 5 C-10.66 5.66 -11.32 6.32 -12 7 C-9.69656113 0.26687101 -6.85869086 -0.25881852 0 0 Z " fill="#E3FEFF" transform="translate(123,223)"/>
<path d="M0 0 C1.8871875 0.061875 1.8871875 0.061875 3.8125 0.125 C3.4825 0.785 3.1525 1.445 2.8125 2.125 C1.86375 2.08375 0.915 2.0425 -0.0625 2 C-3.28994856 1.77526182 -3.28994856 1.77526182 -5.1875 4.125 C-5.52966235 8.77694714 -5.52966235 8.77694714 -4.1875 13.125 C-5.1775 12.795 -6.1675 12.465 -7.1875 12.125 C-7.26840971 10.50081255 -7.32664995 8.87548255 -7.375 7.25 C-7.40980469 6.34507812 -7.44460937 5.44015625 -7.48046875 4.5078125 C-7.38378906 3.72148437 -7.28710938 2.93515625 -7.1875 2.125 C-4.09861478 0.06574319 -3.47814073 -0.1140374 0 0 Z " fill="#DDFBFF" transform="translate(74.1875,178.875)"/>
<path d="M0 0 C1.32 0 2.64 0 4 0 C4 0.66 4 1.32 4 2 C4.66 2 5.32 2 6 2 C7.35439668 4.70879335 7.06501451 7.00933268 7 10 C5.02 10.99 5.02 10.99 3 12 C3.2475 10.7625 3.495 9.525 3.75 8.25 C4.09572221 6.07896977 4.09572221 6.07896977 4 4 C2.22845348 1.47409152 2.22845348 1.47409152 0 0 Z " fill="#D2F9FE" transform="translate(166,45)"/>
<path d="M0 0 C0.66 0 1.32 0 2 0 C1.98839844 0.62648437 1.97679687 1.25296875 1.96484375 1.8984375 C1.95582031 2.71570313 1.94679688 3.53296875 1.9375 4.375 C1.92589844 5.18710938 1.91429687 5.99921875 1.90234375 6.8359375 C1.85533666 9.04937142 1.85533666 9.04937142 3 11 C-0.47325181 12.1577506 -3.36067448 12.06866652 -7 12 C-7 11.67 -7 11.34 -7 11 C-5.02 10.34 -3.04 9.68 -1 9 C-0.27743171 4.51866426 -0.27743171 4.51866426 0 0 Z " fill="#D9FCFE" transform="translate(305,137)"/>
<path d="M0 0 C2.375 0.3125 2.375 0.3125 5 1 C7.29013653 4.4352048 7.17842973 5.985331 7 10 C5.02 10.99 5.02 10.99 3 12 C3.29296875 9.98177083 3.5859375 7.96354167 3.87890625 5.9453125 C4.1684297 3.91859333 4.1684297 3.91859333 3 2 C2.01 1.34 1.02 0.68 0 0 Z " fill="#DCFBFE" transform="translate(76,135)"/>
<path d="M0 0 C4.67105792 1.55701931 8.08705685 4.08447373 12 7 C10.09375 7.5859375 10.09375 7.5859375 8 8 C6.5 6.625 6.5 6.625 5 5 C2.89667109 4.28552357 2.89667109 4.28552357 1 4 C0.67 2.68 0.34 1.36 0 0 Z " fill="#FEB9C4" transform="translate(4932,1096)"/>
<path d="M0 0 C0.66 0.66 1.32 1.32 2 2 C1.27554688 1.96519531 0.55109375 1.93039062 -0.1953125 1.89453125 C-6.04804101 1.73065485 -9.83520566 1.95409564 -15 5 C-15.66 4.67 -16.32 4.34 -17 4 C-11.77734732 -0.5168888 -6.79212328 -0.9544487 0 0 Z " fill="#E75064" transform="translate(4985,1022)"/>
<path d="M0 0 C0.33 0 0.66 0 1 0 C1.02688151 1.64574566 1.04634123 3.29161413 1.0625 4.9375 C1.07410156 5.85402344 1.08570313 6.77054688 1.09765625 7.71484375 C1 10 1 10 0 11 C-2.67058851 11.14115161 -5.32432238 11.04247107 -8 11 C-7.401875 10.731875 -6.80375 10.46375 -6.1875 10.1875 C-3.90204582 8.94682487 -2.55935721 8.07914294 -1 6 C-0.2730774 2.89160979 -0.2730774 2.89160979 0 0 Z " fill="#DDFBFF" transform="translate(171,228)"/>
<path d="M0 0 C3.22939919 -0.35882213 4.61209763 -0.27258004 7.3125 1.625 C9.42956587 4.60457419 9.32523926 6.42236811 9 10 C8.01 10.495 8.01 10.495 7 11 C6.773125 9.72125 6.54625 8.4425 6.3125 7.125 C5.83899916 4.93067868 5.83899916 4.93067868 5 3 C2.51686936 1.40311361 2.51686936 1.40311361 0 1 C0 0.67 0 0.34 0 0 Z " fill="#5CC2E9" transform="translate(162,90)"/>
<path d="M0 0 C0.99 0.495 0.99 0.495 2 1 C1.938125 1.763125 1.87625 2.52625 1.8125 3.3125 C1.79729979 5.96195597 1.79729979 5.96195597 3.0625 7.8125 C5.99268751 9.60842137 8.6472953 9.18977574 12 9 C11.67 9.66 11.34 10.32 11 11 C4.75 11.48076923 4.75 11.48076923 1.5625 9.4375 C-0.5248128 6.18129203 -0.2915423 3.79004984 0 0 Z " fill="#DCFDFE" transform="translate(179,26)"/>
<path d="M0 0 C1.65 0 3.3 0 5 0 C7.125 4.625 7.125 4.625 6 8 C4.9970458 6.85675161 3.99770973 5.71032809 3 4.5625 C2.443125 3.92441406 1.88625 3.28632812 1.3125 2.62890625 C0 1 0 1 0 0 Z " fill="#EE4C6B" transform="translate(4922,1084)"/>
<path d="M0 0 C0.99 0.99 1.98 1.98 3 3 C2.56521739 8.43478261 2.56521739 8.43478261 1 10 C-1.33297433 10.04092937 -3.66705225 10.04241723 -6 10 C-6 9.67 -6 9.34 -6 9 C-4.02 9 -2.04 9 0 9 C0 6.03 0 3.06 0 0 Z " fill="#5AC5EC" transform="translate(101,204)"/>
<path d="M0 0 C0.99 0 1.98 0 3 0 C3 0.66 3 1.32 3 2 C3.99 2.33 4.98 2.66 6 3 C4 4 4 4 1.625 4.375 C-1.24255671 5.0577516 -2.77756688 6.10681623 -5 8 C-4.67 6.68 -4.34 5.36 -4 4 C-2.68 3.67 -1.36 3.34 0 3 C0 2.01 0 1.02 0 0 Z " fill="#E5FCFD" transform="translate(94,154)"/>
<path d="M0 0 C0.66 0 1.32 0 2 0 C2 2.64 2 5.28 2 8 C0.02 8.99 0.02 8.99 -2 10 C-2.66 9.34 -3.32 8.68 -4 8 C-3.01 7.34 -2.02 6.68 -1 6 C-0.26656572 2.93443402 -0.26656572 2.93443402 0 0 Z " fill="#DBF9FD" transform="translate(238,72)"/>
<path d="M0 0 C-4.75 3.875 -4.75 3.875 -7 5 C-7.65555119 7.52733235 -7.65555119 7.52733235 -8 10 C-8.33 10 -8.66 10 -9 10 C-9.32523926 6.42236811 -9.42956587 4.60457419 -7.3125 1.625 C-4.61209763 -0.27258004 -3.22939919 -0.35882213 0 0 Z " fill="#51C1E7" transform="translate(212,90)"/>
<path d="M0 0 C0.99 0.33 1.98 0.66 3 1 C1.02 3.31 -0.96 5.62 -3 8 C-3.66 7.34 -4.32 6.68 -5 6 C-3.35 4.02 -1.7 2.04 0 0 Z " fill="#FAC9CE" transform="translate(5035,1088)"/>
<path d="M0 0 C2.64752004 2.57784846 4.94432065 4.91648098 7 8 C5.35 7.67 3.7 7.34 2 7 C1.67 6.01 1.34 5.02 1 4 C0.34 3.67 -0.32 3.34 -1 3 C-0.67 2.01 -0.34 1.02 0 0 Z " fill="#FEC0CE" transform="translate(4921,1084)"/>
<path d="M0 0 C1.9375 0.625 1.9375 0.625 4 2 C4.75 5.125 4.75 5.125 5 8 C3.02 8.99 3.02 8.99 1 10 C1.03255208 7.98177083 1.06510417 5.96354167 1.09765625 3.9453125 C1.12649242 1.91814596 1.12649242 1.91814596 0 0 Z " fill="#D4F6FD" transform="translate(146,248)"/>
<path d="M0 0 C1.98 0.99 1.98 0.99 4 2 C4 4.31 4 6.62 4 9 C3.34 9 2.68 9 2 9 C2 9.66 2 10.32 2 11 C1.34 10.67 0.68 10.34 0 10 C0.185625 8.906875 0.37125 7.81375 0.5625 6.6875 C1.2578068 3.06375867 1.2578068 3.06375867 0 0 Z " fill="#E1FCFF" transform="translate(259,136)"/>
<path d="M0 0 C0 3 0 3 -2.1875 5.625 C-5.00654002 8.00552268 -6.39755548 8.69121904 -10 9 C-6.83047153 5.73991357 -3.60062011 2.77762123 0 0 Z " fill="#EA506B" transform="translate(5021,1080)"/>
<path d="M0 0 C1.051875 -0.00386719 1.051875 -0.00386719 2.125 -0.0078125 C4 0.125 4 0.125 6 1.125 C5.67 1.785 5.34 2.445 5 3.125 C3.39125 2.7846875 3.39125 2.7846875 1.75 2.4375 C-1.92978576 1.76724175 -1.92978576 1.76724175 -4.4375 3.5625 C-4.953125 4.078125 -5.46875 4.59375 -6 5.125 C-6 3.805 -6 2.485 -6 1.125 C-3.75487738 0.00243869 -2.48543351 -0.00913762 0 0 Z " fill="#DFFDFC" transform="translate(186,290.875)"/>
<path d="M0 0 C-2.26969744 2.26969744 -3.97395487 2.99131829 -7 4 C-8.32 4 -9.64 4 -11 4 C-11 3.34 -11 2.68 -11 2 C-7.17010894 0.19769832 -4.21878192 -0.19622241 0 0 Z " fill="#EE5067" transform="translate(5011,1105)"/>
<path d="M0 0 C0.99 0.33 1.98 0.66 3 1 C-1.625 5.875 -1.625 5.875 -5 7 C-3.88820837 3.66462511 -2.52588702 2.36292656 0 0 Z " fill="#F14A67" transform="translate(4991,1048)"/>
<path d="M0 0 C0.66 0.33 1.32 0.66 2 1 C2.25 6.625 2.25 6.625 0 10 C-0.66 10 -1.32 10 -2 10 C-2 9.01 -2 8.02 -2 7 C-1.34 7 -0.68 7 0 7 C0 4.69 0 2.38 0 0 Z " fill="#50C1ED" transform="translate(191,205)"/>
<path d="M0 0 C0.66 0.33 1.32 0.66 2 1 C1.814375 1.7425 1.62875 2.485 1.4375 3.25 C1.00796892 5.94990963 1.14877026 7.44631077 2 10 C1.34 10 0.68 10 0 10 C0 9.34 0 8.68 0 8 C-0.66 8 -1.32 8 -2 8 C-2.20086443 4.28400809 -2.1519437 3.22791555 0 0 Z " fill="#D9FAFE" transform="translate(135,204)"/>
<path d="M0 0 C0.28875 0.639375 0.5775 1.27875 0.875 1.9375 C1.82823451 4.15206079 1.82823451 4.15206079 4 5 C3.484375 4.855625 2.96875 4.71125 2.4375 4.5625 C-0.18902145 3.90995725 -0.18902145 3.90995725 -3.6875 3.5625 C-4.780625 3.376875 -5.87375 3.19125 -7 3 C-7.33 2.34 -7.66 1.68 -8 1 C-5.36 0.67 -2.72 0.34 0 0 Z " fill="#EAFDFE" transform="translate(191,200)"/>
<path d="M0 0 C3 3 3 3 3.1875 6.1875 C3.0946875 7.5796875 3.0946875 7.5796875 3 9 C2.01 9.495 2.01 9.495 1 10 C0.67 6.7 0.34 3.4 0 0 Z " fill="#5FC2EC" transform="translate(78,91)"/>
<path d="M0 0 C0.99 0.33 1.98 0.66 3 1 C2.34 2.65 1.68 4.3 1 6 C0.01 6 -0.98 6 -2 6 C-1.125 1.125 -1.125 1.125 0 0 Z " fill="#FEEAEF" transform="translate(4915,996)"/>
<path d="M0 0 C1.65 0 3.3 0 5 0 C4.38125 0.7425 3.7625 1.485 3.125 2.25 C1.39562719 4.48801188 0.13893339 6.43739987 -1 9 C-1.125 2.25 -1.125 2.25 0 0 Z " fill="#DEFDFD" transform="translate(225,247)"/>
<path d="M0 0 C1.32 0.66 2.64 1.32 4 2 C3.34 3.98 2.68 5.96 2 8 C1.01 8 0.02 8 -1 8 C-0.67 7.67 -0.34 7.34 0 7 C0.04092937 4.66702567 0.04241723 2.33294775 0 0 Z " fill="#CCF2FB" transform="translate(57,160)"/>
<path d="M0 0 C1.98 0 3.96 0 6 0 C6 0.66 6 1.32 6 2 C3.69 2.66 1.38 3.32 -1 4 C-0.67 2.68 -0.34 1.36 0 0 Z " fill="#FDC1C5" transform="translate(4977,1057)"/>
<path d="M0 0 C0.33 0.66 0.66 1.32 1 2 C0.0625 4.625 0.0625 4.625 -1 7 C-1.99 7 -2.98 7 -4 7 C-2.92598892 4.08482708 -2.22189824 2.22189824 0 0 Z " fill="#EA5562" transform="translate(4967,1027)"/>
<path d="M0 0 C-1.1875 1.5 -1.1875 1.5 -3 3 C-5.6875 3.1875 -5.6875 3.1875 -8 3 C-8.33 2.34 -8.66 1.68 -9 1 C-5.92677456 0.08941469 -3.19902639 -0.08886184 0 0 Z " fill="#62C5EF" transform="translate(147,123)"/>
<path d="M0 0 C0 3 0 3 -1.25 4.625 C-3.17415516 6.1368362 -4.60989418 6.58791279 -7 7 C-4.66666667 4.66666667 -2.33333333 2.33333333 0 0 Z " fill="#FFB5C1" transform="translate(4993,1050)"/>
<path d="M0 0 C2 2 2 2 2.125 4.4375 C2.08375 5.283125 2.0425 6.12875 2 7 C2 7.99 2 8.98 2 10 C1.34 9.67 0.68 9.34 0 9 C0 6.03 0 3.06 0 0 Z " fill="#FEDADD" transform="translate(5053,1026)"/>
<path d="M0 0 C0.94875 0.04125 1.8975 0.0825 2.875 0.125 C-0.125 2.125 -0.125 2.125 -2.125 2.125 C-2.125 3.115 -2.125 4.105 -2.125 5.125 C-2.785 5.125 -3.445 5.125 -4.125 5.125 C-4.455 4.135 -4.785 3.145 -5.125 2.125 C-3.125 0.125 -3.125 0.125 0 0 Z " fill="#2EC5F6" transform="translate(97.125,248.875)"/>
<path d="M0 0 C1.32 1.65 2.64 3.3 4 5 C2.68 5.99 1.36 6.98 0 8 C0 5.36 0 2.72 0 0 Z " fill="#E1FBFF" transform="translate(0,166)"/>
<path d="M0 0 C0.99 0.33 1.98 0.66 3 1 C1.515 4.465 1.515 4.465 0 8 C-0.66 7.67 -1.32 7.34 -2 7 C-1.125 1.125 -1.125 1.125 0 0 Z " fill="#E3FDFE" transform="translate(225,158)"/>
<path d="M0 0 C0.99 0 1.98 0 3 0 C3 1.65 3 3.3 3 5 C4.65 5 6.3 5 8 5 C8 5.33 8 5.66 8 6 C6.02 6 4.04 6 2 6 C1.34 4.02 0.68 2.04 0 0 Z " fill="#4CC1EE" transform="translate(249,142)"/>
<path d="M0 0 C0.66 0 1.32 0 2 0 C3.4783226 2.95664519 3.06032783 5.74229737 3 9 C2.67 7.68 2.34 6.36 2 5 C1.34 5 0.68 5 0 5 C0 3.35 0 1.7 0 0 Z " fill="#47BDEE" transform="translate(235,69)"/>
</svg>
