<?xml version="1.0" encoding="UTF-8"?>
<svg version="1.1" xmlns="http://www.w3.org/2000/svg" width="183" height="30">
<path d="M0 0 C5.15872961 2.5793648 7.43070611 6.14011695 10.87890625 10.6640625 C11.57886719 11.43492188 12.27882813 12.20578125 13 13 C16.2020765 13.34537521 16.2020765 13.34537521 18.4453125 10.6640625 C19.34703878 9.6585978 20.23997773 8.64519858 21.125 7.625 C21.58003906 7.11710938 22.03507812 6.60921875 22.50390625 6.0859375 C25.03185806 3.23932971 25.03185806 3.23932971 27 0 C27.99 0 28.98 0 30 0 C30 9.9 30 19.8 30 30 C28.02 30 26.04 30 24 30 C23.67 25.05 23.34 20.1 23 15 C20.69 17.64 18.38 20.28 16 23 C10.31226058 21.57806514 9.30385936 18.7305259 6 14 C5.67 19.28 5.34 24.56 5 30 C3.35 30 1.7 30 0 30 C0 20.1 0 10.2 0 0 Z " fill="#1A1A1A" transform="translate(0,0)"/>
<path d="M0 0 C4.64990438 2.16461066 6.71605707 4.48387489 9 9 C9.82885269 14.54808604 9.7240695 19.47140883 7.3125 24.5625 C3.17588814 28.9227125 -0.30070713 30.46660546 -6.3125 30.625 C-12.37515848 30.5080134 -15.37290019 29.06959372 -19.609375 24.82421875 C-22.90974149 20.49480541 -22.44943834 15.18518675 -22 10 C-20.875 7.1875 -20.875 7.1875 -19 5 C-17.824375 3.6078125 -17.824375 3.6078125 -16.625 2.1875 C-11.91510252 -1.55201659 -5.64283074 -0.77535079 0 0 Z M-15 9 C-16.60086627 12.20173254 -16.49917089 15.52577059 -16 19 C-14.20636089 21.8100346 -12.98119065 23.50940468 -10 25 C-4.12362186 25.61782041 -4.12362186 25.61782041 0.9375 22.9375 C3.42007096 19.40171712 4 17.31286678 4 13 C2.48483372 8.98480937 1.5944747 7.39631647 -2 5 C-7.87188456 4.43175311 -10.70950255 4.57948747 -15 9 Z " fill="#FE3E57" transform="translate(174,0)"/>
<path d="M0 0 C13 0 13 0 18 3 C21.16955197 6.93461624 21.53348798 10.02077887 21 15 C19.625 17.9375 19.625 17.9375 18 20 C17.34 20 16.68 20 16 20 C16.3609375 20.55429687 16.721875 21.10859375 17.09375 21.6796875 C17.5578125 22.40414063 18.021875 23.12859375 18.5 23.875 C19.19609375 24.95394531 19.19609375 24.95394531 19.90625 26.0546875 C21 28 21 28 21 30 C17.8125 30.4375 17.8125 30.4375 14 30 C12.42001646 28.28692002 11.35307997 26.57437201 10.23828125 24.53125 C9.82964844 24.0259375 9.42101562 23.520625 9 23 C7.68 23 6.36 23 5 23 C5 25.31 5 27.62 5 30 C3.35 30 1.7 30 0 30 C0 20.1 0 10.2 0 0 Z M5 5 C5 9.29 5 13.58 5 18 C9.68612994 17.62385875 9.68612994 17.62385875 13.9375 15.8125 C15.55276777 13.05704321 15.45547602 11.12326414 15 8 C13.46186579 5.97103788 13.46186579 5.97103788 11 5 C9.02 5 7.04 5 5 5 Z " fill="#1A1A1A" transform="translate(65,0)"/>
<path d="M0 0 C1.65 0 3.3 0 5 0 C5 4.29 5 8.58 5 13 C9.29 13 13.58 13 18 13 C18 8.71 18 4.42 18 0 C19.98 0 21.96 0 24 0 C24 9.9 24 19.8 24 30 C22.02 30 20.04 30 18 30 C18 26.04 18 22.08 18 18 C13.71 18 9.42 18 5 18 C5 21.96 5 25.92 5 30 C3.35 30 1.7 30 0 30 C0 20.1 0 10.2 0 0 Z " fill="#FE3E57" transform="translate(123,0)"/>
<path d="M0 0 C2.83649746 1.37249877 3.93868009 2.52641611 6 5 C6 5.66 6 6.32 6 7 C3.75 8.1875 3.75 8.1875 1 9 C-0.34400833 8.01439389 -1.67607028 7.01241685 -3 6 C-6.45749949 5.33323122 -6.45749949 5.33323122 -10 6 C-12.96593118 8.25668676 -14.58516544 9.98884076 -16 13.4375 C-16 16.96214508 -14.84564944 19.03377769 -13 22 C-9.28986601 24.47342266 -7.38939738 24.38503486 -3 24 C-1.64377755 23.03126968 -0.30582947 22.03565785 1 21 C3.25 21.3125 3.25 21.3125 5 22 C5 26 5 26 2.90234375 28.21875 C-2.11711215 31.29933128 -7.3002399 30.70261194 -13 30 C-16.90682438 28.24866493 -18.41790577 26.81493192 -20.875 23.375 C-22.59189585 18.22431246 -23.08151408 13.11662123 -21.2734375 7.90625 C-16.69568467 -0.87708063 -8.97111739 -1.23662019 0 0 Z " fill="#FE3E57" transform="translate(112,0)"/>
<path d="M0 0 C3 1 3 1 4.44213867 3.56030273 C4.9291626 4.67348877 5.41618652 5.7866748 5.91796875 6.93359375 C6.44970703 8.13951172 6.98144531 9.34542969 7.52929688 10.58789062 C7.8012085 11.21928955 8.07312012 11.85068848 8.35327148 12.5012207 C9.1847006 14.43100247 10.03127091 16.35354426 10.88085938 18.27539062 C15 27.69559867 15 27.69559867 15 30 C13.02 30 11.04 30 9 30 C8.20688633 28.27149655 7.4155741 26.54216646 6.625 24.8125 C6.18414062 23.84957031 5.74328125 22.88664062 5.2890625 21.89453125 C2 14.50909091 2 14.50909091 2 11 C1.34 11 0.68 11 0 11 C-0.1134375 11.68578125 -0.226875 12.3715625 -0.34375 13.078125 C-1.10167983 16.45271736 -2.24597273 19.52744155 -3.5 22.75 C-3.9434375 23.89984375 -4.386875 25.0496875 -4.84375 26.234375 C-6 29 -6 29 -7 30 C-8.66617115 30.04063832 -10.33388095 30.042721 -12 30 C-11.35960068 26.18022687 -10.24435165 22.86605825 -8.75 19.296875 C-8.3065625 18.2346875 -7.863125 17.1725 -7.40625 16.078125 C-6.71015625 14.43070313 -6.71015625 14.43070313 -6 12.75 C-5.5359375 11.63625 -5.071875 10.5225 -4.59375 9.375 C-1.13839286 1.13839286 -1.13839286 1.13839286 0 0 Z " fill="#1A1A1A" transform="translate(46,0)"/>
</svg>
