<svg width="11" height="13" viewBox="0 0 11 13" fill="none" xmlns="http://www.w3.org/2000/svg">
<path d="M6.7502 6.5V11.425C6.7752 11.6125 6.7127 11.8125 6.56895 11.9437C6.51113 12.0017 6.44245 12.0477 6.36684 12.079C6.29124 12.1104 6.21018 12.1265 6.12833 12.1265C6.04647 12.1265 5.96542 12.1104 5.88981 12.079C5.81421 12.0477 5.74552 12.0017 5.6877 11.9437L4.43145 10.6875C4.36329 10.6209 4.31146 10.5394 4.28002 10.4494C4.24857 10.3594 4.23837 10.2633 4.2502 10.1688V6.5H4.23145L0.631454 1.8875C0.529959 1.75721 0.484163 1.59204 0.504071 1.42808C0.52398 1.26413 0.607976 1.11472 0.737704 1.0125C0.856454 0.925 0.987704 0.875 1.1252 0.875H9.8752C10.0127 0.875 10.144 0.925 10.2627 1.0125C10.3924 1.11472 10.4764 1.26413 10.4963 1.42808C10.5162 1.59204 10.4704 1.75721 10.369 1.8875L6.76895 6.5H6.7502Z" fill="white"/>
</svg>
