<svg xmlns="http://www.w3.org/2000/svg" xmlns:xlink="http://www.w3.org/1999/xlink" width="16pt" height="16pt" viewBox="0 0 16 16" version="1.1">
<g>
<path style=" stroke:none;fill-rule:nonzero;fill:rgb(0%,0%,0%);fill-opacity:1;" d="M 3.582031 13.816406 L 0.265625 13.816406 L 0.265625 4.59375 L 3.582031 4.59375 Z M 1.921875 3.335938 C 0.859375 3.335938 0 2.574219 0 1.660156 C 0 0.746094 0.859375 0 1.921875 0 C 2.980469 0 3.84375 0.746094 3.84375 1.65625 C 3.84375 2.574219 2.980469 3.335938 1.921875 3.335938 Z M 15.996094 13.816406 L 12.6875 13.816406 L 12.6875 9.324219 C 12.6875 8.257812 12.660156 6.882812 10.960938 6.882812 C 9.238281 6.882812 8.972656 8.046875 8.972656 9.246094 L 8.972656 13.816406 L 5.660156 13.816406 L 5.660156 4.59375 L 8.839844 4.59375 L 8.839844 5.851562 L 8.886719 5.851562 C 9.328125 5.125 10.410156 4.359375 12.027344 4.359375 C 15.382812 4.359375 16 6.269531 16 8.75 L 16 13.816406 Z M 15.996094 13.816406 "/>
</g>
</svg>
