<?xml version="1.0" encoding="UTF-8"?>
<svg version="1.1" xmlns="http://www.w3.org/2000/svg" width="33" height="20">
<path d="M0 0 C10.89 0 21.78 0 33 0 C33 6.6 33 13.2 33 20 C22.11 20 11.22 20 0 20 C0 13.4 0 6.8 0 0 Z " fill="#E5834F" transform="translate(0,0)"/>
<path d="M0 0 C2.64 0 5.28 0 8 0 C7.67 0.598125 7.34 1.19625 7 1.8125 C5.79212012 4.05386471 5.79212012 4.05386471 6 7 C11.16726788 7.77748244 15.77183556 8.07015489 20.9375 7.2578125 C24.61314306 6.79835712 28.30249988 6.92296875 32 7 C32 8.98 32 10.96 32 13 C25.66666667 13 19.33333333 13 13 13 C12.67 13.33 12.34 13.66 12 14 C10.48071962 14.07179964 8.95832518 14.08392007 7.4375 14.0625 C6.61121094 14.05347656 5.78492188 14.04445313 4.93359375 14.03515625 C4.29550781 14.02355469 3.65742187 14.01195312 3 14 C3.57344937 16.86724686 3.8614515 17.8614515 6 20 C4.02 20 2.04 20 0 20 C0 13.4 0 6.8 0 0 Z " fill="#E9C4C4" transform="translate(0,0)"/>
<path d="M0 0 C8.25 0 16.5 0 25 0 C25 1.98 25 3.96 25 6 C24.608125 5.525625 24.21625 5.05125 23.8125 4.5625 C21.59191626 2.64820367 19.86624291 2.38733012 17 2 C17 2.66 17 3.32 17 4 C16.34 4 15.68 4 15 4 C15 4.99 15 5.98 15 7 C9.19410263 9.32235895 4.03327855 10.01109285 -2 8 C-2.66 7.67 -3.32 7.34 -4 7 C-2.68 4.69 -1.36 2.38 0 0 Z " fill="#F4892E" transform="translate(8,0)"/>
<path d="M0 0 C2.64 0 5.28 0 8 0 C7.690625 0.5775 7.38125 1.155 7.0625 1.75 C6.07416636 3.84294184 5.4831387 5.74535275 5 8 C4.34 8 3.68 8 3 8 C2.34 9.65 1.68 11.3 1 13 C6.445 12.505 6.445 12.505 12 12 C12 12.66 12 13.32 12 14 C9.03 14 6.06 14 3 14 C3.62841973 17.9714169 3.62841973 17.9714169 6 20 C4.02 20 2.04 20 0 20 C0 13.4 0 6.8 0 0 Z " fill="#F56969" transform="translate(0,0)"/>
<path d="M0 0 C2.6875 -0.375 2.6875 -0.375 6 0 C8.11408407 1.81909559 9.38699825 3.67537983 11 6 C11 6.33 11 6.66 11 7 C1.98468271 9.27571116 1.98468271 9.27571116 -2.125 8.125 C-2.74375 7.75375 -3.3625 7.3825 -4 7 C-2.68 4.69 -1.36 2.38 0 0 Z " fill="#D92E38" transform="translate(8,0)"/>
<path d="M0 0 C-1.36983503 3.16115776 -1.9890638 3.9927092 -5 6 C-6.9375 6.265625 -6.9375 6.265625 -9 6.25 C-9.680625 6.25515625 -10.36125 6.2603125 -11.0625 6.265625 C-13 6 -13 6 -16 4 C-16 2.68 -16 1.36 -16 0 C-10.39436958 -0.82622671 -5.57710648 -1.06795656 0 0 Z " fill="#CC2A2D" transform="translate(19,14)"/>
<path d="M0 0 C2.3125 -0.25 2.3125 -0.25 5 0 C6.8125 1.5625 6.8125 1.5625 8 4 C8.1875 7.75 8.1875 7.75 8 11 C7.67 11 7.34 11 7 11 C6.67 9.35 6.34 7.7 6 6 C3.36 6 0.72 6 -2 6 C-2 4.68 -2 3.36 -2 2 C-1.34 2 -0.68 2 0 2 C0 1.34 0 0.68 0 0 Z " fill="#F88A0F" transform="translate(25,2)"/>
<path d="M0 0 C0 1.98 0 3.96 0 6 C-2.97 6 -5.94 6 -9 6 C-8.67 4.35 -8.34 2.7 -8 1 C-1.125 0 -1.125 0 0 0 Z " fill="#F0D4B6" transform="translate(32,7)"/>
<path d="M0 0 C2.05078125 0.03255208 4.1015625 0.06510417 6.15234375 0.09765625 C5.83984375 1.97265625 5.83984375 1.97265625 5.15234375 4.09765625 C2.15234375 6.09765625 2.15234375 6.09765625 -1.84765625 6.09765625 C-2.22984392 4.44150968 -2.56160727 2.77308601 -2.84765625 1.09765625 C-1.84765625 0.09765625 -1.84765625 0.09765625 0 0 Z " fill="#F8890F" transform="translate(24.84765625,13.90234375)"/>
<path d="M0 0 C0.33 0 0.66 0 1 0 C1 1.65 1 3.3 1 5 C6.445 4.505 6.445 4.505 12 4 C12 4.66 12 5.32 12 6 C9.03 6 6.06 6 3 6 C3.62841973 9.9714169 3.62841973 9.9714169 6 12 C4.02 12 2.04 12 0 12 C0 8.04 0 4.08 0 0 Z " fill="#D45054" transform="translate(0,8)"/>
<path d="M0 0 C2.31 0 4.62 0 7 0 C7 1.98 7 3.96 7 6 C4.03 5.505 4.03 5.505 1 5 C0.67 3.35 0.34 1.7 0 0 Z " fill="#E42F37" transform="translate(3,14)"/>
<path d="M0 0 C0.99 0.33 1.98 0.66 3 1 C3 2.65 3 4.3 3 6 C0.03 6 -2.94 6 -6 6 C-5.67 5.34 -5.34 4.68 -5 4 C-4.34 4 -3.68 4 -3 4 C-2.67 3.01 -2.34 2.02 -2 1 C-1.34 0.67 -0.68 0.34 0 0 Z " fill="#F9A84E" transform="translate(20,14)"/>
<path d="M0 0 C2.97 0 5.94 0 9 0 C9 0.66 9 1.32 9 2 C8.01 2.495 8.01 2.495 7 3 C7.33 3.66 7.66 4.32 8 5 C4.75791433 4.64950425 3.38472296 4.43778819 1.1875 1.9375 C0.795625 1.298125 0.40375 0.65875 0 0 Z " fill="#FBB858" transform="translate(14,0)"/>
<path d="M0 0 C1.32 0 2.64 0 4 0 C4 0.99 4 1.98 4 3 C4.66 3 5.32 3 6 3 C6 3.66 6 4.32 6 5 C3.69 5.33 1.38 5.66 -1 6 C-0.67 4.02 -0.34 2.04 0 0 Z " fill="#EACDD1" transform="translate(2,7)"/>
<path d="M0 0 C-0.33 1.65 -0.66 3.3 -1 5 C-2.32 4.67 -3.64 4.34 -5 4 C-5.33 2.68 -5.66 1.36 -6 0 C-3 -1 -3 -1 0 0 Z " fill="#EDC3A0" transform="translate(24,8)"/>
<path d="M0 0 C0.639375 0.2475 1.27875 0.495 1.9375 0.75 C2.2675 1.74 2.5975 2.73 2.9375 3.75 C0.6275 3.75 -1.6825 3.75 -4.0625 3.75 C-4.0625 2.76 -4.0625 1.77 -4.0625 0.75 C-2.0625 -0.25 -2.0625 -0.25 0 0 Z " fill="#CD2C0D" transform="translate(16.0625,3.25)"/>
<path d="M0 0 C1.98 0 3.96 0 6 0 C4.35830472 2.02054804 2.69088222 4.02043058 1 6 C0.67 6 0.34 6 0 6 C0 4.02 0 2.04 0 0 Z " fill="#F9F1EC" transform="translate(0,0)"/>
<path d="M0 0 C2.02054804 1.64169528 4.02043058 3.30911778 6 5 C6 5.33 6 5.66 6 6 C4.02 6 2.04 6 0 6 C0 4.02 0 2.04 0 0 Z " fill="#FCF5F1" transform="translate(0,14)"/>
<path d="M0 0 C0.33 0 0.66 0 1 0 C1 1.98 1 3.96 1 6 C-0.98 6 -2.96 6 -5 6 C-3.35830472 3.97945196 -1.69088222 1.97956942 0 0 Z " fill="#FDFAF0" transform="translate(32,14)"/>
<path d="M0 0 C1.98 0 3.96 0 6 0 C6 1.98 6 3.96 6 6 C3.97945196 4.35830472 1.97956942 2.69088222 0 1 C0 0.67 0 0.34 0 0 Z " fill="#FEF7EA" transform="translate(27,0)"/>
</svg>
