<?xml version="1.0" encoding="UTF-8"?>
<svg version="1.1" xmlns="http://www.w3.org/2000/svg" width="75" height="20">
<path d="M0 0 C24.75 0 49.5 0 75 0 C75 6.6 75 13.2 75 20 C50.25 20 25.5 20 0 20 C0 13.4 0 6.8 0 0 Z " fill="#F8FAFB" transform="translate(0,0)"/>
<path d="M0 0 C3.3125 -0.25 3.3125 -0.25 7 0 C7.45375 0.66 7.9075 1.32 8.375 2 C9.8040448 4.23148511 9.8040448 4.23148511 12.17578125 4.265625 C14.46191048 4.25140336 16.72059802 4.17203034 19 4 C19 2.68 19 1.36 19 0 C19.99 0 20.98 0 22 0 C22 4.29 22 8.58 22 13 C16.85191212 14.02961758 14.05640946 13.7713167 9 13 C8.67 11.02 8.34 9.04 8 7 C6.02 7.33 4.04 7.66 2 8 C2 9.32 2 10.64 2 12 C1.01 12 0.02 12 -1 12 C-0.67 8.04 -0.34 4.08 0 0 Z " fill="#509FD6" transform="translate(53,5)"/>
<path d="M0 0 C1.60875 -0.020625 3.2175 -0.04125 4.875 -0.0625 C5.77992188 -0.07410156 6.68484375 -0.08570313 7.6171875 -0.09765625 C10 -0 10 -0 12 1 C12.36103152 7.3782235 12.36103152 7.3782235 10.875 9.9375 C8.214973 11.44484863 5.99793795 11.19986253 3 11 C2.67 12.98 2.34 14.96 2 17 C1.34 16.67 0.68 16.34 0 16 C0 10.72 0 5.44 0 0 Z " fill="#2B3F85" transform="translate(2,0)"/>
<path d="M0 0 C5.28 0 10.56 0 16 0 C16 1.65 16 3.3 16 5 C15.01 5 14.02 5 13 5 C13 6.32 13 7.64 13 9 C9.7 9.33 6.4 9.66 3 10 C2.34 8.68 1.68 7.36 1 6 C-2.56206661 5.18129815 -2.56206661 5.18129815 -6 5 C-6.33 5.99 -6.66 6.98 -7 8 C-7 6.68 -7 5.36 -7 4 C-4.69 4 -2.38 4 0 4 C0 2.68 0 1.36 0 0 Z " fill="#F9FDFE" transform="translate(59,0)"/>
<path d="M0 0 C0.66 0 1.32 0 2 0 C2.59198743 5.34902924 3.14187241 10.60884846 3 16 C3.185625 15.21625 3.37125 14.4325 3.5625 13.625 C4.036875 12.75875 4.51125 11.8925 5 11 C6.155 10.71125 7.31 10.4225 8.5 10.125 C9.655 9.75375 10.81 9.3825 12 9 C13.54086322 5.48599332 13.54086322 5.48599332 14 2 C15.98362069 4.91708924 15.9876191 6.12380904 15.625 9.75 C15.41875 10.8225 15.2125 11.895 15 13 C13.02 13.33 11.04 13.66 9 14 C8.67 15.98 8.34 17.96 8 20 C5.36 20 2.72 20 0 20 C0 13.4 0 6.8 0 0 Z " fill="#959ABC" transform="translate(0,0)"/>
<path d="M0 0 C2.53125 -0.3984375 2.53125 -0.3984375 5.5 -0.375 C6.4796875 -0.38273438 7.459375 -0.39046875 8.46875 -0.3984375 C9.72171875 -0.20121094 9.72171875 -0.20121094 11 0 C11.66 0.99 12.32 1.98 13 3 C13.66 2.01 14.32 1.02 15 0 C15.99 0.33 16.98 0.66 18 1 C16.88321917 2.6721852 15.75633648 4.33762803 14.625 6 C13.99851562 6.928125 13.37203125 7.85625 12.7265625 8.8125 C12.15679687 9.534375 11.58703125 10.25625 11 11 C10.34 11 9.68 11 9 11 C9 8.03 9 5.06 9 2 C8.34 2 7.68 2 7 2 C7 3.98 7 5.96 7 8 C4.36 8 1.72 8 -1 8 C-1.625 5.6875 -1.625 5.6875 -2 3 C-1.34 2.01 -0.68 1.02 0 0 Z " fill="#5B6790" transform="translate(34,9)"/>
<path d="M0 0 C0.33 1.98 0.66 3.96 1 6 C5.29 6 9.58 6 14 6 C14 6.66 14 7.32 14 8 C4.76 8 -4.48 8 -14 8 C-13.34 6.68 -12.68 5.36 -12 4 C-9.03 4.495 -9.03 4.495 -6 5 C-6 3.68 -6 2.36 -6 1 C-3.92446352 0.4465236 -2.15634036 0 0 0 Z " fill="#F5FCFC" transform="translate(61,12)"/>
<path d="M0 0 C0.99 0 1.98 0 3 0 C3 4.29 3 8.58 3 13 C-2.14808788 14.02961758 -4.94359054 13.7713167 -10 13 C-10 12.67 -10 12.34 -10 12 C-7.36 12 -4.72 12 -2 12 C-2 9.69 -2 7.38 -2 5 C-2.99 5.33 -3.98 5.66 -5 6 C-5 7.32 -5 8.64 -5 10 C-5.99 10 -6.98 10 -8 10 C-8.33 8.02 -8.66 6.04 -9 4 C-6.03 4 -3.06 4 0 4 C0 2.68 0 1.36 0 0 Z " fill="#D6F2FE" transform="translate(72,5)"/>
<path d="M0 0 C2.33294775 -0.04241723 4.66702567 -0.04092937 7 0 C8 1 8 1 8.1875 3.4375 C8 6 8 6 6 8 C4.68 8 3.36 8 2 8 C2 9.32 2 10.64 2 12 C1.01 12 0.02 12 -1 12 C-1.02712066 10.56260487 -1.04645067 9.12506137 -1.0625 7.6875 C-1.07410156 6.88699219 -1.08570312 6.08648437 -1.09765625 5.26171875 C-1 3 -1 3 0 0 Z " fill="#434D82" transform="translate(24,5)"/>
<path d="M0 0 C1.98362069 2.91708924 1.9876191 4.12380904 1.625 7.75 C1.41875 8.8225 1.2125 9.895 1 11 C-0.98 11.33 -2.96 11.66 -5 12 C-5.33 13.65 -5.66 15.3 -6 17 C-6.33 16.01 -6.66 15.02 -7 14 C-7.99 14 -8.98 14 -10 14 C-9.67 12.35 -9.34 10.7 -9 9 C-7.329375 8.7215625 -7.329375 8.7215625 -5.625 8.4375 C-4.42875 7.963125 -3.2325 7.48875 -2 7 C-0.45913678 3.48599332 -0.45913678 3.48599332 0 0 Z " fill="#2695CE" transform="translate(14,2)"/>
<path d="M0 0 C2.05078125 0.03255208 4.1015625 0.06510417 6.15234375 0.09765625 C5.40234375 4.84765625 5.40234375 4.84765625 3.15234375 7.09765625 C0.02734375 7.22265625 0.02734375 7.22265625 -2.84765625 7.09765625 C-2.89019981 5.09810879 -2.88846408 3.09723989 -2.84765625 1.09765625 C-1.84765625 0.09765625 -1.84765625 0.09765625 0 0 Z " fill="#1F3168" transform="translate(7.84765625,3.90234375)"/>
<path d="M0 0 C0.99 0.33 1.98 0.66 3 1 C1.88321917 2.6721852 0.75633648 4.33762803 -0.375 6 C-1.00148438 6.928125 -1.62796875 7.85625 -2.2734375 8.8125 C-2.84320313 9.534375 -3.41296875 10.25625 -4 11 C-4.66 11 -5.32 11 -6 11 C-5.67 8.69 -5.34 6.38 -5 4 C-4.01 3.67 -3.02 3.34 -2 3 C-1.34 2.01 -0.68 1.02 0 0 Z " fill="#394A80" transform="translate(49,9)"/>
<path d="M0 0 C2.33294775 -0.04241723 4.66702567 -0.04092937 7 0 C8 1 8 1 8.0625 3.5625 C8.041875 4.366875 8.02125 5.17125 8 6 C6.68 6.33 5.36 6.66 4 7 C4.33 5.68 4.66 4.36 5 3 C3.35 3 1.7 3 0 3 C0 2.01 0 1.02 0 0 Z " fill="#3F4B82" transform="translate(24,5)"/>
<path d="M0 0 C0.99 0 1.98 0 3 0 C2.67 3.63 2.34 7.26 2 11 C1.01 11.33 0.02 11.66 -1 12 C-0.67 8.04 -0.34 4.08 0 0 Z " fill="#40A0D8" transform="translate(72,5)"/>
<path d="M0 0 C1.15941038 3.47823115 0.70820884 5.45895578 0 9 C-0.99 9.33 -1.98 9.66 -3 10 C-4.34090759 10.65129797 -5.67592331 11.31513275 -7 12 C-4.70965533 7.97215247 -2.40174242 3.96287499 0 0 Z " fill="#DEEBF6" transform="translate(52,8)"/>
<path d="M0 0 C2.97 0 5.94 0 9 0 C8.67 1.32 8.34 2.64 8 4 C7.67 3.01 7.34 2.02 7 1 C6.01 1.33 5.02 1.66 4 2 C4 3.32 4 4.64 4 6 C3.01 6 2.02 6 1 6 C0.67 4.02 0.34 2.04 0 0 Z " fill="#A4D4ED" transform="translate(63,9)"/>
<path d="M0 0 C0.66 0 1.32 0 2 0 C3.125 6.75 3.125 6.75 2 9 C0.68 9 -0.64 9 -2 9 C-2 8.34 -2 7.68 -2 7 C-1.34 7 -0.68 7 0 7 C0 4.69 0 2.38 0 0 Z " fill="#E6F0F4" transform="translate(41,11)"/>
<path d="M0 0 C0.99 0.33 1.98 0.66 3 1 C2.67 2.98 2.34 4.96 2 7 C1.01 7 0.02 7 -1 7 C-1.04254356 5.00045254 -1.04080783 2.99958364 -1 1 C-0.67 0.67 -0.34 0.34 0 0 Z " fill="#419ECA" transform="translate(53,10)"/>
<path d="M0 0 C2.31 0 4.62 0 7 0 C7 0.33 7 0.66 7 1 C5.02 1 3.04 1 1 1 C1 1.66 1 2.32 1 3 C2.32 3 3.64 3 5 3 C5 3.99 5 4.98 5 6 C3.35 5.67 1.7 5.34 0 5 C0 3.35 0 1.7 0 0 Z " fill="#85BFE4" transform="translate(53,5)"/>
<path d="M0 0 C0.99 0 1.98 0 3 0 C3.33 1.32 3.66 2.64 4 4 C1.36 4 -1.28 4 -4 4 C-4 3.34 -4 2.68 -4 2 C-2.68 2 -1.36 2 0 2 C0 1.34 0 0.68 0 0 Z " fill="#6AC2E7" transform="translate(4,16)"/>
<path d="M0 0 C1.98362069 2.91708924 1.9876191 4.12380904 1.625 7.75 C1.41875 8.8225 1.2125 9.895 1 11 C0.67 10.34 0.34 9.68 0 9 C-0.99 8.67 -1.98 8.34 -3 8 C-2.34 7.34 -1.68 6.68 -1 6 C-0.60235737 4.01178687 -0.26224651 2.01055661 0 0 Z " fill="#3B91C1" transform="translate(14,2)"/>
<path d="M0 0 C1.32 0 2.64 0 4 0 C4 1.65 4 3.3 4 5 C2.68 5.33 1.36 5.66 0 6 C0 4.02 0 2.04 0 0 Z " fill="#299CD2" transform="translate(66,10)"/>
<path d="M0 0 C0.99 0 1.98 0 3 0 C2.67 1.32 2.34 2.64 2 4 C2.66 4.33 3.32 4.66 4 5 C2.68 5 1.36 5 0 5 C-0.33 6.32 -0.66 7.64 -1 9 C-0.67 6.03 -0.34 3.06 0 0 Z " fill="#8187A7" transform="translate(26,8)"/>
<path d="M0 0 C2.31 0 4.62 0 7 0 C7 1.65 7 3.3 7 5 C6.34 4.67 5.68 4.34 5 4 C5 3.34 5 2.68 5 2 C3.35 2 1.7 2 0 2 C0 1.34 0 0.68 0 0 Z " fill="#2897D1" transform="translate(54,6)"/>
<path d="M0 0 C0.33 0 0.66 0 1 0 C1 1.65 1 3.3 1 5 C-0.98 5.33 -2.96 5.66 -5 6 C-5 5.34 -5 4.68 -5 4 C-4.34 4 -3.68 4 -3 4 C-2.67 3.01 -2.34 2.02 -2 1 C-1.67 1.66 -1.34 2.32 -1 3 C-0.67 2.01 -0.34 1.02 0 0 Z " fill="#5DADDC" transform="translate(61,7)"/>
</svg>
