<?xml version="1.0" encoding="UTF-8"?>
<svg version="1.1" xmlns="http://www.w3.org/2000/svg" width="28" height="20">
<path d="M0 0 C9.24 0 18.48 0 28 0 C28 6.6 28 13.2 28 20 C18.76 20 9.52 20 0 20 C0 13.4 0 6.8 0 0 Z " fill="#D3EAEA" transform="translate(0,0)"/>
<path d="M0 0 C8.91 0 17.82 0 27 0 C27 5.28 27 10.56 27 16 C17.76 16 8.52 16 -1 16 C-1 14.68 -1 13.36 -1 12 C0.14339844 11.95101563 1.28679688 11.90203125 2.46484375 11.8515625 C3.95575473 11.77654811 5.44663892 11.70099972 6.9375 11.625 C7.69224609 11.5940625 8.44699219 11.563125 9.22460938 11.53125 C11.15507395 11.4273685 13.07942081 11.22104386 15 11 C15.33 10.34 15.66 9.68 16 9 C18.31 9 20.62 9 23 9 C23 6.69 23 4.38 23 2 C22.54625 2.45375 22.0925 2.9075 21.625 3.375 C20.41666667 4.58333333 19.20833333 5.79166667 18 7 C17.01 6.01 16.02 5.02 15 4 C15.99 4 16.98 4 18 4 C18 3.34 18 2.68 18 2 C17.29875 2.185625 16.5975 2.37125 15.875 2.5625 C12.66111302 3.05156976 10.16439664 2.66231558 7 2 C6.34 3.32 5.68 4.64 5 6 C5 4.68 5 3.36 5 2 C3.35 2 1.7 2 0 2 C0 1.34 0 0.68 0 0 Z " fill="#F4FCFC" transform="translate(1,4)"/>
<path d="M0 0 C9.24 0 18.48 0 28 0 C28 1.32 28 2.64 28 4 C18.76 4 9.52 4 0 4 C0 2.68 0 1.36 0 0 Z " fill="#F3AC3B" transform="translate(0,16)"/>
<path d="M0 0 C9.24 0 18.48 0 28 0 C28 0.99 28 1.98 28 3 C18.76 3 9.52 3 0 3 C0 2.01 0 1.02 0 0 Z " fill="#0C9ABE" transform="translate(0,0)"/>
<path d="M0 0 C1.32 0 2.64 0 4 0 C4 1.32 4 2.64 4 4 C4.45375 3.34 4.9075 2.68 5.375 2 C5.91125 1.34 6.4475 0.68 7 0 C7.66 0 8.32 0 9 0 C10.35439668 2.70879335 10.06501451 5.00933268 10 8 C6.37 8 2.74 8 -1 8 C-1.33 7.34 -1.66 6.68 -2 6 C-1.34 5.67 -0.68 5.34 0 5 C-0.2784375 4.0409375 -0.2784375 4.0409375 -0.5625 3.0625 C-0.7790625 2.0415625 -0.7790625 2.0415625 -1 1 C-0.67 0.67 -0.34 0.34 0 0 Z " fill="#54AEC6" transform="translate(15,6)"/>
<path d="M0 0 C1.32 0 2.64 0 4 0 C4 0.66 4 1.32 4 2 C11.26 2 18.52 2 26 2 C26 1.34 26 0.68 26 0 C26.66 0 27.32 0 28 0 C28 0.99 28 1.98 28 3 C18.76 3 9.52 3 0 3 C0 2.01 0 1.02 0 0 Z " fill="#249ABB" transform="translate(0,0)"/>
<path d="M0 0 C1.32 0 2.64 0 4 0 C3.67 2.31 3.34 4.62 3 7 C1.68 7.33 0.36 7.66 -1 8 C-1.33 7.34 -1.66 6.68 -2 6 C-1.34 5.67 -0.68 5.34 0 5 C-0.2784375 4.0409375 -0.2784375 4.0409375 -0.5625 3.0625 C-0.7790625 2.0415625 -0.7790625 2.0415625 -1 1 C-0.67 0.67 -0.34 0.34 0 0 Z " fill="#4BA9C3" transform="translate(15,6)"/>
<path d="M0 0 C0.66 0 1.32 0 2 0 C1.34 2.64 0.68 5.28 0 8 C-0.99 8 -1.98 8 -3 8 C-3.33 6.02 -3.66 4.04 -4 2 C-3.01 2 -2.02 2 -1 2 C-0.67 1.34 -0.34 0.68 0 0 Z " fill="#57ADC0" transform="translate(8,6)"/>
<path d="M0 0 C0.33 0.99 0.66 1.98 1 3 C-2.69541586 3.95024979 -5.30458414 3.95024979 -9 3 C-8.67 2.34 -8.34 1.68 -8 1 C-6.865625 1.020625 -5.73125 1.04125 -4.5625 1.0625 C-1.18424326 1.41577477 -1.18424326 1.41577477 0 0 Z " fill="#D6F7FA" transform="translate(25,12)"/>
<path d="M0 0 C1.32 0 2.64 0 4 0 C4 0.66 4 1.32 4 2 C5.98 2 7.96 2 10 2 C10 2.33 10 2.66 10 3 C6.7 3 3.4 3 0 3 C0 2.01 0 1.02 0 0 Z " fill="#1A9BB1" transform="translate(0,0)"/>
<path d="M0 0 C0.66 0 1.32 0 2 0 C1.67 2.64 1.34 5.28 1 8 C0.34 8 -0.32 8 -1 8 C-0.67 5.36 -0.34 2.72 0 0 Z " fill="#60A9C1" transform="translate(11,6)"/>
</svg>
