<?xml version="1.0" encoding="UTF-8"?>
<svg version="1.1" xmlns="http://www.w3.org/2000/svg" width="75" height="60">
<path d="M0 0 C24.75 0 49.5 0 75 0 C75 19.8 75 39.6 75 60 C50.25 60 25.5 60 0 60 C0 40.2 0 20.4 0 0 Z " fill="#FCFCFC" transform="translate(0,0)"/>
<path d="M0 0 C0 8.25 0 16.5 0 25 C-3.96 25.99 -7.92 26.98 -12 28 C-10.35 26.02 -8.7 24.04 -7 22 C-11.72426186 25.33477307 -14.77283646 29.28525227 -18 34 C-18.54269531 34.78890625 -19.08539063 35.5778125 -19.64453125 36.390625 C-23.34577019 42.11808963 -25.16523584 47.23553178 -26 54 C-26.99 54 -27.98 54 -29 54 C-29.14964803 49.6076385 -29.25781326 45.21667234 -29.32958984 40.82250977 C-29.35954481 39.33168658 -29.40032569 37.84103632 -29.45263672 36.35083008 C-29.96943486 21.23701771 -29.96943486 21.23701771 -24.68896484 14.72485352 C-18.74675911 8.65638235 -8.96753671 0 0 0 Z " fill="#888888" transform="translate(75,5)"/>
<path d="M0 0 C0.66 0.33 1.32 0.66 2 1 C0.68 2.65 -0.64 4.3 -2 6 C-1.278125 5.67 -0.55625 5.34 0.1875 5 C3 4 3 4 8 4 C8 13.9 8 23.8 8 34 C-0.91 34 -9.82 34 -19 34 C-15.52448733 18.93944511 -15.52448733 18.93944511 -10 12 C-9.30777344 11.10796875 -8.61554687 10.2159375 -7.90234375 9.296875 C-2.74538591 2.74538591 -2.74538591 2.74538591 0 0 Z " fill="#FCFCFC" transform="translate(67,26)"/>
<path d="M0 0 C16.83 0 33.66 0 51 0 C51 1.65 51 3.3 51 5 C50.10539062 5.4125 49.21078125 5.825 48.2890625 6.25 C37.6964011 11.25319213 27.76683504 16.28961114 22.828125 27.5234375 C21.6458463 31.05912002 21.20660034 34.28119393 21 38 C20.34 38 19.68 38 19 38 C18.9906543 37.36497559 18.98130859 36.72995117 18.97167969 36.07568359 C18.91771267 33.174692 18.83411873 30.27526756 18.75 27.375 C18.73582031 26.37597656 18.72164062 25.37695312 18.70703125 24.34765625 C18.51112585 18.43131308 18.07177892 14.61516579 14 10 C9.86883767 6.16153136 5.13422113 3.31039951 0 1 C0 0.67 0 0.34 0 0 Z " fill="#FCFCFC" transform="translate(24,0)"/>
<path d="M0 0 C8.44223378 3.65968755 15.73688286 7.47376571 20 16 C20.08426094 17.6674606 20.10725143 19.33825187 20.09765625 21.0078125 C20.09443359 21.99394531 20.09121094 22.98007812 20.08789062 23.99609375 C20.07951172 25.02863281 20.07113281 26.06117187 20.0625 27.125 C20.05798828 28.16527344 20.05347656 29.20554687 20.04882812 30.27734375 C20.03701952 32.85161962 20.02055075 35.42578146 20 38 C12.243201 36.55307398 6.55659236 32.44179419 1.44433594 26.46313477 C-1.31107758 21.76412073 -0.72524785 16.78697148 -0.4375 11.5 C-0.40591797 10.39140625 -0.37433594 9.2828125 -0.34179688 8.140625 C-0.25983829 5.42428324 -0.14518763 2.71357284 0 0 Z " fill="#888888" transform="translate(23,0)"/>
<path d="M0 0 C-0.271053 6.50527196 -2.54881653 10.30101868 -7 15 C-15.02083333 22 -15.02083333 22 -17 22 C-17.05449838 20.27119018 -17.09301688 18.54187288 -17.125 16.8125 C-17.14820313 15.84957031 -17.17140625 14.88664062 -17.1953125 13.89453125 C-16.93382098 10.01922693 -16.238728 7.18201516 -13.37890625 4.453125 C-12.77949219 4.05609375 -12.18007813 3.6590625 -11.5625 3.25 C-10.96566406 2.84265625 -10.36882812 2.4353125 -9.75390625 2.015625 C-6.44682788 0.10061302 -3.73422699 -0.10092505 0 0 Z " fill="#898989" transform="translate(75,32)"/>
<path d="M0 0 C0.66 0.33 1.32 0.66 2 1 C0.68 2.65 -0.64 4.3 -2 6 C-1.278125 5.67 -0.55625 5.34 0.1875 5 C3.01697427 3.99396471 5.02895466 3.83022598 8 4 C8 4.66 8 5.32 8 6 C7.00419922 6.25523438 7.00419922 6.25523438 5.98828125 6.515625 C4.66376953 6.87914062 4.66376953 6.87914062 3.3125 7.25 C2.44238281 7.48203125 1.57226562 7.7140625 0.67578125 7.953125 C-2.6095746 9.2384905 -4.56914164 10.41721299 -7 13 C-7.63561497 15.76104239 -8.0385453 18.21064309 -8.3125 21 C-9.30016054 28.30852516 -9.30016054 28.30852516 -11.9609375 30.9375 C-14.1875 32 -14.1875 32 -18 33 C-17.94223695 19.42568318 -9.28270727 9.28270727 0 0 Z " fill="#E3E3E3" transform="translate(67,26)"/>
<path d="M0 0 C5.875 0.875 5.875 0.875 7 2 C7.1875 4.4375 7.1875 4.4375 7 7 C5 9 5 9 2.375 9.125 C1.59125 9.08375 0.8075 9.0425 0 9 C0 6.03 0 3.06 0 0 Z " fill="#9E9E9E" transform="translate(35,45)"/>
<path d="M0 0 C0 2.64 0 5.28 0 8 C-3.96 8.99 -7.92 9.98 -12 11 C-4.24590164 0 -4.24590164 0 0 0 Z " fill="#8E8E8E" transform="translate(75,22)"/>
<path d="M0 0 C0.82558668 2.91618521 1.18920445 5.59535494 1.25 8.625 C1.27578125 9.40101562 1.3015625 10.17703125 1.328125 10.9765625 C1.21984375 11.64429688 1.1115625 12.31203125 1 13 C-2 15 -2 15 -5 15 C-3.97137215 9.55432314 -2.75385216 4.88182883 0 0 Z " fill="#919191" transform="translate(56,42)"/>
<path d="M0 0 C0.66 0.33 1.32 0.66 2 1 C0.68 2.65 -0.64 4.3 -2 6 C-1.278125 5.67 -0.55625 5.34 0.1875 5 C3.01697427 3.99396471 5.02895466 3.83022598 8 4 C8 4.66 8 5.32 8 6 C7.33613281 6.19335938 6.67226562 6.38671875 5.98828125 6.5859375 C-0.59789309 8.52751352 -0.59789309 8.52751352 -7 11 C-6.40716379 7.60807637 -5.23256811 5.7892243 -2.9375 3.25 C-2.38964844 2.63640625 -1.84179688 2.0228125 -1.27734375 1.390625 C-0.85582031 0.93171875 -0.43429688 0.4728125 0 0 Z " fill="#EAEAEA" transform="translate(67,26)"/>
<path d="M0 0 C0.66 0 1.32 0 2 0 C2.66 0.99 3.32 1.98 4 3 C4.33 2.01 4.66 1.02 5 0 C5.66 0 6.32 0 7 0 C7 2.97 7 5.94 7 9 C6.01 8.67 5.02 8.34 4 8 C3.67 7.34 3.34 6.68 3 6 C2.67 6.99 2.34 7.98 2 9 C1.34 9 0.68 9 0 9 C0 6.03 0 3.06 0 0 Z " fill="#9F9F9F" transform="translate(26,45)"/>
<path d="M0 0 C1.65 0 3.3 0 5 0 C5.59732819 2.76264289 6 5.16032769 6 8 C5.01 7.67 4.02 7.34 3 7 C2.67 7.66 2.34 8.32 2 9 C1.34 9 0.68 9 0 9 C0 6.03 0 3.06 0 0 Z " fill="#ABABAB" transform="translate(8,45)"/>
<path d="M0 0 C0.66 0 1.32 0 2 0 C2 0.99 2 1.98 2 3 C2.66 3 3.32 3 4 3 C3.67 2.01 3.34 1.02 3 0 C3.99 0 4.98 0 6 0 C6.04241723 2.33294775 6.04092937 4.66702567 6 7 C5 8 5 8 2.4375 8.0625 C1.633125 8.041875 0.82875 8.02125 0 8 C0 5.36 0 2.72 0 0 Z " fill="#A2A2A2" transform="translate(0,46)"/>
<path d="M0 0 C0.66 0 1.32 0 2 0 C2.99 2.97 3.98 5.94 5 9 C4.34 9 3.68 9 3 9 C3 8.34 3 7.68 3 7 C1.68 7 0.36 7 -1 7 C-1 7.66 -1 8.32 -1 9 C-1.66 9 -2.32 9 -3 9 C-2.01 6.03 -1.02 3.06 0 0 Z " fill="#A3A3A3" transform="translate(19,45)"/>
<path d="M0 0 C1.32 0 2.64 0 4 0 C3.40138258 2.35171131 2.73075648 4.6859378 2 7 C1.01 7.495 1.01 7.495 0 8 C-0.66 7.34 -1.32 6.68 -2 6 C-1.34 4.02 -0.68 2.04 0 0 Z " fill="#EFEFEF" transform="translate(14,47)"/>
<path d="M0 0 C1.32 0.33 2.64 0.66 4 1 C3.67 2.32 3.34 3.64 3 5 C2.01 5 1.02 5 0 5 C0 3.35 0 1.7 0 0 Z " fill="#F2F2F2" transform="translate(37,47)"/>
<path d="M0 0 C0 1.65 0 3.3 0 5 C-2.97 4.505 -2.97 4.505 -6 4 C-2.17391304 0 -2.17391304 0 0 0 Z " fill="#B3B3B3" transform="translate(75,22)"/>
</svg>
