<?xml version="1.0" encoding="UTF-8"?>
<svg version="1.1" xmlns="http://www.w3.org/2000/svg" width="80" height="60">
<path d="M0 0 C26.4 0 52.8 0 80 0 C80 19.8 80 39.6 80 60 C53.6 60 27.2 60 0 60 C0 40.2 0 20.4 0 0 Z " fill="#EDEDED" transform="translate(0,0)"/>
<path d="M0 0 C8.03189067 -0.11580443 16.06343316 -0.20466834 24.09595203 -0.25906086 C27.82574237 -0.28516566 31.554962 -0.32057743 35.28442383 -0.37719727 C38.88303426 -0.4314892 42.48109552 -0.46141389 46.08008385 -0.47438622 C47.45369809 -0.48363151 48.82728194 -0.50168603 50.20066261 -0.52865028 C52.12281655 -0.564891 54.04552211 -0.56704194 55.96801758 -0.56762695 C57.06277908 -0.57873001 58.15754059 -0.58983307 59.28547668 -0.60127258 C62 0 62 0 63.6894989 2.47297668 C64.33819695 3.72385323 64.33819695 3.72385323 65 5 C65.99 5.33 66.98 5.66 68 6 C68.14510162 9.27036728 68.23399373 12.53991007 68.3125 15.8125 C68.35439453 16.74126953 68.39628906 17.67003906 68.43945312 18.62695312 C68.48547782 21.17672132 68.4849824 23.49512676 68 26 C65.54296875 27.94921875 65.54296875 27.94921875 63 29 C62.505 30.485 62.505 30.485 62 32 C41.54 32 21.08 32 0 32 C-0.66 30.68 -1.32 29.36 -2 28 C-4.0335948 26.73195434 -4.0335948 26.73195434 -6 26 C-6.14510162 22.72963272 -6.23399373 19.46008993 -6.3125 16.1875 C-6.35439453 15.25873047 -6.39628906 14.32996094 -6.43945312 13.37304688 C-6.48547782 10.82327868 -6.4849824 8.50487324 -6 6 C-3.54296875 4.05078125 -3.54296875 4.05078125 -1 3 C-0.67 2.01 -0.34 1.02 0 0 Z " fill="#8B8B8B" transform="translate(9,18)"/>
<path d="M0 0 C26.4 0 52.8 0 80 0 C80 4.29 80 8.58 80 13 C73.84765625 11.6328125 73.84765625 11.6328125 72 11 C71.505 10.01 71.505 10.01 71 9 C68.69 9 66.38 9 64 9 C64.495 10.485 64.495 10.485 65 12 C64.34 12.99 63.68 13.98 63 15 C60.78536987 15.36076355 60.78536987 15.36076355 57.99951172 15.34057617 C56.43811966 15.34023628 56.43811966 15.34023628 54.84518433 15.33988953 C53.71807037 15.32440567 52.59095642 15.30892181 51.4296875 15.29296875 C49.70264084 15.28660149 49.70264084 15.28660149 47.94070435 15.28010559 C44.25190145 15.26327052 40.56363864 15.22560874 36.875 15.1875 C34.37891412 15.17245944 31.88281971 15.15876995 29.38671875 15.14648438 C23.25762725 15.1133512 17.1288522 15.06310389 11 15 C11.66 13.68 12.32 12.36 13 11 C13.99 11 14.98 11 16 11 C14.16116119 8.71271266 14.16116119 8.71271266 11.375 8.875 C10.59125 8.91625 9.8075 8.9575 9 9 C8.67 9.66 8.34 10.32 8 11 C5.37805894 11.89800095 2.71048036 12.39767103 0 13 C0 8.71 0 4.42 0 0 Z M65 10 C67 11 67 11 67 11 Z " fill="#FDFDFD" transform="translate(0,0)"/>
<path d="M0 0 C0.226875 0.61875 0.45375 1.2375 0.6875 1.875 C2.08514186 4.6090136 2.08514186 4.6090136 7 6 C7 13.92 7 21.84 7 30 C5.35 30.66 3.7 31.32 2 32 C1.10613836 34.54775306 1.10613836 34.54775306 1 37 C-0.98 37.33 -2.96 37.66 -5 38 C-4.34 38.66 -3.68 39.32 -3 40 C-3 41.32 -3 42.64 -3 44 C-19.17 44 -35.34 44 -52 44 C-52 42.02 -52 40.04 -52 38 C-56.29 37.67 -60.58 37.34 -65 37 C-65.33 35.35 -65.66 33.7 -66 32 C-68.475 31.01 -68.475 31.01 -71 30 C-71 22.08 -71 14.16 -71 6 C-70.67 6 -70.34 6 -70 6 C-69.67 13.26 -69.34 20.52 -69 28 C-66.525 28.99 -66.525 28.99 -64 30 C-63.67 31.32 -63.34 32.64 -63 34 C-42.54 34 -22.08 34 -1 34 C-0.67 32.68 -0.34 31.36 0 30 C0.66 29.34 1.32 28.68 2 28 C2.99 28 3.98 28 5 28 C5 21.4 5 14.8 5 8 C3.68 7.67 2.36 7.34 1 7 C-1 4 -1 4 -0.625 1.8125 C-0.41875 1.214375 -0.2125 0.61625 0 0 Z " fill="#E4E4E4" transform="translate(72,16)"/>
<path d="M0 0 C12.21 0 24.42 0 37 0 C36.67 0.99 36.34 1.98 36 3 C34.22265625 3.5546875 34.22265625 3.5546875 32.0625 3.875 C29.90325577 4.27054856 29.90325577 4.27054856 28 5 C26.40311361 7.48313064 26.40311361 7.48313064 26 10 C25.01 10 24.02 10 23 10 C23 10.99 23 11.98 23 13 C20.1086216 12.59841967 18.32763633 12.25596589 16 10.4375 C13.51091681 8.64847145 11.99743256 8.75021395 9 9 C8.67 9.66 8.34 10.32 8 11 C5.37805894 11.89800095 2.71048036 12.39767103 0 13 C0 8.71 0 4.42 0 0 Z " fill="#FEFEFE" transform="translate(0,0)"/>
<path d="M0 0 C2.31 0 4.62 0 7 0 C7.33 0.99 7.66 1.98 8 3 C9.11375 3.103125 10.2275 3.20625 11.375 3.3125 C13.169375 3.6528125 13.169375 3.6528125 15 4 C17 7 17 7 17 10 C18.65 10 20.3 10 22 10 C21.67 10.99 21.34 11.98 21 13 C21.99 13.33 22.98 13.66 24 14 C17.30066359 14.47663263 13.47051973 14.2982655 8 10 C5.77397385 9.23060319 5.77397385 9.23060319 4 9 C4.7763932 12.0745356 4.7763932 12.0745356 7 14 C4.36 14 1.72 14 -1 14 C-0.01 12.35 0.98 10.7 2 9 C0.906875 9.45375 -0.18625 9.9075 -1.3125 10.375 C-1.92738281 10.63023438 -2.54226562 10.88546875 -3.17578125 11.1484375 C-5.26533932 12.06806692 -5.26533932 12.06806692 -8 14 C-10.1875 13.625 -10.1875 13.625 -12 13 C-11.01 13 -10.02 13 -9 13 C-9.66 12.01 -10.32 11.02 -11 10 C-10.8125 7.4375 -10.8125 7.4375 -10 5 C-6.5647952 2.70986347 -5.014669 2.82157027 -1 3 C-0.67 2.01 -0.34 1.02 0 0 Z " fill="#F0F0F0" transform="translate(37,0)"/>
<path d="M0 0 C0.3403125 0.928125 0.3403125 0.928125 0.6875 1.875 C2.08514186 4.6090136 2.08514186 4.6090136 7 6 C7 13.92 7 21.84 7 30 C5.35 30.66 3.7 31.32 2 32 C1.10613836 34.54775306 1.10613836 34.54775306 1 37 C-1.97 37.495 -1.97 37.495 -5 38 C-4.34 38.66 -3.68 39.32 -3 40 C-3 41.32 -3 42.64 -3 44 C-11.91 44 -20.82 44 -30 44 C-30 42.35 -30 40.7 -30 39 C-29.0409375 39.2784375 -29.0409375 39.2784375 -28.0625 39.5625 C-27.381875 39.706875 -26.70125 39.85125 -26 40 C-25.505 39.505 -25.505 39.505 -25 39 C-24.01 39 -23.02 39 -22 39 C-22 39.66 -22 40.32 -22 41 C-21.34 41 -20.68 41 -20 41 C-20 39.68 -20 38.36 -20 37 C-13.28837062 36.11978631 -6.76594019 35.88618045 0 36 C-0.19078125 35.21238281 -0.3815625 34.42476562 -0.578125 33.61328125 C-1 31 -1 31 0.25 29.1875 C2 28 2 28 5 28 C5 21.4 5 14.8 5 8 C3.68 7.67 2.36 7.34 1 7 C-1 4 -1 4 -0.625 1.8125 C-0.315625 0.9153125 -0.315625 0.9153125 0 0 Z " fill="#E6E6E6" transform="translate(72,16)"/>
<path d="M0 0 C0.33 0 0.66 0 1 0 C1 8.58 1 17.16 1 26 C2.65 26.33 4.3 26.66 6 27 C7 28 7 28 7.0625 30.5625 C7.041875 31.366875 7.02125 32.17125 7 33 C8.37285156 32.96519531 8.37285156 32.96519531 9.7734375 32.9296875 C10.96195313 32.91164062 12.15046875 32.89359375 13.375 32.875 C14.55835938 32.85179687 15.74171875 32.82859375 16.9609375 32.8046875 C20 33 20 33 22 35 C21.34 35 20.68 35 20 35 C20 36.65 20 38.3 20 40 C13.4 40 6.8 40 0 40 C0 26.8 0 13.6 0 0 Z " fill="#FDFDFD" transform="translate(0,20)"/>
<path d="M0 0 C0.33 0 0.66 0 1 0 C1.33 7.26 1.66 14.52 2 22 C4.475 22.99 4.475 22.99 7 24 C8.24546405 26.49092811 7.7767578 27.41080733 7 30 C8.18758911 29.97643433 8.18758911 29.97643433 9.39916992 29.95239258 C12.99520695 29.88993301 16.5911297 29.85097365 20.1875 29.8125 C21.43337891 29.78736328 22.67925781 29.76222656 23.96289062 29.73632812 C25.16494141 29.72666016 26.36699219 29.71699219 27.60546875 29.70703125 C28.71043701 29.6913208 29.81540527 29.67561035 30.95385742 29.65942383 C34.45258259 30.05060132 36.32050616 30.71107751 39 33 C39 34.65 39 36.3 39 38 C32.4 38 25.8 38 19 38 C19 36.02 19 34.04 19 32 C14.71 31.67 10.42 31.34 6 31 C5.67 29.35 5.34 27.7 5 26 C2.525 25.01 2.525 25.01 0 24 C0 16.08 0 8.16 0 0 Z " fill="#E3E3E3" transform="translate(1,22)"/>
<path d="M0 0 C0.33 0 0.66 0 1 0 C1 12.87 1 25.74 1 39 C-2.63 39 -6.26 39 -10 39 C-12.35953094 36.64046906 -12.49141413 35.22104383 -13 32 C-10.69 32 -8.38 32 -6 32 C-6.0928125 30.824375 -6.0928125 30.824375 -6.1875 29.625 C-6.125625 28.75875 -6.06375 27.8925 -6 27 C-3 25 -3 25 0 25 C0 16.75 0 8.5 0 0 Z " fill="#FDFDFD" transform="translate(79,21)"/>
<path d="M0 0 C-0.33 1.32 -0.66 2.64 -1 4 C0.32 4 1.64 4 3 4 C2.67 2.68 2.34 1.36 2 0 C4.97 0.495 4.97 0.495 8 1 C8.495 2.98 8.495 2.98 9 5 C5.36766898 6.21077701 2.04878013 6.12444164 -1.73046875 6.09765625 C-2.48088943 6.0962413 -3.23131012 6.09482635 -4.00447083 6.09336853 C-6.3988546 6.0877756 -8.79314453 6.07522444 -11.1875 6.0625 C-12.81184761 6.05748408 -14.43619668 6.05292134 -16.06054688 6.04882812 C-20.04040069 6.03780848 -24.02018444 6.02054873 -28 6 C-27.34 4.68 -26.68 3.36 -26 2 C-22.38970831 2 -19.44193324 2.96092582 -16 4 C-16 3.01 -16 2.02 -16 1 C-13.5625 1.375 -13.5625 1.375 -11 2 C-10.67 2.66 -10.34 3.32 -10 4 C-9.0925 3.34 -8.185 2.68 -7.25 2 C-4 0 -4 0 0 0 Z " fill="#F7F7F7" transform="translate(39,9)"/>
<path d="M0 0 C0.33 1.32 0.66 2.64 1 4 C2.0725 3.95875 3.145 3.9175 4.25 3.875 C7.65747485 3.9885825 9.20739631 4.21273364 12 6 C9.50907189 7.24546405 8.58919267 6.7767578 6 6 C6.7763932 9.0745356 6.7763932 9.0745356 9 11 C6.36 11 3.72 11 1 11 C1.99 9.35 2.98 7.7 4 6 C2.906875 6.45375 1.81375 6.9075 0.6875 7.375 C0.07261719 7.63023438 -0.54226562 7.88546875 -1.17578125 8.1484375 C-3.26533932 9.06806692 -3.26533932 9.06806692 -6 11 C-8.1875 10.625 -8.1875 10.625 -10 10 C-9.01 10 -8.02 10 -7 10 C-7.66 9.01 -8.32 8.02 -9 7 C-8.8125 4.4375 -8.8125 4.4375 -8 2 C-4.77208445 -0.1519437 -3.71599191 -0.20086443 0 0 Z " fill="#E3E3E3" transform="translate(35,3)"/>
<path d="M0 0 C0.66 0.66 1.32 1.32 2 2 C4.86436824 2.24581843 7.6390314 2.37369381 10.5078125 2.4140625 C11.76874222 2.44311172 11.76874222 2.44311172 13.05514526 2.4727478 C15.74499303 2.53261658 18.43488343 2.57895771 21.125 2.625 C22.94663344 2.6631731 24.7682487 2.70222444 26.58984375 2.7421875 C31.05974852 2.83832398 35.52973779 2.92232769 40 3 C39.67 3.99 39.34 4.98 39 6 C37.35 6.33 35.7 6.66 34 7 C34 8.65 34 10.3 34 12 C31.525 11.505 31.525 11.505 29 11 C28.855625 10.195625 28.71125 9.39125 28.5625 8.5625 C28.25864751 6.07896294 28.25864751 6.07896294 27 5 C25.00217874 4.84174742 22.99911166 4.74880829 20.99609375 4.68359375 C19.78115234 4.64169922 18.56621094 4.59980469 17.31445312 4.55664062 C16.03505859 4.51732422 14.75566406 4.47800781 13.4375 4.4375 C12.15423828 4.39431641 10.87097656 4.35113281 9.54882812 4.30664062 C6.36600147 4.200152 3.18309326 4.09814038 0 4 C0 2.68 0 1.36 0 0 Z " fill="#FBFBFB" transform="translate(8,48)"/>
<path d="M0 0 C0.66 0 1.32 0 2 0 C2.33 4.29 2.66 8.58 3 13 C4.32 13.33 5.64 13.66 7 14 C8.87824891 12.12175109 8.39102397 8.96064724 8.5625 6.4375 C8.64628906 5.23996094 8.73007812 4.04242188 8.81640625 2.80859375 C8.87699219 1.88175781 8.93757813 0.95492188 9 0 C9.66 0 10.32 0 11 0 C11.05384521 2.29141286 11.09272087 4.58318188 11.125 6.875 C11.14820313 8.15117188 11.17140625 9.42734375 11.1953125 10.7421875 C11 14 11 14 9 16 C5.5 16.3125 5.5 16.3125 2 16 C-0.42130331 12.36804504 -0.21022785 10.61650652 -0.125 6.3125 C-0.09792969 4.54326172 -0.09792969 4.54326172 -0.0703125 2.73828125 C-0.04710938 1.83464844 -0.02390625 0.93101563 0 0 Z " fill="#EBEBEB" transform="translate(31,27)"/>
<path d="M0 0 C3 1 3 1 4.1875 3.0625 C4.455625 3.701875 4.72375 4.34125 5 5 C5.61875 4.175 6.2375 3.35 6.875 2.5 C7.57625 1.675 8.2775 0.85 9 0 C9.66 0 10.32 0 11 0 C10.690625 0.721875 10.38125 1.44375 10.0625 2.1875 C9.042684 4.88701295 8.2214175 7.12157253 8 10 C9.37168238 12.19038423 9.37168238 12.19038423 11 14 C11 14.66 11 15.32 11 16 C7.83884224 14.63016497 7.0072908 14.0109362 5 11 C4.54625 11.825 4.0925 12.65 3.625 13.5 C3.08875 14.325 2.5525 15.15 2 16 C1.34 16 0.68 16 0 16 C0.309375 15.2575 0.61875 14.515 0.9375 13.75 C1.288125 12.8425 1.63875 11.935 2 11 C2.268125 10.34 2.53625 9.68 2.8125 9 C3.09137448 6.02533884 1.60012564 4.43219097 0 2 C0 1.34 0 0.68 0 0 Z " fill="#EDEDED" transform="translate(54,27)"/>
<path d="M0 0 C0.33 0.99 0.66 1.98 1 3 C2.65 3 4.3 3 6 3 C5.67 3.99 5.34 4.98 5 6 C5.99 6.33 6.98 6.66 8 7 C-1.17286652 7.63019694 -1.17286652 7.63019694 -4.625 5 C-5.07875 4.34 -5.5325 3.68 -6 3 C-5.34 2.34 -4.68 1.68 -4 1 C-4 1.66 -4 2.32 -4 3 C-3.01 2.67 -2.02 2.34 -1 2 C-0.67 1.34 -0.34 0.68 0 0 Z " fill="#E8E8E8" transform="translate(53,7)"/>
<path d="M0 0 C0.9590625 0.2784375 0.9590625 0.2784375 1.9375 0.5625 C2.9584375 0.7790625 2.9584375 0.7790625 4 1 C4.33 0.67 4.66 0.34 5 0 C5.99 0 6.98 0 8 0 C8 0.66 8 1.32 8 2 C8.66 2 9.32 2 10 2 C10.33 1.34 10.66 0.68 11 0 C10.67 1.65 10.34 3.3 10 5 C6.7 5 3.4 5 0 5 C0 3.35 0 1.7 0 0 Z " fill="#D4D4D4" transform="translate(42,55)"/>
<path d="M0 0 C0.33 0.99 0.66 1.98 1 3 C2.98 3 4.96 3 7 3 C7 3.33 7 3.66 7 4 C-0.62857143 6.54285714 -0.62857143 6.54285714 -5 5 C-5.66666667 3.66666667 -6.33333333 2.33333333 -7 1 C-4.53721199 -0.231394 -2.7204945 -0.07159196 0 0 Z " fill="#E4E4E4" transform="translate(71,8)"/>
<path d="M0 0 C1.093125 0.0825 2.18625 0.165 3.3125 0.25 C2.9825 1.24 2.6525 2.23 2.3125 3.25 C1.3225 2.59 0.3325 1.93 -0.6875 1.25 C-0.3575 3.23 -0.0275 5.21 0.3125 7.25 C-1.3375 7.25 -2.9875 7.25 -4.6875 7.25 C-4.6875 6.59 -4.6875 5.93 -4.6875 5.25 C-5.3475 4.92 -6.0075 4.59 -6.6875 4.25 C-4.79150483 0.68106792 -4.16790733 0.28256999 0 0 Z " fill="#ECECEC" transform="translate(40.6875,-0.25)"/>
<path d="M0 0 C6.52307692 0.49230769 6.52307692 0.49230769 8.9375 3.0625 C9.288125 3.701875 9.63875 4.34125 10 5 C9.401875 4.690625 8.80375 4.38125 8.1875 4.0625 C5.91043228 2.89790296 5.91043228 2.89790296 3 2 C3 2.99 3 3.98 3 5 C-0.3 4.67 -3.6 4.34 -7 4 C-7 3.67 -7 3.34 -7 3 C-5.02 3 -3.04 3 -1 3 C-0.67 2.01 -0.34 1.02 0 0 Z " fill="#E1E1E1" transform="translate(9,8)"/>
<path d="M0 0 C0.33 0.66 0.66 1.32 1 2 C1.66 2 2.32 2 3 2 C3 1.34 3 0.68 3 0 C4.65 0 6.3 0 8 0 C8 1.65 8 3.3 8 5 C5.69 5 3.38 5 1 5 C0.67 3.35 0.34 1.7 0 0 Z " fill="#DADADA" transform="translate(10,55)"/>
<path d="M0 0 C1.65 0.99 3.3 1.98 5 3 C5.33 2.34 5.66 1.68 6 1 C6.33 1.99 6.66 2.98 7 4 C5.25 5.5625 5.25 5.5625 3 7 C0.75 6.6875 0.75 6.6875 -1 6 C-0.01 6 0.98 6 2 6 C1.34 5.01 0.68 4.02 0 3 C0 2.01 0 1.02 0 0 Z " fill="#D8D8D8" transform="translate(26,7)"/>
<path d="M0 0 C0.66 0.33 1.32 0.66 2 1 C1.67 2.65 1.34 4.3 1 6 C-0.32 6 -1.64 6 -3 6 C-3 4.68 -3 3.36 -3 2 C-2.01 2 -1.02 2 0 2 C0 1.34 0 0.68 0 0 Z " fill="#E0E0E0" transform="translate(78,12)"/>
<path d="M0 0 C0.99 0.33 1.98 0.66 3 1 C2.01 1.66 1.02 2.32 0 3 C0.33 4.32 0.66 5.64 1 7 C-0.32 6.67 -1.64 6.34 -3 6 C-2.625 3.5625 -2.625 3.5625 -2 1 C-1.34 0.67 -0.68 0.34 0 0 Z " fill="#EAEAEA" transform="translate(30,3)"/>
<path d="M0 0 C0.2475 0.639375 0.495 1.27875 0.75 1.9375 C1.81562433 4.18741541 1.81562433 4.18741541 4.125 4.75 C4.74375 4.8325 5.3625 4.915 6 5 C5.67 5.99 5.34 6.98 5 8 C3.125 7.6875 3.125 7.6875 1 7 C-1 4 -1 4 -0.625 1.8125 C-0.41875 1.214375 -0.2125 0.61625 0 0 Z " fill="#E3E2E3" transform="translate(72,16)"/>
<path d="M0 0 C1.32 0.66 2.64 1.32 4 2 C3.34 3.65 2.68 5.3 2 7 C1.01 6.67 0.02 6.34 -1 6 C-0.67 5.67 -0.34 5.34 0 5 C0.04063832 3.33382885 0.042721 1.66611905 0 0 Z " fill="#FAFAFA" transform="translate(40,1)"/>
<path d="M0 0 C0.33 0.99 0.66 1.98 1 3 C0.01 3.33 -0.98 3.66 -2 4 C-2 4.66 -2 5.32 -2 6 C-3.32 5.34 -4.64 4.68 -6 4 C-5.34 3.01 -4.68 2.02 -4 1 C-4 1.66 -4 2.32 -4 3 C-3.01 2.67 -2.02 2.34 -1 2 C-0.67 1.34 -0.34 0.68 0 0 Z " fill="#D4D4D4" transform="translate(53,7)"/>
</svg>
