<?xml version="1.0" encoding="UTF-8"?>
<svg version="1.1" xmlns="http://www.w3.org/2000/svg" width="60" height="60">
<path d="M0 0 C19.8 0 39.6 0 60 0 C60 19.8 60 39.6 60 60 C40.2 60 20.4 60 0 60 C0 40.2 0 20.4 0 0 Z " fill="#F0F0F0" transform="translate(0,0)"/>
<path d="M0 0 C7.26 0 14.52 0 22 0 C22 19.8 22 39.6 22 60 C2.2 60 -17.6 60 -38 60 C-38 37 -38 37 -37 36 C-36.92755947 33.98035801 -36.91622812 31.95832876 -36.9375 29.9375 C-36.94652344 28.83277344 -36.95554688 27.72804688 -36.96484375 26.58984375 C-36.97644531 25.73519531 -36.98804688 24.88054688 -37 24 C-36.34 24.99 -35.68 25.98 -35 27 C-34.01 27.33 -33.02 27.66 -32 28 C-30.68 26.35 -29.36 24.7 -28 23 C-28.04640625 23.845625 -28.0928125 24.69125 -28.140625 25.5625 C-28.39500675 33.55735498 -28.14095671 39.46355866 -22.609375 45.5234375 C-17.71169533 49.98290372 -12.65023027 51.40859562 -6.1015625 51.26953125 C-2.46349338 50.80293874 0.63949684 49.44021564 4 48 C4 45.03 4 42.06 4 39 C4.66 39 5.32 39 6 39 C6.495 41.97 6.495 41.97 7 45 C10.49470534 39.92704064 12.05912338 36.42493036 12.5625 30.3125 C12.64628906 29.31863281 12.73007812 28.32476563 12.81640625 27.30078125 C12.90728516 26.16189453 12.90728516 26.16189453 13 25 C13.99 25.99 14.98 26.98 16 28 C16.495 27.505 16.495 27.505 17 27 C16.484375 26.484375 15.96875 25.96875 15.4375 25.4375 C13.41760411 22.01245914 14.23798086 19.81009568 15 16 C15 15.01 15 14.02 15 13 C14.34 13 13.68 13 13 13 C12.67 13.66 12.34 14.32 12 15 C11.71125 14.2575 11.4225 13.515 11.125 12.75 C10.17697356 10.43260203 9.15154089 8.22082885 8 6 C8.33 5.67 8.66 5.34 9 5 C4.545 3.02 4.545 3.02 0 1 C0 0.67 0 0.34 0 0 Z " fill="#F5F5F5" transform="translate(38,0)"/>
<path d="M0 0 C0.66 0 1.32 0 2 0 C2.19335938 0.68707031 2.38671875 1.37414062 2.5859375 2.08203125 C2.97652344 3.43361328 2.97652344 3.43361328 3.375 4.8125 C3.63023438 5.70582031 3.88546875 6.59914063 4.1484375 7.51953125 C4.95266661 10.20467896 4.95266661 10.20467896 7 13 C7.45439327 16.25521228 7.37030578 19.52888973 7.375 22.8125 C7.39949219 23.70259766 7.42398438 24.59269531 7.44921875 25.50976562 C7.47506054 31.31986184 6.83958674 34.56806066 3 39 C2.01 39.495 2.01 39.495 1 40 C1 37.69 1 35.38 1 33 C0.34 33 -0.32 33 -1 33 C-0.505 37.455 -0.505 37.455 0 42 C-5.59916981 45.57724738 -10.302836 46.82681037 -17 46 C-24.79451861 43.81067667 -29.3086174 39.5264162 -33.375 32.6875 C-34.35304887 28.48188984 -34.15018206 24.29687563 -34 20 C-33.34 20 -32.68 20 -32 20 C-32 19.34 -32 18.68 -32 18 C-21.77 18 -11.54 18 -1 18 C-1 15.03 -1 12.06 -1 9 C0.32 9.99 1.64 10.98 3 12 C2.69964844 11.46890625 2.39929687 10.9378125 2.08984375 10.390625 C1.51943359 9.33101562 1.51943359 9.33101562 0.9375 8.25 C0.55464844 7.55390625 0.17179687 6.8578125 -0.22265625 6.140625 C-1.1312406 3.63859372 -0.88336837 2.4667645 0 0 Z " fill="#F3F3F3" transform="translate(43,6)"/>
<path d="M0 0 C0.33 0 0.66 0 1 0 C1.12117187 0.81984375 1.24234375 1.6396875 1.3671875 2.484375 C1.53476563 3.56203125 1.70234375 4.6396875 1.875 5.75 C2.03742187 6.81734375 2.19984375 7.8846875 2.3671875 8.984375 C2.93223882 11.67708871 3.63422914 13.63572439 5 16 C5.33 15.01 5.66 14.02 6 13 C5.34 12.67 4.68 12.34 4 12 C15.88 12 27.76 12 40 12 C40.33 11.34 40.66 10.68 41 10 C40.58578031 14.83256305 38.53586014 16.82679218 35 20 C35 17.69 35 15.38 35 13 C34.34 13 33.68 13 33 13 C33.495 17.455 33.495 17.455 34 22 C28.40083019 25.57724738 23.697164 26.82681037 17 26 C9.20548139 23.81067667 4.6913826 19.5264162 0.625 12.6875 C-0.35304887 8.48188984 -0.15018206 4.29687563 0 0 Z " fill="#DDDDDD" transform="translate(9,26)"/>
<path d="M0 0 C9.7174802 -0.58304881 16.62240048 -0.51935969 25 5 C24.01 5.495 24.01 5.495 23 6 C23.78345715 7.17219543 24.57702836 8.33763668 25.375 9.5 C25.81585938 10.1496875 26.25671875 10.799375 26.7109375 11.46875 C27.13632812 11.9740625 27.56171875 12.479375 28 13 C28.66 13 29.32 13 30 13 C31.28571429 20.42857143 31.28571429 20.42857143 30 24 C31.485 24.99 31.485 24.99 33 26 C33.66 25.34 34.32 24.68 35 24 C34.67 25.32 34.34 26.64 34 28 C33.01 28 32.02 28 31 28 C30.67 29.32 30.34 30.64 30 32 C29.67 30.02 29.34 28.04 29 26 C28.67 29.3 28.34 32.6 28 36 C27.67 36 27.34 36 27 36 C26.96261719 34.83082031 26.92523438 33.66164062 26.88671875 32.45703125 C26.8210372 30.90882325 26.75459061 29.36064758 26.6875 27.8125 C26.66494141 27.04357422 26.64238281 26.27464844 26.61914062 25.48242188 C26.39628351 20.76190302 25.70036657 17.99429221 23 14 C22.38580992 11.31350447 22.23386275 8.75958041 22 6 C21.34 6 20.68 6 20 6 C19.67 7.32 19.34 8.64 19 10 C12.84765625 10.09765625 12.84765625 10.09765625 11 10 C10.67 9.67 10.34 9.34 10 9 C6.47362528 8.84327223 3.38094149 8.95971031 0 10 C-0.33 9.01 -0.66 8.02 -1 7 C0.65 7 2.3 7 4 7 C4.33 5.68 4.66 4.36 5 3 C5 4.32 5 5.64 5 7 C6.32 7 7.64 7 9 7 C8.67 5.35 8.34 3.7 8 2 C8.66 2 9.32 2 10 2 C10 3.65 10 5.3 10 7 C10.99 6.67 11.98 6.34 13 6 C12.67 4.68 12.34 3.36 12 2 C8.04 1.67 4.08 1.34 0 1 C0 0.67 0 0.34 0 0 Z " fill="#C0C0C0" transform="translate(23,0)"/>
<path d="M0 0 C0 0.99 0 1.98 0 3 C-0.66 3 -1.32 3 -2 3 C-2.12117187 3.77085938 -2.24234375 4.54171875 -2.3671875 5.3359375 C-2.61855469 6.84027344 -2.61855469 6.84027344 -2.875 8.375 C-3.03742187 9.37273438 -3.19984375 10.37046875 -3.3671875 11.3984375 C-4 14 -4 14 -6 16 C-8.10433196 20.37701048 -9.40719533 24.1390017 -10 29 C-10.33 27.68 -10.66 26.36 -11 25 C-12.32 24.67 -13.64 24.34 -15 24 C-15 28.29 -15 32.58 -15 37 C-18.41606777 31.87589834 -17.49381896 25.97713338 -17 20 C-15.28762552 11.67946895 -10.35611968 6.38675007 -4 1 C-2 0 -2 0 0 0 Z " fill="#D8D8D8" transform="translate(17,3)"/>
<path d="M0 0 C7.59 0 15.18 0 23 0 C21.02 0.99 21.02 0.99 19 2 C11.3857479 6.05046813 5.18420184 11.25812365 2.0625 19.5 C1.711875 20.655 1.36125 21.81 1 23 C0.67 23 0.34 23 0 23 C0 15.41 0 7.82 0 0 Z " fill="#FCFCFC" transform="translate(0,0)"/>
<path d="M0 0 C1.55809349 2.33714024 2.70475604 4.41809049 3.875 6.9375 C5.49174106 10.24999578 7.28342637 12.47746734 10 15 C10 15.66 10 16.32 10 17 C14.3039919 18.74849671 18.64750591 20.3770361 23 22 C23 22.33 23 22.66 23 23 C15.41 23 7.82 23 0 23 C0 15.41 0 7.82 0 0 Z " fill="#FCFCFC" transform="translate(0,37)"/>
<path d="M0 0 C0.33 0.99 0.66 1.98 1 3 C-2.26760563 8.63380282 -2.26760563 8.63380282 -5 10 C-5 7.69 -5 5.38 -5 3 C-5.66 3 -6.32 3 -7 3 C-6.67 5.97 -6.34 8.94 -6 12 C-11.91002519 15.77584943 -16.0754101 16.32974238 -23 16 C-23.99 15.34 -24.98 14.68 -26 14 C-25.67 10.7 -25.34 7.4 -25 4 C-24.67 4 -24.34 4 -24 4 C-24 7.3 -24 10.6 -24 14 C-23.34 14 -22.68 14 -22 14 C-22 10.7 -22 7.4 -22 4 C-21.67 4 -21.34 4 -21 4 C-21 7.63 -21 11.26 -21 15 C-20.34 15 -19.68 15 -19 15 C-19 11.37 -19 7.74 -19 4 C-18.01 4.66 -17.02 5.32 -16 6 C-15.59156077 8.71203652 -15.86663133 11.2437142 -16 14 C-15.34 14 -14.68 14 -14 14 C-14.33 10.04 -14.66 6.08 -15 2 C-10.05 2 -5.1 2 0 2 C0 1.34 0 0.68 0 0 Z " fill="#BFBFBF" transform="translate(49,36)"/>
<path d="M0 0 C0.33 0 0.66 0 1 0 C1 7.26 1 14.52 1 22 C-6.59 22 -14.18 22 -22 22 C-20.68 21.34 -19.36 20.68 -18 20 C-8.59158895 15.26474361 -3.73477269 9.83835954 0 0 Z " fill="#FEFEFE" transform="translate(59,38)"/>
<path d="M0 0 C7.26 0 14.52 0 22 0 C22 7.26 22 14.52 22 22 C20 19 20 19 18.80859375 16.73046875 C14.30445803 8.37664438 8.78610237 4.33532181 0 1 C0 0.67 0 0.34 0 0 Z " fill="#FEFEFE" transform="translate(38,0)"/>
<path d="M0 0 C0.73992188 0.28101563 1.47984375 0.56203125 2.2421875 0.8515625 C6.57468573 2.3893536 10.54658981 3.06105362 15.1171875 3.4765625 C15.1171875 4.1365625 15.1171875 4.7965625 15.1171875 5.4765625 C15.7771875 5.4765625 16.4371875 5.4765625 17.1171875 5.4765625 C17.4471875 6.4665625 17.7771875 7.4565625 18.1171875 8.4765625 C17.5190625 8.2703125 16.9209375 8.0640625 16.3046875 7.8515625 C13.83267904 7.16984335 13.83267904 7.16984335 11.1171875 9.4765625 C13.4271875 9.8065625 15.7371875 10.1365625 18.1171875 10.4765625 C18.1171875 10.8065625 18.1171875 11.1365625 18.1171875 11.4765625 C9.52576968 11.91652131 2.64865298 11.93965315 -4.8828125 7.4765625 C-4.2228125 6.4865625 -3.5628125 5.4965625 -2.8828125 4.4765625 C-3.5428125 4.4765625 -4.2028125 4.4765625 -4.8828125 4.4765625 C-4.5078125 2.5390625 -4.5078125 2.5390625 -3.8828125 0.4765625 C-1.8828125 -0.5234375 -1.8828125 -0.5234375 0 0 Z " fill="#F2F2F2" transform="translate(18.8828125,48.5234375)"/>
<path d="M0 0 C4.30037859 0.16539918 8.08032853 1.08258213 12.25 2.125 C11.92 6.415 11.59 10.705 11.25 15.125 C6.96 15.125 2.67 15.125 -1.75 15.125 C-1.68489583 12.06510417 -1.61979167 9.00520833 -1.5546875 5.9453125 C-1.44939466 2.9878949 -1.44939466 2.9878949 -3.75 1.125 C-2.75 0.125 -2.75 0.125 0 0 Z " fill="#E2E2E2" transform="translate(29.75,7.875)"/>
<path d="M0 0 C2.31332186 2.83907682 4.10457877 5.41831508 5 9 C3.625 11.3125 3.625 11.3125 2 13 C1.505 9.535 1.505 9.535 1 6 C0.67 8.64 0.34 11.28 0 14 C-10.23 14 -20.46 14 -31 14 C-31.33 14.66 -31.66 15.32 -32 16 C-32 15.01 -32 14.02 -32 13 C-30.35 13 -28.7 13 -27 13 C-27 10.69 -27 8.38 -27 6 C-26.67 6 -26.34 6 -26 6 C-26 8.31 -26 10.62 -26 13 C-25.34 13 -24.68 13 -24 13 C-24 10.36 -24 7.72 -24 5 C-23.67 5 -23.34 5 -23 5 C-23 7.64 -23 10.28 -23 13 C-22.34 13 -21.68 13 -21 13 C-21 9.7 -21 6.4 -21 3 C-20.67 3 -20.34 3 -20 3 C-20 6.3 -20 9.6 -20 13 C-19.34 13 -18.68 13 -18 13 C-18 9.37 -18 5.74 -18 2 C-17.67 2 -17.34 2 -17 2 C-17 5.63 -17 9.26 -17 13 C-16.34 13 -15.68 13 -15 13 C-15 9.04 -15 5.08 -15 1 C-14.67 1 -14.34 1 -14 1 C-14 4.96 -14 8.92 -14 13 C-13.34 13 -12.68 13 -12 13 C-12 9.04 -12 5.08 -12 1 C-11.67 1 -11.34 1 -11 1 C-10.67 4.63 -10.34 8.26 -10 12 C-9.01 12.33 -8.02 12.66 -7 13 C-7 9.04 -7 5.08 -7 1 C-6.67 1 -6.34 1 -6 1 C-6 4.96 -6 8.92 -6 13 C-5.34 13 -4.68 13 -4 13 C-4 9.7 -4 6.4 -4 3 C-3.67 3 -3.34 3 -3 3 C-3 6.3 -3 9.6 -3 13 C-2.34 13 -1.68 13 -1 13 C-1.01160156 12.31292969 -1.02320312 11.62585937 -1.03515625 10.91796875 C-1.04417969 10.01691406 -1.05320312 9.11585937 -1.0625 8.1875 C-1.07410156 7.29417969 -1.08570312 6.40085937 -1.09765625 5.48046875 C-1 3 -1 3 0 0 Z " fill="#A7A7A7" transform="translate(42,10)"/>
<path d="M0 0 C1 3 1 3 0.06640625 5.26953125 C-3.49174761 11.28604596 -7.05958615 15.29101064 -13 19 C-13.66 18.67 -14.32 18.34 -15 18 C-14.67 17.34 -14.34 16.68 -14 16 C-14.66 16 -15.32 16 -16 16 C-16 15.01 -16 14.02 -16 13 C-15.2575 12.814375 -14.515 12.62875 -13.75 12.4375 C-10.77341581 10.88155826 -10.47070448 10.3580015 -9.0625 7.5 C-7.49742348 4.40191819 -7.25258135 4.10400408 -3.8125 2.6875 C-2.884375 2.460625 -1.95625 2.23375 -1 2 C-0.67 1.34 -0.34 0.68 0 0 Z " fill="#E7E7E7" transform="translate(58,38)"/>
<path d="M0 0 C0.99 1.485 0.99 1.485 2 3 C2.99 3.33 3.98 3.66 5 4 C5.59732819 6.76264289 6 9.16032769 6 12 C6.31421071 14.00309329 6.6451046 16.00371336 7 18 C6.01 18 5.02 18 4 18 C4.66 20.31 5.32 22.62 6 25 C2.14755596 22.04645957 1.1766304 19.2416808 0.3046875 14.66015625 C-0.25435537 9.77928195 -0.14934666 4.90354874 0 0 Z " fill="#EDEDED" transform="translate(1,24)"/>
<path d="M0 0 C0.80566406 0.00322266 1.61132812 0.00644531 2.44140625 0.00976562 C3.70404297 0.02233398 3.70404297 0.02233398 4.9921875 0.03515625 C5.84167969 0.03966797 6.69117188 0.04417969 7.56640625 0.04882812 C9.66669659 0.06062751 11.7669508 0.07856319 13.8671875 0.09765625 C12.8771875 0.59265625 12.8771875 0.59265625 11.8671875 1.09765625 C12.5271875 2.74765625 13.1871875 4.39765625 13.8671875 6.09765625 C12.5471875 6.09765625 11.2271875 6.09765625 9.8671875 6.09765625 C9.8671875 4.44765625 9.8671875 2.79765625 9.8671875 1.09765625 C9.5371875 2.74765625 9.2071875 4.39765625 8.8671875 6.09765625 C2.9271875 6.59265625 2.9271875 6.59265625 -3.1328125 7.09765625 C-2.1428125 6.10765625 -1.1528125 5.11765625 -0.1328125 4.09765625 C0.5271875 3.10765625 1.1871875 2.11765625 1.8671875 1.09765625 C1.1040625 1.75765625 0.3409375 2.41765625 -0.4453125 3.09765625 C-3.1328125 5.09765625 -3.1328125 5.09765625 -6.1328125 5.09765625 C-6.1328125 3.77765625 -6.1328125 2.45765625 -6.1328125 1.09765625 C-3.8362755 -0.05061225 -2.54968083 -0.0179555 0 0 Z " fill="#EDEDED" transform="translate(23.1328125,0.90234375)"/>
<path d="M0 0 C0.99 0.33 1.98 0.66 3 1 C2.814375 2.134375 2.62875 3.26875 2.4375 4.4375 C2.2209375 6.2009375 2.2209375 6.2009375 2 8 C2.33 8.33 2.66 8.66 3 9 C3.14115161 11.67058851 3.04247107 14.32432238 3 17 C0.36 17 -2.28 17 -5 17 C-4.21781755 12.15046881 -2.59454269 7.62764021 -1 3 C-0.67 2.01 -0.34 1.02 0 0 Z " fill="#F2F2F2" transform="translate(15,6)"/>
<path d="M0 0 C0.66 0 1.32 0 2 0 C3.28571429 7.42857143 3.28571429 7.42857143 2 11 C2.99 11.66 3.98 12.32 5 13 C5.66 12.34 6.32 11.68 7 11 C6.67 12.32 6.34 13.64 6 15 C5.01 15 4.02 15 3 15 C2.67 16.32 2.34 17.64 2 19 C1.67 17.02 1.34 15.04 1 13 C0.67 16.3 0.34 19.6 0 23 C-0.33 23 -0.66 23 -1 23 C-1.33 18.38 -1.66 13.76 -2 9 C-1.34 9 -0.68 9 0 9 C-0.185625 7.88625 -0.37125 6.7725 -0.5625 5.625 C-1 2 -1 2 0 0 Z " fill="#CECECE" transform="translate(51,13)"/>
<path d="M0 0 C0.33 0.66 0.66 1.32 1 2 C1.66 2 2.32 2 3 2 C3.33 2.99 3.66 3.98 4 5 C3.401875 4.79375 2.80375 4.5875 2.1875 4.375 C-0.28450846 3.69328085 -0.28450846 3.69328085 -3 6 C-0.69 6.33 1.62 6.66 4 7 C4 7.33 4 7.66 4 8 C-0.62 8 -5.24 8 -10 8 C-10 7.01 -10 6.02 -10 5 C-9.01 5 -8.02 5 -7 5 C-6.67 4.01 -6.34 3.02 -6 2 C-4.02 2 -2.04 2 0 2 C0 1.34 0 0.68 0 0 Z " fill="#DDDDDD" transform="translate(33,52)"/>
<path d="M0 0 C1.4540625 0.0309375 1.4540625 0.0309375 2.9375 0.0625 C3.2675 0.7225 3.5975 1.3825 3.9375 2.0625 C3.2775 2.0625 2.6175 2.0625 1.9375 2.0625 C1.9375 6.3525 1.9375 10.6425 1.9375 15.0625 C0.6175 15.0625 -0.7025 15.0625 -2.0625 15.0625 C-2.03929687 14.21945313 -2.01609375 13.37640625 -1.9921875 12.5078125 C-1.97414063 11.41210938 -1.95609375 10.31640625 -1.9375 9.1875 C-1.90269531 7.55167969 -1.90269531 7.55167969 -1.8671875 5.8828125 C-1.76189466 2.9253949 -1.76189466 2.9253949 -4.0625 1.0625 C-3.0625 0.0625 -3.0625 0.0625 0 0 Z " fill="#F7F6F7" transform="translate(30.0625,7.9375)"/>
<path d="M0 0 C0.08133791 1.91595968 0.13934367 3.83291932 0.1875 5.75 C0.22230469 6.81734375 0.25710937 7.8846875 0.29296875 8.984375 C-0.02917214 12.30027855 -0.77148914 13.59016673 -3 16 C-3.66 15.34 -4.32 14.68 -5 14 C-4.01 12.68 -3.02 11.36 -2 10 C-2.7425 9.13375 -2.7425 9.13375 -3.5 8.25 C-5 6 -5 6 -5 2 C-1.125 0 -1.125 0 0 0 Z " fill="#FCFCFC" transform="translate(59,26)"/>
<path d="M0 0 C0.66 0 1.32 0 2 0 C1.25 7.75 1.25 7.75 -1 10 C-1.69748583 11.31747324 -2.36959957 12.64914193 -3 14 C-3.66 13.67 -4.32 13.34 -5 13 C-5 10.03 -5 7.06 -5 4 C-4.01 3.67 -3.02 3.34 -2 3 C-1.34 2.01 -0.68 1.02 0 0 Z " fill="#BDBDBD" transform="translate(12,9)"/>
<path d="M0 0 C0.66 0.33 1.32 0.66 2 1 C2 2.98 2 4.96 2 7 C2.66 7 3.32 7 4 7 C5.625 9.5 5.625 9.5 7 12 C5.02 12.99 5.02 12.99 3 14 C0.984375 12.85546875 0.984375 12.85546875 -1 11 C-1.171875 8.30078125 -1.171875 8.30078125 -0.75 5.3125 C-0.62109375 4.31863281 -0.4921875 3.32476563 -0.359375 2.30078125 C-0.24078125 1.54152344 -0.1221875 0.78226563 0 0 Z " fill="#F0F0F0" transform="translate(51,25)"/>
<path d="M0 0 C0.66 0 1.32 0 2 0 C2.19335938 0.68707031 2.38671875 1.37414062 2.5859375 2.08203125 C2.97652344 3.43361328 2.97652344 3.43361328 3.375 4.8125 C3.75785156 6.15248047 3.75785156 6.15248047 4.1484375 7.51953125 C4.95266661 10.20467896 4.95266661 10.20467896 7 13 C6.67 13.99 6.34 14.98 6 16 C3.01425172 11.5099816 0.26554294 7.31528033 -1 2 C-0.67 1.34 -0.34 0.68 0 0 Z " fill="#F9F9F9" transform="translate(43,6)"/>
<path d="M0 0 C0.33 0.66 0.66 1.32 1 2 C1.99 2.33 2.98 2.66 4 3 C3.814375 3.78375 3.62875 4.5675 3.4375 5.375 C2.74037734 7.97089775 2.74037734 7.97089775 4 10 C2.68 9.67 1.36 9.34 0 9 C0 8.34 0 7.68 0 7 C-0.99 6.67 -1.98 6.34 -3 6 C-2.67 5.34 -2.34 4.68 -2 4 C-1.34 4 -0.68 4 0 4 C0 2.68 0 1.36 0 0 Z " fill="#D3D2D3" transform="translate(10,45)"/>
<path d="M0 0 C2.31332186 2.83907682 4.10457877 5.41831508 5 9 C3.625 11.3125 3.625 11.3125 2 13 C1.67 10.69 1.34 8.38 1 6 C0.67 7.98 0.34 9.96 0 12 C-0.33 12 -0.66 12 -1 12 C-1.02712066 10.56260487 -1.04645067 9.12506137 -1.0625 7.6875 C-1.07410156 6.88699219 -1.08570313 6.08648437 -1.09765625 5.26171875 C-1 3 -1 3 0 0 Z " fill="#B2B2B2" transform="translate(42,10)"/>
<path d="M0 0 C0.66 0 1.32 0 2 0 C1.67 4.29 1.34 8.58 1 13 C0.34 13 -0.32 13 -1 13 C-1.02686553 11.02090602 -1.04633375 9.04171029 -1.0625 7.0625 C-1.07410156 5.96035156 -1.08570313 4.85820312 -1.09765625 3.72265625 C-1 1 -1 1 0 0 Z " fill="#F8F8F8" transform="translate(40,10)"/>
<path d="M0 0 C1.65 0.33 3.3 0.66 5 1 C4.67 2.32 4.34 3.64 4 5 C2.35 4.67 0.7 4.34 -1 4 C-0.67 2.68 -0.34 1.36 0 0 Z " fill="#B7B7B7" transform="translate(41,29)"/>
<path d="M0 0 C0.33 0.66 0.66 1.32 1 2 C1.66 2 2.32 2 3 2 C3.33 2.99 3.66 3.98 4 5 C3.443125 4.814375 2.88625 4.62875 2.3125 4.4375 C-0.399133 3.92448835 -2.34371039 4.3359276 -5 5 C-5.33 4.01 -5.66 3.02 -6 2 C-4.02 2 -2.04 2 0 2 C0 1.34 0 0.68 0 0 Z " fill="#E4E4E4" transform="translate(33,52)"/>
<path d="M0 0 C2.475 0.99 2.475 0.99 5 2 C4.67 4.31 4.34 6.62 4 9 C3.67 7.68 3.34 6.36 3 5 C1.68 4.67 0.36 4.34 -1 4 C-0.67 2.68 -0.34 1.36 0 0 Z " fill="#C7C7C7" transform="translate(3,23)"/>
<path d="M0 0 C0 0.99 0 1.98 0 3 C-0.66 3 -1.32 3 -2 3 C-2.33 3.99 -2.66 4.98 -3 6 C-3.33 5.34 -3.66 4.68 -4 4 C-5.32 5.32 -6.64 6.64 -8 8 C-8.66 7.67 -9.32 7.34 -10 7 C-8.71372289 5.82739389 -7.42080217 4.6620717 -6.125 3.5 C-5.04605469 2.52546875 -5.04605469 2.52546875 -3.9453125 1.53125 C-2 0 -2 0 0 0 Z " fill="#C3C3C3" transform="translate(17,3)"/>
<path d="M0 0 C0.66 0 1.32 0 2 0 C1.6875 1.9375 1.6875 1.9375 1 4 C0.01 4.33 -0.98 4.66 -2 5 C-1.67 5.66 -1.34 6.32 -1 7 C-2.32 7.33 -3.64 7.66 -5 8 C-5.33 6.68 -5.66 5.36 -6 4 C-5.195625 3.525625 -4.39125 3.05125 -3.5625 2.5625 C-1.15246512 1.23099846 -1.15246512 1.23099846 0 0 Z " fill="#B0B0B0" transform="translate(23,2)"/>
<path d="M0 0 C0.66 0.33 1.32 0.66 2 1 C2 1.99 2 2.98 2 4 C2.31421071 6.00309329 2.6451046 8.00371336 3 10 C2.01 10 1.02 10 0 10 C0.33 8.68 0.66 7.36 1 6 C0.01 5.67 -0.98 5.34 -2 5 C-1.34 3.35 -0.68 1.7 0 0 Z " fill="#DCDCDC" transform="translate(5,32)"/>
<path d="M0 0 C1.98 0 3.96 0 6 0 C5.01 0.495 5.01 0.495 4 1 C4.66 2.65 5.32 4.3 6 6 C4.68 6 3.36 6 2 6 C2 4.35 2 2.7 2 1 C1.34 0.67 0.68 0.34 0 0 Z " fill="#F8F8F8" transform="translate(31,1)"/>
<path d="M0 0 C0.33 0.66 0.66 1.32 1 2 C1.99 2 2.98 2 4 2 C4 2.66 4 3.32 4 4 C1.36 4 -1.28 4 -4 4 C-2 1 -2 1 0 0 Z " fill="#FDFDFD" transform="translate(33,55)"/>
<path d="M0 0 C0.99 0.33 1.98 0.66 3 1 C3 1.66 3 2.32 3 3 C2.01 3 1.02 3 0 3 C0 3.66 0 4.32 0 5 C0.66 5.33 1.32 5.66 2 6 C-0.4375 5.625 -0.4375 5.625 -3 5 C-3.33 4.34 -3.66 3.68 -4 3 C-2.1875 1.4375 -2.1875 1.4375 0 0 Z " fill="#D0D0D0" transform="translate(18,52)"/>
<path d="M0 0 C0.33 0.99 0.66 1.98 1 3 C0.54625 3.433125 0.0925 3.86625 -0.375 4.3125 C-2.20024334 6.10798342 -2.20024334 6.10798342 -4 9 C-4 8.34 -4 7.68 -4 7 C-4.66 7 -5.32 7 -6 7 C-6 6.34 -6 5.68 -6 5 C-4.04072937 3.2856382 -2.04119788 1.61594832 0 0 Z " fill="#FCFCFC" transform="translate(13,6)"/>
<path d="M0 0 C0.99 0.495 0.99 0.495 2 1 C2.4140625 3.50390625 2.4140625 3.50390625 2.625 6.5625 C2.69976562 7.57441406 2.77453125 8.58632813 2.8515625 9.62890625 C2.92503906 10.80259766 2.92503906 10.80259766 3 12 C-0.58050131 7.82744729 -0.26656798 5.33135955 0 0 Z " fill="#A4A4A4" transform="translate(48,10)"/>
<path d="M0 0 C0.99 0.33 1.98 0.66 3 1 C3 2.32 3 3.64 3 5 C1.68 5 0.36 5 -1 5 C-0.67 3.35 -0.34 1.7 0 0 Z " fill="#FAFAFA" transform="translate(29,2)"/>
</svg>
