<?xml version="1.0" encoding="UTF-8"?>
<svg version="1.1" xmlns="http://www.w3.org/2000/svg" width="60" height="60">
<path d="M0 0 C19.8 0 39.6 0 60 0 C60 19.8 60 39.6 60 60 C40.2 60 20.4 60 0 60 C0 40.2 0 20.4 0 0 Z " fill="#FBFBFB" transform="translate(0,0)"/>
<path d="M0 0 C0.66 0 1.32 0 2 0 C2.38865234 1.28197266 2.38865234 1.28197266 2.78515625 2.58984375 C4.19179689 6.27636066 5.4322963 8.98499113 8 12 C13.09890566 13.39061063 17.75610045 13.34692465 23 13 C22.25322453 16.59238306 20.82277952 19.07965134 18.83984375 22.12109375 C17.71294802 24.64219536 17.67888925 26.25226753 18 29 C19.27932395 31.947643 19.27932395 31.947643 21 34.8125 C21.556875 35.78832031 22.11375 36.76414063 22.6875 37.76953125 C23.120625 38.50558594 23.55375 39.24164063 24 40 C22.91460937 39.94457031 21.82921875 39.88914063 20.7109375 39.83203125 C14.2653944 39.69294357 14.2653944 39.69294357 8 41 C4.8647373 44.28845143 3.36117475 47.69670273 2 52 C-1.6607519 50.77974937 -1.92339441 49.873509 -3.6875 46.5625 C-4.34298828 45.35787109 -4.34298828 45.35787109 -5.01171875 44.12890625 C-6 42 -6 42 -6 40 C-11.28 40 -16.56 40 -22 40 C-20.40494792 37.03776042 -18.80989583 34.07552083 -17.21484375 31.11328125 C-15.88427544 27.70343255 -15.81476661 26.40184776 -17 23 C-17.93357408 21.08633572 -17.93357408 21.08633572 -19.0625 19.375 C-21 16 -21 16 -21 13 C-16.05 13 -11.1 13 -6 13 C-5.34 11.35 -4.68 9.7 -4 8 C-3.30866352 6.5542489 -2.60134705 5.11598253 -1.875 3.6875 C-1.34519531 2.64142578 -1.34519531 2.64142578 -0.8046875 1.57421875 C-0.53914063 1.05472656 -0.27359375 0.53523437 0 0 Z " fill="#8A8A8A" transform="translate(29,0)"/>
<path d="M0 0 C0.99 0.33 1.98 0.66 3 1 C3.35729936 2.32711192 3.68325425 3.66262906 4 5 C4.66073303 6.2231752 5.35089748 7.43070207 6.0625 8.625 C8 12 8 12 8 14 C9.32 14.33 10.64 14.66 12 15 C11.01 15 10.02 15 9 15 C9.33 16.32 9.66 17.64 10 19 C9.01 18.67 8.02 18.34 7 18 C7 17.34 7 16.68 7 16 C1.72 16 -3.56 16 -9 16 C-7.35 12.7 -5.7 9.4 -4 6 C-3.01 6 -2.02 6 -1 6 C-1.020625 5.195625 -1.04125 4.39125 -1.0625 3.5625 C-1 1 -1 1 0 0 Z " fill="#898989" transform="translate(16,24)"/>
<path d="M0 0 C2.91652059 2.91652059 4.63144171 5.51504513 6.6875 9.0625 C7.31011719 10.12597656 7.93273438 11.18945312 8.57421875 12.28515625 C10 15 10 15 10 17 C6.04 17 2.08 17 -2 17 C-3.98 13.535 -3.98 13.535 -6 10 C-4.02 6.7 -2.04 3.4 0 0 Z " fill="#F9F9F9" transform="translate(26,20)"/>
<path d="M0 0 C0.89203125 0.00902344 1.7840625 0.01804687 2.703125 0.02734375 C3.37859375 0.03894531 4.0540625 0.05054688 4.75 0.0625 C4.1483262 2.89098714 3.30237484 5.08874554 1.8125 7.5625 C0.34535964 10.01703139 -0.99341331 12.49297743 -2.25 15.0625 C-3.08819158 13.44000059 -3.9204116 11.81441503 -4.75 10.1875 C-5.2140625 9.28257813 -5.678125 8.37765625 -6.15625 7.4453125 C-7.25 5.0625 -7.25 5.0625 -7.25 3.0625 C-7.91 3.0625 -8.57 3.0625 -9.25 3.0625 C-9.25 2.4025 -9.25 1.7425 -9.25 1.0625 C-6.09493858 0.12630187 -3.28413498 -0.0432123 0 0 Z " fill="#929292" transform="translate(47.25,12.9375)"/>
<path d="M0 0 C3.3 0 6.6 0 10 0 C6.25 7.875 6.25 7.875 4 9 C0 2.25 0 2.25 0 0 Z " fill="#F6F6F6" transform="translate(11,15)"/>
<path d="M0 0 C3.3 0 6.6 0 10 0 C8.87548273 2.9719385 7.77706209 5.33440687 6 8 C5.01 7.67 4.02 7.34 3 7 C1.3125 3.4375 1.3125 3.4375 0 0 Z " fill="#FAFAFA" transform="translate(39,15)"/>
<path d="M0 0 C2.97 0 5.94 0 9 0 C8.45276317 3.37462715 7.9451 5.08235 6 8 C2.24623848 6.74874616 1.75926711 5.4347596 0 2 C0 1.34 0 0.68 0 0 Z " fill="#F1F1F1" transform="translate(25,40)"/>
<path d="M0 0 C0.33 0 0.66 0 1 0 C1.61528766 5.07612318 -0.38341651 7.82982006 -3 12 C-6 11 -6 11 -7.16796875 9.15234375 C-7.50441406 8.42144531 -7.84085938 7.69054688 -8.1875 6.9375 C-8.53167969 6.20402344 -8.87585938 5.47054687 -9.23046875 4.71484375 C-9.48441406 4.14894531 -9.73835938 3.58304688 -10 3 C-9.01 3 -8.02 3 -7 3 C-6.566875 3.9590625 -6.566875 3.9590625 -6.125 4.9375 C-5.17176549 7.15206079 -5.17176549 7.15206079 -3 8 C-1.92474806 5.34771188 -0.90543849 2.71631546 0 0 Z " fill="#989898" transform="translate(34,40)"/>
<path d="M0 0 C0.33 0.66 0.66 1.32 1 2 C1.66 2 2.32 2 3 2 C3.87144869 3.5529276 4.72153657 5.11785436 5.5625 6.6875 C6.03816406 7.55761719 6.51382812 8.42773438 7.00390625 9.32421875 C8.14268368 12.38328753 7.92718689 13.91863039 7 17 C6.34 17 5.68 17 5 17 C4.87625 15.4840625 4.87625 15.4840625 4.75 13.9375 C4.34236453 10.93803303 3.49916252 8.83805555 1.9375 6.25 C0 3 0 3 0 0 Z " fill="#989898" transform="translate(8,13)"/>
<path d="M0 0 C0.66 0 1.32 0 2 0 C2 1.98 2 3.96 2 6 C-0.31 6 -2.62 6 -5 6 C-5 4.35 -5 2.7 -5 1 C-3.68 1.33 -2.36 1.66 -1 2 C-0.67 1.34 -0.34 0.68 0 0 Z " fill="#BABABA" transform="translate(53,54)"/>
<path d="M0 0 C0.9435441 2.53899138 1.16906025 3.60909275 0.07421875 6.140625 C-0.61220703 7.18476563 -0.61220703 7.18476563 -1.3125 8.25 C-1.76238281 8.95640625 -2.21226563 9.6628125 -2.67578125 10.390625 C-3.11277344 10.92171875 -3.54976562 11.4528125 -4 12 C-4.66 12 -5.32 12 -6 12 C-5.36934243 8.78147169 -4.21979305 6.49198931 -2.4375 3.75 C-1.98246094 3.04359375 -1.52742188 2.3371875 -1.05859375 1.609375 C-0.53458984 0.81273438 -0.53458984 0.81273438 0 0 Z " fill="#E9E9E9" transform="translate(24,16)"/>
<path d="M0 0 C1.65 0 3.3 0 5 0 C5 1.65 5 3.3 5 5 C3.35 5 1.7 5 0 5 C0 3.35 0 1.7 0 0 Z " fill="#B1B1B1" transform="translate(35,55)"/>
<path d="M0 0 C4.95 0 9.9 0 15 0 C15 0.33 15 0.66 15 1 C14.10796875 1.03738281 13.2159375 1.07476562 12.296875 1.11328125 C11.12640625 1.17902344 9.9559375 1.24476562 8.75 1.3125 C7.58984375 1.37050781 6.4296875 1.42851563 5.234375 1.48828125 C1.89180362 2.01711803 0.4502943 2.73772333 -2 5 C-1.34 3.35 -0.68 1.7 0 0 Z " fill="#E4E4E4" transform="translate(37,40)"/>
<path d="M0 0 C0.66 0.66 1.32 1.32 2 2 C1.54625 2.7425 1.0925 3.485 0.625 4.25 C-0.68640796 6.46930578 -1.88280803 8.67967822 -3 11 C-3.66 9.35 -4.32 7.7 -5 6 C-4.54625 5.566875 -4.0925 5.13375 -3.625 4.6875 C-1.79975666 2.89201658 -1.79975666 2.89201658 0 0 Z " fill="#A0A0A0" transform="translate(48,17)"/>
<path d="M0 0 C1.66666667 0 3.33333333 0 5 0 C5 1.65 5 3.3 5 5 C3.35 5 1.7 5 0 5 C0 3.35 0 1.7 0 0 Z " fill="#B2B2B2" transform="translate(19,55)"/>
<path d="M0 0 C1.32 0 2.64 0 4 0 C4 1.65 4 3.3 4 5 C2.68 5 1.36 5 0 5 C0 3.35 0 1.7 0 0 Z " fill="#B8B8B8" transform="translate(56,55)"/>
<path d="M0 0 C1.32 0 2.64 0 4 0 C4 1.65 4 3.3 4 5 C2.68 5 1.36 5 0 5 C0 3.35 0 1.7 0 0 Z " fill="#AAAAAA" transform="translate(6,55)"/>
<path d="M0 0 C0.99 0 1.98 0 3 0 C3.33 1.65 3.66 3.3 4 5 C2.35 5 0.7 5 -1 5 C-0.67 3.35 -0.34 1.7 0 0 Z " fill="#B2B2B2" transform="translate(13,55)"/>
<path d="M0 0 C1.32 0 2.64 0 4 0 C3.67 1.65 3.34 3.3 3 5 C2.01 5 1.02 5 0 5 C0 3.35 0 1.7 0 0 Z " fill="#B3B3B3" transform="translate(26,55)"/>
<path d="M0 0 C1.32 0 2.64 0 4 0 C3.67 1.65 3.34 3.3 3 5 C2.01 5 1.02 5 0 5 C0 3.35 0 1.7 0 0 Z " fill="#A1A1A1" transform="translate(0,55)"/>
</svg>
