<?xml version="1.0" encoding="UTF-8"?>
<svg version="1.1" xmlns="http://www.w3.org/2000/svg" width="28" height="43">
<path d="M0 0 C9.24 0 18.48 0 28 0 C28 14.19 28 28.38 28 43 C18.76 43 9.52 43 0 43 C0 28.81 0 14.62 0 0 Z " fill="#FBFBFB" transform="translate(0,0)"/>
<path d="M0 0 C4.07376031 1.61010527 6.76507069 4.53822271 9.75 7.625 C10.25660156 8.140625 10.76320313 8.65625 11.28515625 9.1875 C12.52803902 10.45383339 13.76465276 11.7263144 15 13 C13.41123661 16.78995513 11.02610453 19.37175677 8.1875 22.3125 C6.90939453 23.66794922 6.90939453 23.66794922 5.60546875 25.05078125 C3 27 3 27 0.17578125 26.79296875 C-0.54222656 26.53128906 -1.26023437 26.26960938 -2 26 C-2.71875 24.21875 -2.71875 24.21875 -3 22 C-1.33902157 19.98562191 0.54065687 18.46559804 2.53125 16.78125 C4.23106361 15.12495467 4.23106361 15.12495467 3.91015625 12.984375 C2.8781354 10.73430379 1.74010669 9.43754669 -0.0625 7.75 C-0.61035156 7.22921875 -1.15820312 6.7084375 -1.72265625 6.171875 C-2.14417969 5.78515625 -2.56570312 5.3984375 -3 5 C-1.125 1.125 -1.125 1.125 0 0 Z " fill="#0C0C0C" transform="translate(8,8)"/>
</svg>
